G04 #@! TF.GenerationSoftware,KiCad,Pcbnew,5.1.9-73d0e3b20d~88~ubuntu18.04.1*
G04 #@! TF.CreationDate,2021-01-11T20:19:43+02:00*
G04 #@! TF.ProjectId,iPod nano 6 LCD,69506f64-206e-4616-9e6f-2036204c4344,rev?*
G04 #@! TF.SameCoordinates,Original*
G04 #@! TF.FileFunction,Paste,Top*
G04 #@! TF.FilePolarity,Positive*
%FSLAX46Y46*%
G04 Gerber Fmt 4.6, Leading zero omitted, Abs format (unit mm)*
G04 Created by KiCad (PCBNEW 5.1.9-73d0e3b20d~88~ubuntu18.04.1) date 2021-01-11 20:19:43*
%MOMM*%
%LPD*%
G01*
G04 APERTURE LIST*
%ADD10R,0.750000X0.300000*%
%ADD11R,0.710000X0.580000*%
%ADD12R,0.300000X1.750000*%
%ADD13R,0.900000X1.000000*%
%ADD14R,0.470000X0.500000*%
%ADD15R,0.470000X0.240000*%
%ADD16R,1.200000X1.400000*%
%ADD17R,0.375000X0.500000*%
%ADD18R,0.300000X0.650000*%
%ADD19R,1.060000X0.650000*%
%ADD20R,0.800000X0.600000*%
%ADD21R,1.220000X0.650000*%
%ADD22R,0.600000X0.450000*%
G04 APERTURE END LIST*
G36*
G01*
X151386250Y-93503000D02*
X150873750Y-93503000D01*
G75*
G02*
X150655000Y-93284250I0J218750D01*
G01*
X150655000Y-92846750D01*
G75*
G02*
X150873750Y-92628000I218750J0D01*
G01*
X151386250Y-92628000D01*
G75*
G02*
X151605000Y-92846750I0J-218750D01*
G01*
X151605000Y-93284250D01*
G75*
G02*
X151386250Y-93503000I-218750J0D01*
G01*
G37*
G36*
G01*
X151386250Y-95078000D02*
X150873750Y-95078000D01*
G75*
G02*
X150655000Y-94859250I0J218750D01*
G01*
X150655000Y-94421750D01*
G75*
G02*
X150873750Y-94203000I218750J0D01*
G01*
X151386250Y-94203000D01*
G75*
G02*
X151605000Y-94421750I0J-218750D01*
G01*
X151605000Y-94859250D01*
G75*
G02*
X151386250Y-95078000I-218750J0D01*
G01*
G37*
D10*
X145616000Y-80784000D03*
X145616000Y-81284000D03*
X145616000Y-81784000D03*
X145616000Y-82284000D03*
X148516000Y-82284000D03*
X148516000Y-81784000D03*
X148516000Y-81284000D03*
X148516000Y-80784000D03*
D11*
X146628500Y-81896500D03*
X147503500Y-81896500D03*
X147503500Y-81171500D03*
X146628500Y-81171500D03*
G36*
G01*
X174443500Y-58795000D02*
X175768500Y-58795000D01*
G75*
G02*
X175843500Y-58870000I0J-75000D01*
G01*
X175843500Y-59020000D01*
G75*
G02*
X175768500Y-59095000I-75000J0D01*
G01*
X174443500Y-59095000D01*
G75*
G02*
X174368500Y-59020000I0J75000D01*
G01*
X174368500Y-58870000D01*
G75*
G02*
X174443500Y-58795000I75000J0D01*
G01*
G37*
G36*
G01*
X174443500Y-59295000D02*
X175768500Y-59295000D01*
G75*
G02*
X175843500Y-59370000I0J-75000D01*
G01*
X175843500Y-59520000D01*
G75*
G02*
X175768500Y-59595000I-75000J0D01*
G01*
X174443500Y-59595000D01*
G75*
G02*
X174368500Y-59520000I0J75000D01*
G01*
X174368500Y-59370000D01*
G75*
G02*
X174443500Y-59295000I75000J0D01*
G01*
G37*
G36*
G01*
X174443500Y-59795000D02*
X175768500Y-59795000D01*
G75*
G02*
X175843500Y-59870000I0J-75000D01*
G01*
X175843500Y-60020000D01*
G75*
G02*
X175768500Y-60095000I-75000J0D01*
G01*
X174443500Y-60095000D01*
G75*
G02*
X174368500Y-60020000I0J75000D01*
G01*
X174368500Y-59870000D01*
G75*
G02*
X174443500Y-59795000I75000J0D01*
G01*
G37*
G36*
G01*
X174443500Y-60295000D02*
X175768500Y-60295000D01*
G75*
G02*
X175843500Y-60370000I0J-75000D01*
G01*
X175843500Y-60520000D01*
G75*
G02*
X175768500Y-60595000I-75000J0D01*
G01*
X174443500Y-60595000D01*
G75*
G02*
X174368500Y-60520000I0J75000D01*
G01*
X174368500Y-60370000D01*
G75*
G02*
X174443500Y-60295000I75000J0D01*
G01*
G37*
G36*
G01*
X174443500Y-60795000D02*
X175768500Y-60795000D01*
G75*
G02*
X175843500Y-60870000I0J-75000D01*
G01*
X175843500Y-61020000D01*
G75*
G02*
X175768500Y-61095000I-75000J0D01*
G01*
X174443500Y-61095000D01*
G75*
G02*
X174368500Y-61020000I0J75000D01*
G01*
X174368500Y-60870000D01*
G75*
G02*
X174443500Y-60795000I75000J0D01*
G01*
G37*
G36*
G01*
X174443500Y-61295000D02*
X175768500Y-61295000D01*
G75*
G02*
X175843500Y-61370000I0J-75000D01*
G01*
X175843500Y-61520000D01*
G75*
G02*
X175768500Y-61595000I-75000J0D01*
G01*
X174443500Y-61595000D01*
G75*
G02*
X174368500Y-61520000I0J75000D01*
G01*
X174368500Y-61370000D01*
G75*
G02*
X174443500Y-61295000I75000J0D01*
G01*
G37*
G36*
G01*
X174443500Y-61795000D02*
X175768500Y-61795000D01*
G75*
G02*
X175843500Y-61870000I0J-75000D01*
G01*
X175843500Y-62020000D01*
G75*
G02*
X175768500Y-62095000I-75000J0D01*
G01*
X174443500Y-62095000D01*
G75*
G02*
X174368500Y-62020000I0J75000D01*
G01*
X174368500Y-61870000D01*
G75*
G02*
X174443500Y-61795000I75000J0D01*
G01*
G37*
G36*
G01*
X174443500Y-62295000D02*
X175768500Y-62295000D01*
G75*
G02*
X175843500Y-62370000I0J-75000D01*
G01*
X175843500Y-62520000D01*
G75*
G02*
X175768500Y-62595000I-75000J0D01*
G01*
X174443500Y-62595000D01*
G75*
G02*
X174368500Y-62520000I0J75000D01*
G01*
X174368500Y-62370000D01*
G75*
G02*
X174443500Y-62295000I75000J0D01*
G01*
G37*
G36*
G01*
X174443500Y-62795000D02*
X175768500Y-62795000D01*
G75*
G02*
X175843500Y-62870000I0J-75000D01*
G01*
X175843500Y-63020000D01*
G75*
G02*
X175768500Y-63095000I-75000J0D01*
G01*
X174443500Y-63095000D01*
G75*
G02*
X174368500Y-63020000I0J75000D01*
G01*
X174368500Y-62870000D01*
G75*
G02*
X174443500Y-62795000I75000J0D01*
G01*
G37*
G36*
G01*
X174443500Y-63295000D02*
X175768500Y-63295000D01*
G75*
G02*
X175843500Y-63370000I0J-75000D01*
G01*
X175843500Y-63520000D01*
G75*
G02*
X175768500Y-63595000I-75000J0D01*
G01*
X174443500Y-63595000D01*
G75*
G02*
X174368500Y-63520000I0J75000D01*
G01*
X174368500Y-63370000D01*
G75*
G02*
X174443500Y-63295000I75000J0D01*
G01*
G37*
G36*
G01*
X174443500Y-63795000D02*
X175768500Y-63795000D01*
G75*
G02*
X175843500Y-63870000I0J-75000D01*
G01*
X175843500Y-64020000D01*
G75*
G02*
X175768500Y-64095000I-75000J0D01*
G01*
X174443500Y-64095000D01*
G75*
G02*
X174368500Y-64020000I0J75000D01*
G01*
X174368500Y-63870000D01*
G75*
G02*
X174443500Y-63795000I75000J0D01*
G01*
G37*
G36*
G01*
X174443500Y-64295000D02*
X175768500Y-64295000D01*
G75*
G02*
X175843500Y-64370000I0J-75000D01*
G01*
X175843500Y-64520000D01*
G75*
G02*
X175768500Y-64595000I-75000J0D01*
G01*
X174443500Y-64595000D01*
G75*
G02*
X174368500Y-64520000I0J75000D01*
G01*
X174368500Y-64370000D01*
G75*
G02*
X174443500Y-64295000I75000J0D01*
G01*
G37*
G36*
G01*
X174443500Y-64795000D02*
X175768500Y-64795000D01*
G75*
G02*
X175843500Y-64870000I0J-75000D01*
G01*
X175843500Y-65020000D01*
G75*
G02*
X175768500Y-65095000I-75000J0D01*
G01*
X174443500Y-65095000D01*
G75*
G02*
X174368500Y-65020000I0J75000D01*
G01*
X174368500Y-64870000D01*
G75*
G02*
X174443500Y-64795000I75000J0D01*
G01*
G37*
G36*
G01*
X174443500Y-65295000D02*
X175768500Y-65295000D01*
G75*
G02*
X175843500Y-65370000I0J-75000D01*
G01*
X175843500Y-65520000D01*
G75*
G02*
X175768500Y-65595000I-75000J0D01*
G01*
X174443500Y-65595000D01*
G75*
G02*
X174368500Y-65520000I0J75000D01*
G01*
X174368500Y-65370000D01*
G75*
G02*
X174443500Y-65295000I75000J0D01*
G01*
G37*
G36*
G01*
X174443500Y-65795000D02*
X175768500Y-65795000D01*
G75*
G02*
X175843500Y-65870000I0J-75000D01*
G01*
X175843500Y-66020000D01*
G75*
G02*
X175768500Y-66095000I-75000J0D01*
G01*
X174443500Y-66095000D01*
G75*
G02*
X174368500Y-66020000I0J75000D01*
G01*
X174368500Y-65870000D01*
G75*
G02*
X174443500Y-65795000I75000J0D01*
G01*
G37*
G36*
G01*
X174443500Y-66295000D02*
X175768500Y-66295000D01*
G75*
G02*
X175843500Y-66370000I0J-75000D01*
G01*
X175843500Y-66520000D01*
G75*
G02*
X175768500Y-66595000I-75000J0D01*
G01*
X174443500Y-66595000D01*
G75*
G02*
X174368500Y-66520000I0J75000D01*
G01*
X174368500Y-66370000D01*
G75*
G02*
X174443500Y-66295000I75000J0D01*
G01*
G37*
G36*
G01*
X174443500Y-66795000D02*
X175768500Y-66795000D01*
G75*
G02*
X175843500Y-66870000I0J-75000D01*
G01*
X175843500Y-67020000D01*
G75*
G02*
X175768500Y-67095000I-75000J0D01*
G01*
X174443500Y-67095000D01*
G75*
G02*
X174368500Y-67020000I0J75000D01*
G01*
X174368500Y-66870000D01*
G75*
G02*
X174443500Y-66795000I75000J0D01*
G01*
G37*
G36*
G01*
X174443500Y-67295000D02*
X175768500Y-67295000D01*
G75*
G02*
X175843500Y-67370000I0J-75000D01*
G01*
X175843500Y-67520000D01*
G75*
G02*
X175768500Y-67595000I-75000J0D01*
G01*
X174443500Y-67595000D01*
G75*
G02*
X174368500Y-67520000I0J75000D01*
G01*
X174368500Y-67370000D01*
G75*
G02*
X174443500Y-67295000I75000J0D01*
G01*
G37*
G36*
G01*
X174443500Y-67795000D02*
X175768500Y-67795000D01*
G75*
G02*
X175843500Y-67870000I0J-75000D01*
G01*
X175843500Y-68020000D01*
G75*
G02*
X175768500Y-68095000I-75000J0D01*
G01*
X174443500Y-68095000D01*
G75*
G02*
X174368500Y-68020000I0J75000D01*
G01*
X174368500Y-67870000D01*
G75*
G02*
X174443500Y-67795000I75000J0D01*
G01*
G37*
G36*
G01*
X174443500Y-68295000D02*
X175768500Y-68295000D01*
G75*
G02*
X175843500Y-68370000I0J-75000D01*
G01*
X175843500Y-68520000D01*
G75*
G02*
X175768500Y-68595000I-75000J0D01*
G01*
X174443500Y-68595000D01*
G75*
G02*
X174368500Y-68520000I0J75000D01*
G01*
X174368500Y-68370000D01*
G75*
G02*
X174443500Y-68295000I75000J0D01*
G01*
G37*
G36*
G01*
X174443500Y-68795000D02*
X175768500Y-68795000D01*
G75*
G02*
X175843500Y-68870000I0J-75000D01*
G01*
X175843500Y-69020000D01*
G75*
G02*
X175768500Y-69095000I-75000J0D01*
G01*
X174443500Y-69095000D01*
G75*
G02*
X174368500Y-69020000I0J75000D01*
G01*
X174368500Y-68870000D01*
G75*
G02*
X174443500Y-68795000I75000J0D01*
G01*
G37*
G36*
G01*
X174443500Y-69295000D02*
X175768500Y-69295000D01*
G75*
G02*
X175843500Y-69370000I0J-75000D01*
G01*
X175843500Y-69520000D01*
G75*
G02*
X175768500Y-69595000I-75000J0D01*
G01*
X174443500Y-69595000D01*
G75*
G02*
X174368500Y-69520000I0J75000D01*
G01*
X174368500Y-69370000D01*
G75*
G02*
X174443500Y-69295000I75000J0D01*
G01*
G37*
G36*
G01*
X174443500Y-69795000D02*
X175768500Y-69795000D01*
G75*
G02*
X175843500Y-69870000I0J-75000D01*
G01*
X175843500Y-70020000D01*
G75*
G02*
X175768500Y-70095000I-75000J0D01*
G01*
X174443500Y-70095000D01*
G75*
G02*
X174368500Y-70020000I0J75000D01*
G01*
X174368500Y-69870000D01*
G75*
G02*
X174443500Y-69795000I75000J0D01*
G01*
G37*
G36*
G01*
X174443500Y-70295000D02*
X175768500Y-70295000D01*
G75*
G02*
X175843500Y-70370000I0J-75000D01*
G01*
X175843500Y-70520000D01*
G75*
G02*
X175768500Y-70595000I-75000J0D01*
G01*
X174443500Y-70595000D01*
G75*
G02*
X174368500Y-70520000I0J75000D01*
G01*
X174368500Y-70370000D01*
G75*
G02*
X174443500Y-70295000I75000J0D01*
G01*
G37*
G36*
G01*
X174443500Y-70795000D02*
X175768500Y-70795000D01*
G75*
G02*
X175843500Y-70870000I0J-75000D01*
G01*
X175843500Y-71020000D01*
G75*
G02*
X175768500Y-71095000I-75000J0D01*
G01*
X174443500Y-71095000D01*
G75*
G02*
X174368500Y-71020000I0J75000D01*
G01*
X174368500Y-70870000D01*
G75*
G02*
X174443500Y-70795000I75000J0D01*
G01*
G37*
G36*
G01*
X174443500Y-71295000D02*
X175768500Y-71295000D01*
G75*
G02*
X175843500Y-71370000I0J-75000D01*
G01*
X175843500Y-71520000D01*
G75*
G02*
X175768500Y-71595000I-75000J0D01*
G01*
X174443500Y-71595000D01*
G75*
G02*
X174368500Y-71520000I0J75000D01*
G01*
X174368500Y-71370000D01*
G75*
G02*
X174443500Y-71295000I75000J0D01*
G01*
G37*
G36*
G01*
X174443500Y-71795000D02*
X175768500Y-71795000D01*
G75*
G02*
X175843500Y-71870000I0J-75000D01*
G01*
X175843500Y-72020000D01*
G75*
G02*
X175768500Y-72095000I-75000J0D01*
G01*
X174443500Y-72095000D01*
G75*
G02*
X174368500Y-72020000I0J75000D01*
G01*
X174368500Y-71870000D01*
G75*
G02*
X174443500Y-71795000I75000J0D01*
G01*
G37*
G36*
G01*
X174443500Y-72295000D02*
X175768500Y-72295000D01*
G75*
G02*
X175843500Y-72370000I0J-75000D01*
G01*
X175843500Y-72520000D01*
G75*
G02*
X175768500Y-72595000I-75000J0D01*
G01*
X174443500Y-72595000D01*
G75*
G02*
X174368500Y-72520000I0J75000D01*
G01*
X174368500Y-72370000D01*
G75*
G02*
X174443500Y-72295000I75000J0D01*
G01*
G37*
G36*
G01*
X174443500Y-72795000D02*
X175768500Y-72795000D01*
G75*
G02*
X175843500Y-72870000I0J-75000D01*
G01*
X175843500Y-73020000D01*
G75*
G02*
X175768500Y-73095000I-75000J0D01*
G01*
X174443500Y-73095000D01*
G75*
G02*
X174368500Y-73020000I0J75000D01*
G01*
X174368500Y-72870000D01*
G75*
G02*
X174443500Y-72795000I75000J0D01*
G01*
G37*
G36*
G01*
X174443500Y-73295000D02*
X175768500Y-73295000D01*
G75*
G02*
X175843500Y-73370000I0J-75000D01*
G01*
X175843500Y-73520000D01*
G75*
G02*
X175768500Y-73595000I-75000J0D01*
G01*
X174443500Y-73595000D01*
G75*
G02*
X174368500Y-73520000I0J75000D01*
G01*
X174368500Y-73370000D01*
G75*
G02*
X174443500Y-73295000I75000J0D01*
G01*
G37*
G36*
G01*
X174443500Y-73795000D02*
X175768500Y-73795000D01*
G75*
G02*
X175843500Y-73870000I0J-75000D01*
G01*
X175843500Y-74020000D01*
G75*
G02*
X175768500Y-74095000I-75000J0D01*
G01*
X174443500Y-74095000D01*
G75*
G02*
X174368500Y-74020000I0J75000D01*
G01*
X174368500Y-73870000D01*
G75*
G02*
X174443500Y-73795000I75000J0D01*
G01*
G37*
G36*
G01*
X174443500Y-74295000D02*
X175768500Y-74295000D01*
G75*
G02*
X175843500Y-74370000I0J-75000D01*
G01*
X175843500Y-74520000D01*
G75*
G02*
X175768500Y-74595000I-75000J0D01*
G01*
X174443500Y-74595000D01*
G75*
G02*
X174368500Y-74520000I0J75000D01*
G01*
X174368500Y-74370000D01*
G75*
G02*
X174443500Y-74295000I75000J0D01*
G01*
G37*
G36*
G01*
X174443500Y-74795000D02*
X175768500Y-74795000D01*
G75*
G02*
X175843500Y-74870000I0J-75000D01*
G01*
X175843500Y-75020000D01*
G75*
G02*
X175768500Y-75095000I-75000J0D01*
G01*
X174443500Y-75095000D01*
G75*
G02*
X174368500Y-75020000I0J75000D01*
G01*
X174368500Y-74870000D01*
G75*
G02*
X174443500Y-74795000I75000J0D01*
G01*
G37*
G36*
G01*
X174443500Y-75295000D02*
X175768500Y-75295000D01*
G75*
G02*
X175843500Y-75370000I0J-75000D01*
G01*
X175843500Y-75520000D01*
G75*
G02*
X175768500Y-75595000I-75000J0D01*
G01*
X174443500Y-75595000D01*
G75*
G02*
X174368500Y-75520000I0J75000D01*
G01*
X174368500Y-75370000D01*
G75*
G02*
X174443500Y-75295000I75000J0D01*
G01*
G37*
G36*
G01*
X174443500Y-75795000D02*
X175768500Y-75795000D01*
G75*
G02*
X175843500Y-75870000I0J-75000D01*
G01*
X175843500Y-76020000D01*
G75*
G02*
X175768500Y-76095000I-75000J0D01*
G01*
X174443500Y-76095000D01*
G75*
G02*
X174368500Y-76020000I0J75000D01*
G01*
X174368500Y-75870000D01*
G75*
G02*
X174443500Y-75795000I75000J0D01*
G01*
G37*
G36*
G01*
X174443500Y-76295000D02*
X175768500Y-76295000D01*
G75*
G02*
X175843500Y-76370000I0J-75000D01*
G01*
X175843500Y-76520000D01*
G75*
G02*
X175768500Y-76595000I-75000J0D01*
G01*
X174443500Y-76595000D01*
G75*
G02*
X174368500Y-76520000I0J75000D01*
G01*
X174368500Y-76370000D01*
G75*
G02*
X174443500Y-76295000I75000J0D01*
G01*
G37*
G36*
G01*
X173118500Y-77620000D02*
X173268500Y-77620000D01*
G75*
G02*
X173343500Y-77695000I0J-75000D01*
G01*
X173343500Y-79020000D01*
G75*
G02*
X173268500Y-79095000I-75000J0D01*
G01*
X173118500Y-79095000D01*
G75*
G02*
X173043500Y-79020000I0J75000D01*
G01*
X173043500Y-77695000D01*
G75*
G02*
X173118500Y-77620000I75000J0D01*
G01*
G37*
G36*
G01*
X172618500Y-77620000D02*
X172768500Y-77620000D01*
G75*
G02*
X172843500Y-77695000I0J-75000D01*
G01*
X172843500Y-79020000D01*
G75*
G02*
X172768500Y-79095000I-75000J0D01*
G01*
X172618500Y-79095000D01*
G75*
G02*
X172543500Y-79020000I0J75000D01*
G01*
X172543500Y-77695000D01*
G75*
G02*
X172618500Y-77620000I75000J0D01*
G01*
G37*
G36*
G01*
X172118500Y-77620000D02*
X172268500Y-77620000D01*
G75*
G02*
X172343500Y-77695000I0J-75000D01*
G01*
X172343500Y-79020000D01*
G75*
G02*
X172268500Y-79095000I-75000J0D01*
G01*
X172118500Y-79095000D01*
G75*
G02*
X172043500Y-79020000I0J75000D01*
G01*
X172043500Y-77695000D01*
G75*
G02*
X172118500Y-77620000I75000J0D01*
G01*
G37*
G36*
G01*
X171618500Y-77620000D02*
X171768500Y-77620000D01*
G75*
G02*
X171843500Y-77695000I0J-75000D01*
G01*
X171843500Y-79020000D01*
G75*
G02*
X171768500Y-79095000I-75000J0D01*
G01*
X171618500Y-79095000D01*
G75*
G02*
X171543500Y-79020000I0J75000D01*
G01*
X171543500Y-77695000D01*
G75*
G02*
X171618500Y-77620000I75000J0D01*
G01*
G37*
G36*
G01*
X171118500Y-77620000D02*
X171268500Y-77620000D01*
G75*
G02*
X171343500Y-77695000I0J-75000D01*
G01*
X171343500Y-79020000D01*
G75*
G02*
X171268500Y-79095000I-75000J0D01*
G01*
X171118500Y-79095000D01*
G75*
G02*
X171043500Y-79020000I0J75000D01*
G01*
X171043500Y-77695000D01*
G75*
G02*
X171118500Y-77620000I75000J0D01*
G01*
G37*
G36*
G01*
X170618500Y-77620000D02*
X170768500Y-77620000D01*
G75*
G02*
X170843500Y-77695000I0J-75000D01*
G01*
X170843500Y-79020000D01*
G75*
G02*
X170768500Y-79095000I-75000J0D01*
G01*
X170618500Y-79095000D01*
G75*
G02*
X170543500Y-79020000I0J75000D01*
G01*
X170543500Y-77695000D01*
G75*
G02*
X170618500Y-77620000I75000J0D01*
G01*
G37*
G36*
G01*
X170118500Y-77620000D02*
X170268500Y-77620000D01*
G75*
G02*
X170343500Y-77695000I0J-75000D01*
G01*
X170343500Y-79020000D01*
G75*
G02*
X170268500Y-79095000I-75000J0D01*
G01*
X170118500Y-79095000D01*
G75*
G02*
X170043500Y-79020000I0J75000D01*
G01*
X170043500Y-77695000D01*
G75*
G02*
X170118500Y-77620000I75000J0D01*
G01*
G37*
G36*
G01*
X169618500Y-77620000D02*
X169768500Y-77620000D01*
G75*
G02*
X169843500Y-77695000I0J-75000D01*
G01*
X169843500Y-79020000D01*
G75*
G02*
X169768500Y-79095000I-75000J0D01*
G01*
X169618500Y-79095000D01*
G75*
G02*
X169543500Y-79020000I0J75000D01*
G01*
X169543500Y-77695000D01*
G75*
G02*
X169618500Y-77620000I75000J0D01*
G01*
G37*
G36*
G01*
X169118500Y-77620000D02*
X169268500Y-77620000D01*
G75*
G02*
X169343500Y-77695000I0J-75000D01*
G01*
X169343500Y-79020000D01*
G75*
G02*
X169268500Y-79095000I-75000J0D01*
G01*
X169118500Y-79095000D01*
G75*
G02*
X169043500Y-79020000I0J75000D01*
G01*
X169043500Y-77695000D01*
G75*
G02*
X169118500Y-77620000I75000J0D01*
G01*
G37*
G36*
G01*
X168618500Y-77620000D02*
X168768500Y-77620000D01*
G75*
G02*
X168843500Y-77695000I0J-75000D01*
G01*
X168843500Y-79020000D01*
G75*
G02*
X168768500Y-79095000I-75000J0D01*
G01*
X168618500Y-79095000D01*
G75*
G02*
X168543500Y-79020000I0J75000D01*
G01*
X168543500Y-77695000D01*
G75*
G02*
X168618500Y-77620000I75000J0D01*
G01*
G37*
G36*
G01*
X168118500Y-77620000D02*
X168268500Y-77620000D01*
G75*
G02*
X168343500Y-77695000I0J-75000D01*
G01*
X168343500Y-79020000D01*
G75*
G02*
X168268500Y-79095000I-75000J0D01*
G01*
X168118500Y-79095000D01*
G75*
G02*
X168043500Y-79020000I0J75000D01*
G01*
X168043500Y-77695000D01*
G75*
G02*
X168118500Y-77620000I75000J0D01*
G01*
G37*
G36*
G01*
X167618500Y-77620000D02*
X167768500Y-77620000D01*
G75*
G02*
X167843500Y-77695000I0J-75000D01*
G01*
X167843500Y-79020000D01*
G75*
G02*
X167768500Y-79095000I-75000J0D01*
G01*
X167618500Y-79095000D01*
G75*
G02*
X167543500Y-79020000I0J75000D01*
G01*
X167543500Y-77695000D01*
G75*
G02*
X167618500Y-77620000I75000J0D01*
G01*
G37*
G36*
G01*
X167118500Y-77620000D02*
X167268500Y-77620000D01*
G75*
G02*
X167343500Y-77695000I0J-75000D01*
G01*
X167343500Y-79020000D01*
G75*
G02*
X167268500Y-79095000I-75000J0D01*
G01*
X167118500Y-79095000D01*
G75*
G02*
X167043500Y-79020000I0J75000D01*
G01*
X167043500Y-77695000D01*
G75*
G02*
X167118500Y-77620000I75000J0D01*
G01*
G37*
G36*
G01*
X166618500Y-77620000D02*
X166768500Y-77620000D01*
G75*
G02*
X166843500Y-77695000I0J-75000D01*
G01*
X166843500Y-79020000D01*
G75*
G02*
X166768500Y-79095000I-75000J0D01*
G01*
X166618500Y-79095000D01*
G75*
G02*
X166543500Y-79020000I0J75000D01*
G01*
X166543500Y-77695000D01*
G75*
G02*
X166618500Y-77620000I75000J0D01*
G01*
G37*
G36*
G01*
X166118500Y-77620000D02*
X166268500Y-77620000D01*
G75*
G02*
X166343500Y-77695000I0J-75000D01*
G01*
X166343500Y-79020000D01*
G75*
G02*
X166268500Y-79095000I-75000J0D01*
G01*
X166118500Y-79095000D01*
G75*
G02*
X166043500Y-79020000I0J75000D01*
G01*
X166043500Y-77695000D01*
G75*
G02*
X166118500Y-77620000I75000J0D01*
G01*
G37*
G36*
G01*
X165618500Y-77620000D02*
X165768500Y-77620000D01*
G75*
G02*
X165843500Y-77695000I0J-75000D01*
G01*
X165843500Y-79020000D01*
G75*
G02*
X165768500Y-79095000I-75000J0D01*
G01*
X165618500Y-79095000D01*
G75*
G02*
X165543500Y-79020000I0J75000D01*
G01*
X165543500Y-77695000D01*
G75*
G02*
X165618500Y-77620000I75000J0D01*
G01*
G37*
G36*
G01*
X165118500Y-77620000D02*
X165268500Y-77620000D01*
G75*
G02*
X165343500Y-77695000I0J-75000D01*
G01*
X165343500Y-79020000D01*
G75*
G02*
X165268500Y-79095000I-75000J0D01*
G01*
X165118500Y-79095000D01*
G75*
G02*
X165043500Y-79020000I0J75000D01*
G01*
X165043500Y-77695000D01*
G75*
G02*
X165118500Y-77620000I75000J0D01*
G01*
G37*
G36*
G01*
X164618500Y-77620000D02*
X164768500Y-77620000D01*
G75*
G02*
X164843500Y-77695000I0J-75000D01*
G01*
X164843500Y-79020000D01*
G75*
G02*
X164768500Y-79095000I-75000J0D01*
G01*
X164618500Y-79095000D01*
G75*
G02*
X164543500Y-79020000I0J75000D01*
G01*
X164543500Y-77695000D01*
G75*
G02*
X164618500Y-77620000I75000J0D01*
G01*
G37*
G36*
G01*
X164118500Y-77620000D02*
X164268500Y-77620000D01*
G75*
G02*
X164343500Y-77695000I0J-75000D01*
G01*
X164343500Y-79020000D01*
G75*
G02*
X164268500Y-79095000I-75000J0D01*
G01*
X164118500Y-79095000D01*
G75*
G02*
X164043500Y-79020000I0J75000D01*
G01*
X164043500Y-77695000D01*
G75*
G02*
X164118500Y-77620000I75000J0D01*
G01*
G37*
G36*
G01*
X163618500Y-77620000D02*
X163768500Y-77620000D01*
G75*
G02*
X163843500Y-77695000I0J-75000D01*
G01*
X163843500Y-79020000D01*
G75*
G02*
X163768500Y-79095000I-75000J0D01*
G01*
X163618500Y-79095000D01*
G75*
G02*
X163543500Y-79020000I0J75000D01*
G01*
X163543500Y-77695000D01*
G75*
G02*
X163618500Y-77620000I75000J0D01*
G01*
G37*
G36*
G01*
X163118500Y-77620000D02*
X163268500Y-77620000D01*
G75*
G02*
X163343500Y-77695000I0J-75000D01*
G01*
X163343500Y-79020000D01*
G75*
G02*
X163268500Y-79095000I-75000J0D01*
G01*
X163118500Y-79095000D01*
G75*
G02*
X163043500Y-79020000I0J75000D01*
G01*
X163043500Y-77695000D01*
G75*
G02*
X163118500Y-77620000I75000J0D01*
G01*
G37*
G36*
G01*
X162618500Y-77620000D02*
X162768500Y-77620000D01*
G75*
G02*
X162843500Y-77695000I0J-75000D01*
G01*
X162843500Y-79020000D01*
G75*
G02*
X162768500Y-79095000I-75000J0D01*
G01*
X162618500Y-79095000D01*
G75*
G02*
X162543500Y-79020000I0J75000D01*
G01*
X162543500Y-77695000D01*
G75*
G02*
X162618500Y-77620000I75000J0D01*
G01*
G37*
G36*
G01*
X162118500Y-77620000D02*
X162268500Y-77620000D01*
G75*
G02*
X162343500Y-77695000I0J-75000D01*
G01*
X162343500Y-79020000D01*
G75*
G02*
X162268500Y-79095000I-75000J0D01*
G01*
X162118500Y-79095000D01*
G75*
G02*
X162043500Y-79020000I0J75000D01*
G01*
X162043500Y-77695000D01*
G75*
G02*
X162118500Y-77620000I75000J0D01*
G01*
G37*
G36*
G01*
X161618500Y-77620000D02*
X161768500Y-77620000D01*
G75*
G02*
X161843500Y-77695000I0J-75000D01*
G01*
X161843500Y-79020000D01*
G75*
G02*
X161768500Y-79095000I-75000J0D01*
G01*
X161618500Y-79095000D01*
G75*
G02*
X161543500Y-79020000I0J75000D01*
G01*
X161543500Y-77695000D01*
G75*
G02*
X161618500Y-77620000I75000J0D01*
G01*
G37*
G36*
G01*
X161118500Y-77620000D02*
X161268500Y-77620000D01*
G75*
G02*
X161343500Y-77695000I0J-75000D01*
G01*
X161343500Y-79020000D01*
G75*
G02*
X161268500Y-79095000I-75000J0D01*
G01*
X161118500Y-79095000D01*
G75*
G02*
X161043500Y-79020000I0J75000D01*
G01*
X161043500Y-77695000D01*
G75*
G02*
X161118500Y-77620000I75000J0D01*
G01*
G37*
G36*
G01*
X160618500Y-77620000D02*
X160768500Y-77620000D01*
G75*
G02*
X160843500Y-77695000I0J-75000D01*
G01*
X160843500Y-79020000D01*
G75*
G02*
X160768500Y-79095000I-75000J0D01*
G01*
X160618500Y-79095000D01*
G75*
G02*
X160543500Y-79020000I0J75000D01*
G01*
X160543500Y-77695000D01*
G75*
G02*
X160618500Y-77620000I75000J0D01*
G01*
G37*
G36*
G01*
X160118500Y-77620000D02*
X160268500Y-77620000D01*
G75*
G02*
X160343500Y-77695000I0J-75000D01*
G01*
X160343500Y-79020000D01*
G75*
G02*
X160268500Y-79095000I-75000J0D01*
G01*
X160118500Y-79095000D01*
G75*
G02*
X160043500Y-79020000I0J75000D01*
G01*
X160043500Y-77695000D01*
G75*
G02*
X160118500Y-77620000I75000J0D01*
G01*
G37*
G36*
G01*
X159618500Y-77620000D02*
X159768500Y-77620000D01*
G75*
G02*
X159843500Y-77695000I0J-75000D01*
G01*
X159843500Y-79020000D01*
G75*
G02*
X159768500Y-79095000I-75000J0D01*
G01*
X159618500Y-79095000D01*
G75*
G02*
X159543500Y-79020000I0J75000D01*
G01*
X159543500Y-77695000D01*
G75*
G02*
X159618500Y-77620000I75000J0D01*
G01*
G37*
G36*
G01*
X159118500Y-77620000D02*
X159268500Y-77620000D01*
G75*
G02*
X159343500Y-77695000I0J-75000D01*
G01*
X159343500Y-79020000D01*
G75*
G02*
X159268500Y-79095000I-75000J0D01*
G01*
X159118500Y-79095000D01*
G75*
G02*
X159043500Y-79020000I0J75000D01*
G01*
X159043500Y-77695000D01*
G75*
G02*
X159118500Y-77620000I75000J0D01*
G01*
G37*
G36*
G01*
X158618500Y-77620000D02*
X158768500Y-77620000D01*
G75*
G02*
X158843500Y-77695000I0J-75000D01*
G01*
X158843500Y-79020000D01*
G75*
G02*
X158768500Y-79095000I-75000J0D01*
G01*
X158618500Y-79095000D01*
G75*
G02*
X158543500Y-79020000I0J75000D01*
G01*
X158543500Y-77695000D01*
G75*
G02*
X158618500Y-77620000I75000J0D01*
G01*
G37*
G36*
G01*
X158118500Y-77620000D02*
X158268500Y-77620000D01*
G75*
G02*
X158343500Y-77695000I0J-75000D01*
G01*
X158343500Y-79020000D01*
G75*
G02*
X158268500Y-79095000I-75000J0D01*
G01*
X158118500Y-79095000D01*
G75*
G02*
X158043500Y-79020000I0J75000D01*
G01*
X158043500Y-77695000D01*
G75*
G02*
X158118500Y-77620000I75000J0D01*
G01*
G37*
G36*
G01*
X157618500Y-77620000D02*
X157768500Y-77620000D01*
G75*
G02*
X157843500Y-77695000I0J-75000D01*
G01*
X157843500Y-79020000D01*
G75*
G02*
X157768500Y-79095000I-75000J0D01*
G01*
X157618500Y-79095000D01*
G75*
G02*
X157543500Y-79020000I0J75000D01*
G01*
X157543500Y-77695000D01*
G75*
G02*
X157618500Y-77620000I75000J0D01*
G01*
G37*
G36*
G01*
X157118500Y-77620000D02*
X157268500Y-77620000D01*
G75*
G02*
X157343500Y-77695000I0J-75000D01*
G01*
X157343500Y-79020000D01*
G75*
G02*
X157268500Y-79095000I-75000J0D01*
G01*
X157118500Y-79095000D01*
G75*
G02*
X157043500Y-79020000I0J75000D01*
G01*
X157043500Y-77695000D01*
G75*
G02*
X157118500Y-77620000I75000J0D01*
G01*
G37*
G36*
G01*
X156618500Y-77620000D02*
X156768500Y-77620000D01*
G75*
G02*
X156843500Y-77695000I0J-75000D01*
G01*
X156843500Y-79020000D01*
G75*
G02*
X156768500Y-79095000I-75000J0D01*
G01*
X156618500Y-79095000D01*
G75*
G02*
X156543500Y-79020000I0J75000D01*
G01*
X156543500Y-77695000D01*
G75*
G02*
X156618500Y-77620000I75000J0D01*
G01*
G37*
G36*
G01*
X156118500Y-77620000D02*
X156268500Y-77620000D01*
G75*
G02*
X156343500Y-77695000I0J-75000D01*
G01*
X156343500Y-79020000D01*
G75*
G02*
X156268500Y-79095000I-75000J0D01*
G01*
X156118500Y-79095000D01*
G75*
G02*
X156043500Y-79020000I0J75000D01*
G01*
X156043500Y-77695000D01*
G75*
G02*
X156118500Y-77620000I75000J0D01*
G01*
G37*
G36*
G01*
X155618500Y-77620000D02*
X155768500Y-77620000D01*
G75*
G02*
X155843500Y-77695000I0J-75000D01*
G01*
X155843500Y-79020000D01*
G75*
G02*
X155768500Y-79095000I-75000J0D01*
G01*
X155618500Y-79095000D01*
G75*
G02*
X155543500Y-79020000I0J75000D01*
G01*
X155543500Y-77695000D01*
G75*
G02*
X155618500Y-77620000I75000J0D01*
G01*
G37*
G36*
G01*
X153118500Y-76295000D02*
X154443500Y-76295000D01*
G75*
G02*
X154518500Y-76370000I0J-75000D01*
G01*
X154518500Y-76520000D01*
G75*
G02*
X154443500Y-76595000I-75000J0D01*
G01*
X153118500Y-76595000D01*
G75*
G02*
X153043500Y-76520000I0J75000D01*
G01*
X153043500Y-76370000D01*
G75*
G02*
X153118500Y-76295000I75000J0D01*
G01*
G37*
G36*
G01*
X153118500Y-75795000D02*
X154443500Y-75795000D01*
G75*
G02*
X154518500Y-75870000I0J-75000D01*
G01*
X154518500Y-76020000D01*
G75*
G02*
X154443500Y-76095000I-75000J0D01*
G01*
X153118500Y-76095000D01*
G75*
G02*
X153043500Y-76020000I0J75000D01*
G01*
X153043500Y-75870000D01*
G75*
G02*
X153118500Y-75795000I75000J0D01*
G01*
G37*
G36*
G01*
X153118500Y-75295000D02*
X154443500Y-75295000D01*
G75*
G02*
X154518500Y-75370000I0J-75000D01*
G01*
X154518500Y-75520000D01*
G75*
G02*
X154443500Y-75595000I-75000J0D01*
G01*
X153118500Y-75595000D01*
G75*
G02*
X153043500Y-75520000I0J75000D01*
G01*
X153043500Y-75370000D01*
G75*
G02*
X153118500Y-75295000I75000J0D01*
G01*
G37*
G36*
G01*
X153118500Y-74795000D02*
X154443500Y-74795000D01*
G75*
G02*
X154518500Y-74870000I0J-75000D01*
G01*
X154518500Y-75020000D01*
G75*
G02*
X154443500Y-75095000I-75000J0D01*
G01*
X153118500Y-75095000D01*
G75*
G02*
X153043500Y-75020000I0J75000D01*
G01*
X153043500Y-74870000D01*
G75*
G02*
X153118500Y-74795000I75000J0D01*
G01*
G37*
G36*
G01*
X153118500Y-74295000D02*
X154443500Y-74295000D01*
G75*
G02*
X154518500Y-74370000I0J-75000D01*
G01*
X154518500Y-74520000D01*
G75*
G02*
X154443500Y-74595000I-75000J0D01*
G01*
X153118500Y-74595000D01*
G75*
G02*
X153043500Y-74520000I0J75000D01*
G01*
X153043500Y-74370000D01*
G75*
G02*
X153118500Y-74295000I75000J0D01*
G01*
G37*
G36*
G01*
X153118500Y-73795000D02*
X154443500Y-73795000D01*
G75*
G02*
X154518500Y-73870000I0J-75000D01*
G01*
X154518500Y-74020000D01*
G75*
G02*
X154443500Y-74095000I-75000J0D01*
G01*
X153118500Y-74095000D01*
G75*
G02*
X153043500Y-74020000I0J75000D01*
G01*
X153043500Y-73870000D01*
G75*
G02*
X153118500Y-73795000I75000J0D01*
G01*
G37*
G36*
G01*
X153118500Y-73295000D02*
X154443500Y-73295000D01*
G75*
G02*
X154518500Y-73370000I0J-75000D01*
G01*
X154518500Y-73520000D01*
G75*
G02*
X154443500Y-73595000I-75000J0D01*
G01*
X153118500Y-73595000D01*
G75*
G02*
X153043500Y-73520000I0J75000D01*
G01*
X153043500Y-73370000D01*
G75*
G02*
X153118500Y-73295000I75000J0D01*
G01*
G37*
G36*
G01*
X153118500Y-72795000D02*
X154443500Y-72795000D01*
G75*
G02*
X154518500Y-72870000I0J-75000D01*
G01*
X154518500Y-73020000D01*
G75*
G02*
X154443500Y-73095000I-75000J0D01*
G01*
X153118500Y-73095000D01*
G75*
G02*
X153043500Y-73020000I0J75000D01*
G01*
X153043500Y-72870000D01*
G75*
G02*
X153118500Y-72795000I75000J0D01*
G01*
G37*
G36*
G01*
X153118500Y-72295000D02*
X154443500Y-72295000D01*
G75*
G02*
X154518500Y-72370000I0J-75000D01*
G01*
X154518500Y-72520000D01*
G75*
G02*
X154443500Y-72595000I-75000J0D01*
G01*
X153118500Y-72595000D01*
G75*
G02*
X153043500Y-72520000I0J75000D01*
G01*
X153043500Y-72370000D01*
G75*
G02*
X153118500Y-72295000I75000J0D01*
G01*
G37*
G36*
G01*
X153118500Y-71795000D02*
X154443500Y-71795000D01*
G75*
G02*
X154518500Y-71870000I0J-75000D01*
G01*
X154518500Y-72020000D01*
G75*
G02*
X154443500Y-72095000I-75000J0D01*
G01*
X153118500Y-72095000D01*
G75*
G02*
X153043500Y-72020000I0J75000D01*
G01*
X153043500Y-71870000D01*
G75*
G02*
X153118500Y-71795000I75000J0D01*
G01*
G37*
G36*
G01*
X153118500Y-71295000D02*
X154443500Y-71295000D01*
G75*
G02*
X154518500Y-71370000I0J-75000D01*
G01*
X154518500Y-71520000D01*
G75*
G02*
X154443500Y-71595000I-75000J0D01*
G01*
X153118500Y-71595000D01*
G75*
G02*
X153043500Y-71520000I0J75000D01*
G01*
X153043500Y-71370000D01*
G75*
G02*
X153118500Y-71295000I75000J0D01*
G01*
G37*
G36*
G01*
X153118500Y-70795000D02*
X154443500Y-70795000D01*
G75*
G02*
X154518500Y-70870000I0J-75000D01*
G01*
X154518500Y-71020000D01*
G75*
G02*
X154443500Y-71095000I-75000J0D01*
G01*
X153118500Y-71095000D01*
G75*
G02*
X153043500Y-71020000I0J75000D01*
G01*
X153043500Y-70870000D01*
G75*
G02*
X153118500Y-70795000I75000J0D01*
G01*
G37*
G36*
G01*
X153118500Y-70295000D02*
X154443500Y-70295000D01*
G75*
G02*
X154518500Y-70370000I0J-75000D01*
G01*
X154518500Y-70520000D01*
G75*
G02*
X154443500Y-70595000I-75000J0D01*
G01*
X153118500Y-70595000D01*
G75*
G02*
X153043500Y-70520000I0J75000D01*
G01*
X153043500Y-70370000D01*
G75*
G02*
X153118500Y-70295000I75000J0D01*
G01*
G37*
G36*
G01*
X153118500Y-69795000D02*
X154443500Y-69795000D01*
G75*
G02*
X154518500Y-69870000I0J-75000D01*
G01*
X154518500Y-70020000D01*
G75*
G02*
X154443500Y-70095000I-75000J0D01*
G01*
X153118500Y-70095000D01*
G75*
G02*
X153043500Y-70020000I0J75000D01*
G01*
X153043500Y-69870000D01*
G75*
G02*
X153118500Y-69795000I75000J0D01*
G01*
G37*
G36*
G01*
X153118500Y-69295000D02*
X154443500Y-69295000D01*
G75*
G02*
X154518500Y-69370000I0J-75000D01*
G01*
X154518500Y-69520000D01*
G75*
G02*
X154443500Y-69595000I-75000J0D01*
G01*
X153118500Y-69595000D01*
G75*
G02*
X153043500Y-69520000I0J75000D01*
G01*
X153043500Y-69370000D01*
G75*
G02*
X153118500Y-69295000I75000J0D01*
G01*
G37*
G36*
G01*
X153118500Y-68795000D02*
X154443500Y-68795000D01*
G75*
G02*
X154518500Y-68870000I0J-75000D01*
G01*
X154518500Y-69020000D01*
G75*
G02*
X154443500Y-69095000I-75000J0D01*
G01*
X153118500Y-69095000D01*
G75*
G02*
X153043500Y-69020000I0J75000D01*
G01*
X153043500Y-68870000D01*
G75*
G02*
X153118500Y-68795000I75000J0D01*
G01*
G37*
G36*
G01*
X153118500Y-68295000D02*
X154443500Y-68295000D01*
G75*
G02*
X154518500Y-68370000I0J-75000D01*
G01*
X154518500Y-68520000D01*
G75*
G02*
X154443500Y-68595000I-75000J0D01*
G01*
X153118500Y-68595000D01*
G75*
G02*
X153043500Y-68520000I0J75000D01*
G01*
X153043500Y-68370000D01*
G75*
G02*
X153118500Y-68295000I75000J0D01*
G01*
G37*
G36*
G01*
X153118500Y-67795000D02*
X154443500Y-67795000D01*
G75*
G02*
X154518500Y-67870000I0J-75000D01*
G01*
X154518500Y-68020000D01*
G75*
G02*
X154443500Y-68095000I-75000J0D01*
G01*
X153118500Y-68095000D01*
G75*
G02*
X153043500Y-68020000I0J75000D01*
G01*
X153043500Y-67870000D01*
G75*
G02*
X153118500Y-67795000I75000J0D01*
G01*
G37*
G36*
G01*
X153118500Y-67295000D02*
X154443500Y-67295000D01*
G75*
G02*
X154518500Y-67370000I0J-75000D01*
G01*
X154518500Y-67520000D01*
G75*
G02*
X154443500Y-67595000I-75000J0D01*
G01*
X153118500Y-67595000D01*
G75*
G02*
X153043500Y-67520000I0J75000D01*
G01*
X153043500Y-67370000D01*
G75*
G02*
X153118500Y-67295000I75000J0D01*
G01*
G37*
G36*
G01*
X153118500Y-66795000D02*
X154443500Y-66795000D01*
G75*
G02*
X154518500Y-66870000I0J-75000D01*
G01*
X154518500Y-67020000D01*
G75*
G02*
X154443500Y-67095000I-75000J0D01*
G01*
X153118500Y-67095000D01*
G75*
G02*
X153043500Y-67020000I0J75000D01*
G01*
X153043500Y-66870000D01*
G75*
G02*
X153118500Y-66795000I75000J0D01*
G01*
G37*
G36*
G01*
X153118500Y-66295000D02*
X154443500Y-66295000D01*
G75*
G02*
X154518500Y-66370000I0J-75000D01*
G01*
X154518500Y-66520000D01*
G75*
G02*
X154443500Y-66595000I-75000J0D01*
G01*
X153118500Y-66595000D01*
G75*
G02*
X153043500Y-66520000I0J75000D01*
G01*
X153043500Y-66370000D01*
G75*
G02*
X153118500Y-66295000I75000J0D01*
G01*
G37*
G36*
G01*
X153118500Y-65795000D02*
X154443500Y-65795000D01*
G75*
G02*
X154518500Y-65870000I0J-75000D01*
G01*
X154518500Y-66020000D01*
G75*
G02*
X154443500Y-66095000I-75000J0D01*
G01*
X153118500Y-66095000D01*
G75*
G02*
X153043500Y-66020000I0J75000D01*
G01*
X153043500Y-65870000D01*
G75*
G02*
X153118500Y-65795000I75000J0D01*
G01*
G37*
G36*
G01*
X153118500Y-65295000D02*
X154443500Y-65295000D01*
G75*
G02*
X154518500Y-65370000I0J-75000D01*
G01*
X154518500Y-65520000D01*
G75*
G02*
X154443500Y-65595000I-75000J0D01*
G01*
X153118500Y-65595000D01*
G75*
G02*
X153043500Y-65520000I0J75000D01*
G01*
X153043500Y-65370000D01*
G75*
G02*
X153118500Y-65295000I75000J0D01*
G01*
G37*
G36*
G01*
X153118500Y-64795000D02*
X154443500Y-64795000D01*
G75*
G02*
X154518500Y-64870000I0J-75000D01*
G01*
X154518500Y-65020000D01*
G75*
G02*
X154443500Y-65095000I-75000J0D01*
G01*
X153118500Y-65095000D01*
G75*
G02*
X153043500Y-65020000I0J75000D01*
G01*
X153043500Y-64870000D01*
G75*
G02*
X153118500Y-64795000I75000J0D01*
G01*
G37*
G36*
G01*
X153118500Y-64295000D02*
X154443500Y-64295000D01*
G75*
G02*
X154518500Y-64370000I0J-75000D01*
G01*
X154518500Y-64520000D01*
G75*
G02*
X154443500Y-64595000I-75000J0D01*
G01*
X153118500Y-64595000D01*
G75*
G02*
X153043500Y-64520000I0J75000D01*
G01*
X153043500Y-64370000D01*
G75*
G02*
X153118500Y-64295000I75000J0D01*
G01*
G37*
G36*
G01*
X153118500Y-63795000D02*
X154443500Y-63795000D01*
G75*
G02*
X154518500Y-63870000I0J-75000D01*
G01*
X154518500Y-64020000D01*
G75*
G02*
X154443500Y-64095000I-75000J0D01*
G01*
X153118500Y-64095000D01*
G75*
G02*
X153043500Y-64020000I0J75000D01*
G01*
X153043500Y-63870000D01*
G75*
G02*
X153118500Y-63795000I75000J0D01*
G01*
G37*
G36*
G01*
X153118500Y-63295000D02*
X154443500Y-63295000D01*
G75*
G02*
X154518500Y-63370000I0J-75000D01*
G01*
X154518500Y-63520000D01*
G75*
G02*
X154443500Y-63595000I-75000J0D01*
G01*
X153118500Y-63595000D01*
G75*
G02*
X153043500Y-63520000I0J75000D01*
G01*
X153043500Y-63370000D01*
G75*
G02*
X153118500Y-63295000I75000J0D01*
G01*
G37*
G36*
G01*
X153118500Y-62795000D02*
X154443500Y-62795000D01*
G75*
G02*
X154518500Y-62870000I0J-75000D01*
G01*
X154518500Y-63020000D01*
G75*
G02*
X154443500Y-63095000I-75000J0D01*
G01*
X153118500Y-63095000D01*
G75*
G02*
X153043500Y-63020000I0J75000D01*
G01*
X153043500Y-62870000D01*
G75*
G02*
X153118500Y-62795000I75000J0D01*
G01*
G37*
G36*
G01*
X153118500Y-62295000D02*
X154443500Y-62295000D01*
G75*
G02*
X154518500Y-62370000I0J-75000D01*
G01*
X154518500Y-62520000D01*
G75*
G02*
X154443500Y-62595000I-75000J0D01*
G01*
X153118500Y-62595000D01*
G75*
G02*
X153043500Y-62520000I0J75000D01*
G01*
X153043500Y-62370000D01*
G75*
G02*
X153118500Y-62295000I75000J0D01*
G01*
G37*
G36*
G01*
X153118500Y-61795000D02*
X154443500Y-61795000D01*
G75*
G02*
X154518500Y-61870000I0J-75000D01*
G01*
X154518500Y-62020000D01*
G75*
G02*
X154443500Y-62095000I-75000J0D01*
G01*
X153118500Y-62095000D01*
G75*
G02*
X153043500Y-62020000I0J75000D01*
G01*
X153043500Y-61870000D01*
G75*
G02*
X153118500Y-61795000I75000J0D01*
G01*
G37*
G36*
G01*
X153118500Y-61295000D02*
X154443500Y-61295000D01*
G75*
G02*
X154518500Y-61370000I0J-75000D01*
G01*
X154518500Y-61520000D01*
G75*
G02*
X154443500Y-61595000I-75000J0D01*
G01*
X153118500Y-61595000D01*
G75*
G02*
X153043500Y-61520000I0J75000D01*
G01*
X153043500Y-61370000D01*
G75*
G02*
X153118500Y-61295000I75000J0D01*
G01*
G37*
G36*
G01*
X153118500Y-60795000D02*
X154443500Y-60795000D01*
G75*
G02*
X154518500Y-60870000I0J-75000D01*
G01*
X154518500Y-61020000D01*
G75*
G02*
X154443500Y-61095000I-75000J0D01*
G01*
X153118500Y-61095000D01*
G75*
G02*
X153043500Y-61020000I0J75000D01*
G01*
X153043500Y-60870000D01*
G75*
G02*
X153118500Y-60795000I75000J0D01*
G01*
G37*
G36*
G01*
X153118500Y-60295000D02*
X154443500Y-60295000D01*
G75*
G02*
X154518500Y-60370000I0J-75000D01*
G01*
X154518500Y-60520000D01*
G75*
G02*
X154443500Y-60595000I-75000J0D01*
G01*
X153118500Y-60595000D01*
G75*
G02*
X153043500Y-60520000I0J75000D01*
G01*
X153043500Y-60370000D01*
G75*
G02*
X153118500Y-60295000I75000J0D01*
G01*
G37*
G36*
G01*
X153118500Y-59795000D02*
X154443500Y-59795000D01*
G75*
G02*
X154518500Y-59870000I0J-75000D01*
G01*
X154518500Y-60020000D01*
G75*
G02*
X154443500Y-60095000I-75000J0D01*
G01*
X153118500Y-60095000D01*
G75*
G02*
X153043500Y-60020000I0J75000D01*
G01*
X153043500Y-59870000D01*
G75*
G02*
X153118500Y-59795000I75000J0D01*
G01*
G37*
G36*
G01*
X153118500Y-59295000D02*
X154443500Y-59295000D01*
G75*
G02*
X154518500Y-59370000I0J-75000D01*
G01*
X154518500Y-59520000D01*
G75*
G02*
X154443500Y-59595000I-75000J0D01*
G01*
X153118500Y-59595000D01*
G75*
G02*
X153043500Y-59520000I0J75000D01*
G01*
X153043500Y-59370000D01*
G75*
G02*
X153118500Y-59295000I75000J0D01*
G01*
G37*
G36*
G01*
X153118500Y-58795000D02*
X154443500Y-58795000D01*
G75*
G02*
X154518500Y-58870000I0J-75000D01*
G01*
X154518500Y-59020000D01*
G75*
G02*
X154443500Y-59095000I-75000J0D01*
G01*
X153118500Y-59095000D01*
G75*
G02*
X153043500Y-59020000I0J75000D01*
G01*
X153043500Y-58870000D01*
G75*
G02*
X153118500Y-58795000I75000J0D01*
G01*
G37*
G36*
G01*
X155618500Y-56295000D02*
X155768500Y-56295000D01*
G75*
G02*
X155843500Y-56370000I0J-75000D01*
G01*
X155843500Y-57695000D01*
G75*
G02*
X155768500Y-57770000I-75000J0D01*
G01*
X155618500Y-57770000D01*
G75*
G02*
X155543500Y-57695000I0J75000D01*
G01*
X155543500Y-56370000D01*
G75*
G02*
X155618500Y-56295000I75000J0D01*
G01*
G37*
G36*
G01*
X156118500Y-56295000D02*
X156268500Y-56295000D01*
G75*
G02*
X156343500Y-56370000I0J-75000D01*
G01*
X156343500Y-57695000D01*
G75*
G02*
X156268500Y-57770000I-75000J0D01*
G01*
X156118500Y-57770000D01*
G75*
G02*
X156043500Y-57695000I0J75000D01*
G01*
X156043500Y-56370000D01*
G75*
G02*
X156118500Y-56295000I75000J0D01*
G01*
G37*
G36*
G01*
X156618500Y-56295000D02*
X156768500Y-56295000D01*
G75*
G02*
X156843500Y-56370000I0J-75000D01*
G01*
X156843500Y-57695000D01*
G75*
G02*
X156768500Y-57770000I-75000J0D01*
G01*
X156618500Y-57770000D01*
G75*
G02*
X156543500Y-57695000I0J75000D01*
G01*
X156543500Y-56370000D01*
G75*
G02*
X156618500Y-56295000I75000J0D01*
G01*
G37*
G36*
G01*
X157118500Y-56295000D02*
X157268500Y-56295000D01*
G75*
G02*
X157343500Y-56370000I0J-75000D01*
G01*
X157343500Y-57695000D01*
G75*
G02*
X157268500Y-57770000I-75000J0D01*
G01*
X157118500Y-57770000D01*
G75*
G02*
X157043500Y-57695000I0J75000D01*
G01*
X157043500Y-56370000D01*
G75*
G02*
X157118500Y-56295000I75000J0D01*
G01*
G37*
G36*
G01*
X157618500Y-56295000D02*
X157768500Y-56295000D01*
G75*
G02*
X157843500Y-56370000I0J-75000D01*
G01*
X157843500Y-57695000D01*
G75*
G02*
X157768500Y-57770000I-75000J0D01*
G01*
X157618500Y-57770000D01*
G75*
G02*
X157543500Y-57695000I0J75000D01*
G01*
X157543500Y-56370000D01*
G75*
G02*
X157618500Y-56295000I75000J0D01*
G01*
G37*
G36*
G01*
X158118500Y-56295000D02*
X158268500Y-56295000D01*
G75*
G02*
X158343500Y-56370000I0J-75000D01*
G01*
X158343500Y-57695000D01*
G75*
G02*
X158268500Y-57770000I-75000J0D01*
G01*
X158118500Y-57770000D01*
G75*
G02*
X158043500Y-57695000I0J75000D01*
G01*
X158043500Y-56370000D01*
G75*
G02*
X158118500Y-56295000I75000J0D01*
G01*
G37*
G36*
G01*
X158618500Y-56295000D02*
X158768500Y-56295000D01*
G75*
G02*
X158843500Y-56370000I0J-75000D01*
G01*
X158843500Y-57695000D01*
G75*
G02*
X158768500Y-57770000I-75000J0D01*
G01*
X158618500Y-57770000D01*
G75*
G02*
X158543500Y-57695000I0J75000D01*
G01*
X158543500Y-56370000D01*
G75*
G02*
X158618500Y-56295000I75000J0D01*
G01*
G37*
G36*
G01*
X159118500Y-56295000D02*
X159268500Y-56295000D01*
G75*
G02*
X159343500Y-56370000I0J-75000D01*
G01*
X159343500Y-57695000D01*
G75*
G02*
X159268500Y-57770000I-75000J0D01*
G01*
X159118500Y-57770000D01*
G75*
G02*
X159043500Y-57695000I0J75000D01*
G01*
X159043500Y-56370000D01*
G75*
G02*
X159118500Y-56295000I75000J0D01*
G01*
G37*
G36*
G01*
X159618500Y-56295000D02*
X159768500Y-56295000D01*
G75*
G02*
X159843500Y-56370000I0J-75000D01*
G01*
X159843500Y-57695000D01*
G75*
G02*
X159768500Y-57770000I-75000J0D01*
G01*
X159618500Y-57770000D01*
G75*
G02*
X159543500Y-57695000I0J75000D01*
G01*
X159543500Y-56370000D01*
G75*
G02*
X159618500Y-56295000I75000J0D01*
G01*
G37*
G36*
G01*
X160118500Y-56295000D02*
X160268500Y-56295000D01*
G75*
G02*
X160343500Y-56370000I0J-75000D01*
G01*
X160343500Y-57695000D01*
G75*
G02*
X160268500Y-57770000I-75000J0D01*
G01*
X160118500Y-57770000D01*
G75*
G02*
X160043500Y-57695000I0J75000D01*
G01*
X160043500Y-56370000D01*
G75*
G02*
X160118500Y-56295000I75000J0D01*
G01*
G37*
G36*
G01*
X160618500Y-56295000D02*
X160768500Y-56295000D01*
G75*
G02*
X160843500Y-56370000I0J-75000D01*
G01*
X160843500Y-57695000D01*
G75*
G02*
X160768500Y-57770000I-75000J0D01*
G01*
X160618500Y-57770000D01*
G75*
G02*
X160543500Y-57695000I0J75000D01*
G01*
X160543500Y-56370000D01*
G75*
G02*
X160618500Y-56295000I75000J0D01*
G01*
G37*
G36*
G01*
X161118500Y-56295000D02*
X161268500Y-56295000D01*
G75*
G02*
X161343500Y-56370000I0J-75000D01*
G01*
X161343500Y-57695000D01*
G75*
G02*
X161268500Y-57770000I-75000J0D01*
G01*
X161118500Y-57770000D01*
G75*
G02*
X161043500Y-57695000I0J75000D01*
G01*
X161043500Y-56370000D01*
G75*
G02*
X161118500Y-56295000I75000J0D01*
G01*
G37*
G36*
G01*
X161618500Y-56295000D02*
X161768500Y-56295000D01*
G75*
G02*
X161843500Y-56370000I0J-75000D01*
G01*
X161843500Y-57695000D01*
G75*
G02*
X161768500Y-57770000I-75000J0D01*
G01*
X161618500Y-57770000D01*
G75*
G02*
X161543500Y-57695000I0J75000D01*
G01*
X161543500Y-56370000D01*
G75*
G02*
X161618500Y-56295000I75000J0D01*
G01*
G37*
G36*
G01*
X162118500Y-56295000D02*
X162268500Y-56295000D01*
G75*
G02*
X162343500Y-56370000I0J-75000D01*
G01*
X162343500Y-57695000D01*
G75*
G02*
X162268500Y-57770000I-75000J0D01*
G01*
X162118500Y-57770000D01*
G75*
G02*
X162043500Y-57695000I0J75000D01*
G01*
X162043500Y-56370000D01*
G75*
G02*
X162118500Y-56295000I75000J0D01*
G01*
G37*
G36*
G01*
X162618500Y-56295000D02*
X162768500Y-56295000D01*
G75*
G02*
X162843500Y-56370000I0J-75000D01*
G01*
X162843500Y-57695000D01*
G75*
G02*
X162768500Y-57770000I-75000J0D01*
G01*
X162618500Y-57770000D01*
G75*
G02*
X162543500Y-57695000I0J75000D01*
G01*
X162543500Y-56370000D01*
G75*
G02*
X162618500Y-56295000I75000J0D01*
G01*
G37*
G36*
G01*
X163118500Y-56295000D02*
X163268500Y-56295000D01*
G75*
G02*
X163343500Y-56370000I0J-75000D01*
G01*
X163343500Y-57695000D01*
G75*
G02*
X163268500Y-57770000I-75000J0D01*
G01*
X163118500Y-57770000D01*
G75*
G02*
X163043500Y-57695000I0J75000D01*
G01*
X163043500Y-56370000D01*
G75*
G02*
X163118500Y-56295000I75000J0D01*
G01*
G37*
G36*
G01*
X163618500Y-56295000D02*
X163768500Y-56295000D01*
G75*
G02*
X163843500Y-56370000I0J-75000D01*
G01*
X163843500Y-57695000D01*
G75*
G02*
X163768500Y-57770000I-75000J0D01*
G01*
X163618500Y-57770000D01*
G75*
G02*
X163543500Y-57695000I0J75000D01*
G01*
X163543500Y-56370000D01*
G75*
G02*
X163618500Y-56295000I75000J0D01*
G01*
G37*
G36*
G01*
X164118500Y-56295000D02*
X164268500Y-56295000D01*
G75*
G02*
X164343500Y-56370000I0J-75000D01*
G01*
X164343500Y-57695000D01*
G75*
G02*
X164268500Y-57770000I-75000J0D01*
G01*
X164118500Y-57770000D01*
G75*
G02*
X164043500Y-57695000I0J75000D01*
G01*
X164043500Y-56370000D01*
G75*
G02*
X164118500Y-56295000I75000J0D01*
G01*
G37*
G36*
G01*
X164618500Y-56295000D02*
X164768500Y-56295000D01*
G75*
G02*
X164843500Y-56370000I0J-75000D01*
G01*
X164843500Y-57695000D01*
G75*
G02*
X164768500Y-57770000I-75000J0D01*
G01*
X164618500Y-57770000D01*
G75*
G02*
X164543500Y-57695000I0J75000D01*
G01*
X164543500Y-56370000D01*
G75*
G02*
X164618500Y-56295000I75000J0D01*
G01*
G37*
G36*
G01*
X165118500Y-56295000D02*
X165268500Y-56295000D01*
G75*
G02*
X165343500Y-56370000I0J-75000D01*
G01*
X165343500Y-57695000D01*
G75*
G02*
X165268500Y-57770000I-75000J0D01*
G01*
X165118500Y-57770000D01*
G75*
G02*
X165043500Y-57695000I0J75000D01*
G01*
X165043500Y-56370000D01*
G75*
G02*
X165118500Y-56295000I75000J0D01*
G01*
G37*
G36*
G01*
X165618500Y-56295000D02*
X165768500Y-56295000D01*
G75*
G02*
X165843500Y-56370000I0J-75000D01*
G01*
X165843500Y-57695000D01*
G75*
G02*
X165768500Y-57770000I-75000J0D01*
G01*
X165618500Y-57770000D01*
G75*
G02*
X165543500Y-57695000I0J75000D01*
G01*
X165543500Y-56370000D01*
G75*
G02*
X165618500Y-56295000I75000J0D01*
G01*
G37*
G36*
G01*
X166118500Y-56295000D02*
X166268500Y-56295000D01*
G75*
G02*
X166343500Y-56370000I0J-75000D01*
G01*
X166343500Y-57695000D01*
G75*
G02*
X166268500Y-57770000I-75000J0D01*
G01*
X166118500Y-57770000D01*
G75*
G02*
X166043500Y-57695000I0J75000D01*
G01*
X166043500Y-56370000D01*
G75*
G02*
X166118500Y-56295000I75000J0D01*
G01*
G37*
G36*
G01*
X166618500Y-56295000D02*
X166768500Y-56295000D01*
G75*
G02*
X166843500Y-56370000I0J-75000D01*
G01*
X166843500Y-57695000D01*
G75*
G02*
X166768500Y-57770000I-75000J0D01*
G01*
X166618500Y-57770000D01*
G75*
G02*
X166543500Y-57695000I0J75000D01*
G01*
X166543500Y-56370000D01*
G75*
G02*
X166618500Y-56295000I75000J0D01*
G01*
G37*
G36*
G01*
X167118500Y-56295000D02*
X167268500Y-56295000D01*
G75*
G02*
X167343500Y-56370000I0J-75000D01*
G01*
X167343500Y-57695000D01*
G75*
G02*
X167268500Y-57770000I-75000J0D01*
G01*
X167118500Y-57770000D01*
G75*
G02*
X167043500Y-57695000I0J75000D01*
G01*
X167043500Y-56370000D01*
G75*
G02*
X167118500Y-56295000I75000J0D01*
G01*
G37*
G36*
G01*
X167618500Y-56295000D02*
X167768500Y-56295000D01*
G75*
G02*
X167843500Y-56370000I0J-75000D01*
G01*
X167843500Y-57695000D01*
G75*
G02*
X167768500Y-57770000I-75000J0D01*
G01*
X167618500Y-57770000D01*
G75*
G02*
X167543500Y-57695000I0J75000D01*
G01*
X167543500Y-56370000D01*
G75*
G02*
X167618500Y-56295000I75000J0D01*
G01*
G37*
G36*
G01*
X168118500Y-56295000D02*
X168268500Y-56295000D01*
G75*
G02*
X168343500Y-56370000I0J-75000D01*
G01*
X168343500Y-57695000D01*
G75*
G02*
X168268500Y-57770000I-75000J0D01*
G01*
X168118500Y-57770000D01*
G75*
G02*
X168043500Y-57695000I0J75000D01*
G01*
X168043500Y-56370000D01*
G75*
G02*
X168118500Y-56295000I75000J0D01*
G01*
G37*
G36*
G01*
X168618500Y-56295000D02*
X168768500Y-56295000D01*
G75*
G02*
X168843500Y-56370000I0J-75000D01*
G01*
X168843500Y-57695000D01*
G75*
G02*
X168768500Y-57770000I-75000J0D01*
G01*
X168618500Y-57770000D01*
G75*
G02*
X168543500Y-57695000I0J75000D01*
G01*
X168543500Y-56370000D01*
G75*
G02*
X168618500Y-56295000I75000J0D01*
G01*
G37*
G36*
G01*
X169118500Y-56295000D02*
X169268500Y-56295000D01*
G75*
G02*
X169343500Y-56370000I0J-75000D01*
G01*
X169343500Y-57695000D01*
G75*
G02*
X169268500Y-57770000I-75000J0D01*
G01*
X169118500Y-57770000D01*
G75*
G02*
X169043500Y-57695000I0J75000D01*
G01*
X169043500Y-56370000D01*
G75*
G02*
X169118500Y-56295000I75000J0D01*
G01*
G37*
G36*
G01*
X169618500Y-56295000D02*
X169768500Y-56295000D01*
G75*
G02*
X169843500Y-56370000I0J-75000D01*
G01*
X169843500Y-57695000D01*
G75*
G02*
X169768500Y-57770000I-75000J0D01*
G01*
X169618500Y-57770000D01*
G75*
G02*
X169543500Y-57695000I0J75000D01*
G01*
X169543500Y-56370000D01*
G75*
G02*
X169618500Y-56295000I75000J0D01*
G01*
G37*
G36*
G01*
X170118500Y-56295000D02*
X170268500Y-56295000D01*
G75*
G02*
X170343500Y-56370000I0J-75000D01*
G01*
X170343500Y-57695000D01*
G75*
G02*
X170268500Y-57770000I-75000J0D01*
G01*
X170118500Y-57770000D01*
G75*
G02*
X170043500Y-57695000I0J75000D01*
G01*
X170043500Y-56370000D01*
G75*
G02*
X170118500Y-56295000I75000J0D01*
G01*
G37*
G36*
G01*
X170618500Y-56295000D02*
X170768500Y-56295000D01*
G75*
G02*
X170843500Y-56370000I0J-75000D01*
G01*
X170843500Y-57695000D01*
G75*
G02*
X170768500Y-57770000I-75000J0D01*
G01*
X170618500Y-57770000D01*
G75*
G02*
X170543500Y-57695000I0J75000D01*
G01*
X170543500Y-56370000D01*
G75*
G02*
X170618500Y-56295000I75000J0D01*
G01*
G37*
G36*
G01*
X171118500Y-56295000D02*
X171268500Y-56295000D01*
G75*
G02*
X171343500Y-56370000I0J-75000D01*
G01*
X171343500Y-57695000D01*
G75*
G02*
X171268500Y-57770000I-75000J0D01*
G01*
X171118500Y-57770000D01*
G75*
G02*
X171043500Y-57695000I0J75000D01*
G01*
X171043500Y-56370000D01*
G75*
G02*
X171118500Y-56295000I75000J0D01*
G01*
G37*
G36*
G01*
X171618500Y-56295000D02*
X171768500Y-56295000D01*
G75*
G02*
X171843500Y-56370000I0J-75000D01*
G01*
X171843500Y-57695000D01*
G75*
G02*
X171768500Y-57770000I-75000J0D01*
G01*
X171618500Y-57770000D01*
G75*
G02*
X171543500Y-57695000I0J75000D01*
G01*
X171543500Y-56370000D01*
G75*
G02*
X171618500Y-56295000I75000J0D01*
G01*
G37*
G36*
G01*
X172118500Y-56295000D02*
X172268500Y-56295000D01*
G75*
G02*
X172343500Y-56370000I0J-75000D01*
G01*
X172343500Y-57695000D01*
G75*
G02*
X172268500Y-57770000I-75000J0D01*
G01*
X172118500Y-57770000D01*
G75*
G02*
X172043500Y-57695000I0J75000D01*
G01*
X172043500Y-56370000D01*
G75*
G02*
X172118500Y-56295000I75000J0D01*
G01*
G37*
G36*
G01*
X172618500Y-56295000D02*
X172768500Y-56295000D01*
G75*
G02*
X172843500Y-56370000I0J-75000D01*
G01*
X172843500Y-57695000D01*
G75*
G02*
X172768500Y-57770000I-75000J0D01*
G01*
X172618500Y-57770000D01*
G75*
G02*
X172543500Y-57695000I0J75000D01*
G01*
X172543500Y-56370000D01*
G75*
G02*
X172618500Y-56295000I75000J0D01*
G01*
G37*
G36*
G01*
X173118500Y-56295000D02*
X173268500Y-56295000D01*
G75*
G02*
X173343500Y-56370000I0J-75000D01*
G01*
X173343500Y-57695000D01*
G75*
G02*
X173268500Y-57770000I-75000J0D01*
G01*
X173118500Y-57770000D01*
G75*
G02*
X173043500Y-57695000I0J75000D01*
G01*
X173043500Y-56370000D01*
G75*
G02*
X173118500Y-56295000I75000J0D01*
G01*
G37*
G36*
G01*
X137520500Y-83852000D02*
X137395500Y-83852000D01*
G75*
G02*
X137333000Y-83789500I0J62500D01*
G01*
X137333000Y-82964500D01*
G75*
G02*
X137395500Y-82902000I62500J0D01*
G01*
X137520500Y-82902000D01*
G75*
G02*
X137583000Y-82964500I0J-62500D01*
G01*
X137583000Y-83789500D01*
G75*
G02*
X137520500Y-83852000I-62500J0D01*
G01*
G37*
G36*
G01*
X138020500Y-83852000D02*
X137895500Y-83852000D01*
G75*
G02*
X137833000Y-83789500I0J62500D01*
G01*
X137833000Y-82964500D01*
G75*
G02*
X137895500Y-82902000I62500J0D01*
G01*
X138020500Y-82902000D01*
G75*
G02*
X138083000Y-82964500I0J-62500D01*
G01*
X138083000Y-83789500D01*
G75*
G02*
X138020500Y-83852000I-62500J0D01*
G01*
G37*
G36*
G01*
X138520500Y-83852000D02*
X138395500Y-83852000D01*
G75*
G02*
X138333000Y-83789500I0J62500D01*
G01*
X138333000Y-82964500D01*
G75*
G02*
X138395500Y-82902000I62500J0D01*
G01*
X138520500Y-82902000D01*
G75*
G02*
X138583000Y-82964500I0J-62500D01*
G01*
X138583000Y-83789500D01*
G75*
G02*
X138520500Y-83852000I-62500J0D01*
G01*
G37*
G36*
G01*
X139020500Y-83852000D02*
X138895500Y-83852000D01*
G75*
G02*
X138833000Y-83789500I0J62500D01*
G01*
X138833000Y-82964500D01*
G75*
G02*
X138895500Y-82902000I62500J0D01*
G01*
X139020500Y-82902000D01*
G75*
G02*
X139083000Y-82964500I0J-62500D01*
G01*
X139083000Y-83789500D01*
G75*
G02*
X139020500Y-83852000I-62500J0D01*
G01*
G37*
G36*
G01*
X139520500Y-83852000D02*
X139395500Y-83852000D01*
G75*
G02*
X139333000Y-83789500I0J62500D01*
G01*
X139333000Y-82964500D01*
G75*
G02*
X139395500Y-82902000I62500J0D01*
G01*
X139520500Y-82902000D01*
G75*
G02*
X139583000Y-82964500I0J-62500D01*
G01*
X139583000Y-83789500D01*
G75*
G02*
X139520500Y-83852000I-62500J0D01*
G01*
G37*
G36*
G01*
X140020500Y-83852000D02*
X139895500Y-83852000D01*
G75*
G02*
X139833000Y-83789500I0J62500D01*
G01*
X139833000Y-82964500D01*
G75*
G02*
X139895500Y-82902000I62500J0D01*
G01*
X140020500Y-82902000D01*
G75*
G02*
X140083000Y-82964500I0J-62500D01*
G01*
X140083000Y-83789500D01*
G75*
G02*
X140020500Y-83852000I-62500J0D01*
G01*
G37*
G36*
G01*
X140520500Y-83852000D02*
X140395500Y-83852000D01*
G75*
G02*
X140333000Y-83789500I0J62500D01*
G01*
X140333000Y-82964500D01*
G75*
G02*
X140395500Y-82902000I62500J0D01*
G01*
X140520500Y-82902000D01*
G75*
G02*
X140583000Y-82964500I0J-62500D01*
G01*
X140583000Y-83789500D01*
G75*
G02*
X140520500Y-83852000I-62500J0D01*
G01*
G37*
G36*
G01*
X141020500Y-83852000D02*
X140895500Y-83852000D01*
G75*
G02*
X140833000Y-83789500I0J62500D01*
G01*
X140833000Y-82964500D01*
G75*
G02*
X140895500Y-82902000I62500J0D01*
G01*
X141020500Y-82902000D01*
G75*
G02*
X141083000Y-82964500I0J-62500D01*
G01*
X141083000Y-83789500D01*
G75*
G02*
X141020500Y-83852000I-62500J0D01*
G01*
G37*
G36*
G01*
X141520500Y-83852000D02*
X141395500Y-83852000D01*
G75*
G02*
X141333000Y-83789500I0J62500D01*
G01*
X141333000Y-82964500D01*
G75*
G02*
X141395500Y-82902000I62500J0D01*
G01*
X141520500Y-82902000D01*
G75*
G02*
X141583000Y-82964500I0J-62500D01*
G01*
X141583000Y-83789500D01*
G75*
G02*
X141520500Y-83852000I-62500J0D01*
G01*
G37*
G36*
G01*
X142020500Y-83852000D02*
X141895500Y-83852000D01*
G75*
G02*
X141833000Y-83789500I0J62500D01*
G01*
X141833000Y-82964500D01*
G75*
G02*
X141895500Y-82902000I62500J0D01*
G01*
X142020500Y-82902000D01*
G75*
G02*
X142083000Y-82964500I0J-62500D01*
G01*
X142083000Y-83789500D01*
G75*
G02*
X142020500Y-83852000I-62500J0D01*
G01*
G37*
G36*
G01*
X142520500Y-83852000D02*
X142395500Y-83852000D01*
G75*
G02*
X142333000Y-83789500I0J62500D01*
G01*
X142333000Y-82964500D01*
G75*
G02*
X142395500Y-82902000I62500J0D01*
G01*
X142520500Y-82902000D01*
G75*
G02*
X142583000Y-82964500I0J-62500D01*
G01*
X142583000Y-83789500D01*
G75*
G02*
X142520500Y-83852000I-62500J0D01*
G01*
G37*
G36*
G01*
X143020500Y-83852000D02*
X142895500Y-83852000D01*
G75*
G02*
X142833000Y-83789500I0J62500D01*
G01*
X142833000Y-82964500D01*
G75*
G02*
X142895500Y-82902000I62500J0D01*
G01*
X143020500Y-82902000D01*
G75*
G02*
X143083000Y-82964500I0J-62500D01*
G01*
X143083000Y-83789500D01*
G75*
G02*
X143020500Y-83852000I-62500J0D01*
G01*
G37*
G36*
G01*
X144495500Y-82377000D02*
X143670500Y-82377000D01*
G75*
G02*
X143608000Y-82314500I0J62500D01*
G01*
X143608000Y-82189500D01*
G75*
G02*
X143670500Y-82127000I62500J0D01*
G01*
X144495500Y-82127000D01*
G75*
G02*
X144558000Y-82189500I0J-62500D01*
G01*
X144558000Y-82314500D01*
G75*
G02*
X144495500Y-82377000I-62500J0D01*
G01*
G37*
G36*
G01*
X144495500Y-81877000D02*
X143670500Y-81877000D01*
G75*
G02*
X143608000Y-81814500I0J62500D01*
G01*
X143608000Y-81689500D01*
G75*
G02*
X143670500Y-81627000I62500J0D01*
G01*
X144495500Y-81627000D01*
G75*
G02*
X144558000Y-81689500I0J-62500D01*
G01*
X144558000Y-81814500D01*
G75*
G02*
X144495500Y-81877000I-62500J0D01*
G01*
G37*
G36*
G01*
X144495500Y-81377000D02*
X143670500Y-81377000D01*
G75*
G02*
X143608000Y-81314500I0J62500D01*
G01*
X143608000Y-81189500D01*
G75*
G02*
X143670500Y-81127000I62500J0D01*
G01*
X144495500Y-81127000D01*
G75*
G02*
X144558000Y-81189500I0J-62500D01*
G01*
X144558000Y-81314500D01*
G75*
G02*
X144495500Y-81377000I-62500J0D01*
G01*
G37*
G36*
G01*
X144495500Y-80877000D02*
X143670500Y-80877000D01*
G75*
G02*
X143608000Y-80814500I0J62500D01*
G01*
X143608000Y-80689500D01*
G75*
G02*
X143670500Y-80627000I62500J0D01*
G01*
X144495500Y-80627000D01*
G75*
G02*
X144558000Y-80689500I0J-62500D01*
G01*
X144558000Y-80814500D01*
G75*
G02*
X144495500Y-80877000I-62500J0D01*
G01*
G37*
G36*
G01*
X144495500Y-80377000D02*
X143670500Y-80377000D01*
G75*
G02*
X143608000Y-80314500I0J62500D01*
G01*
X143608000Y-80189500D01*
G75*
G02*
X143670500Y-80127000I62500J0D01*
G01*
X144495500Y-80127000D01*
G75*
G02*
X144558000Y-80189500I0J-62500D01*
G01*
X144558000Y-80314500D01*
G75*
G02*
X144495500Y-80377000I-62500J0D01*
G01*
G37*
G36*
G01*
X144495500Y-79877000D02*
X143670500Y-79877000D01*
G75*
G02*
X143608000Y-79814500I0J62500D01*
G01*
X143608000Y-79689500D01*
G75*
G02*
X143670500Y-79627000I62500J0D01*
G01*
X144495500Y-79627000D01*
G75*
G02*
X144558000Y-79689500I0J-62500D01*
G01*
X144558000Y-79814500D01*
G75*
G02*
X144495500Y-79877000I-62500J0D01*
G01*
G37*
G36*
G01*
X144495500Y-79377000D02*
X143670500Y-79377000D01*
G75*
G02*
X143608000Y-79314500I0J62500D01*
G01*
X143608000Y-79189500D01*
G75*
G02*
X143670500Y-79127000I62500J0D01*
G01*
X144495500Y-79127000D01*
G75*
G02*
X144558000Y-79189500I0J-62500D01*
G01*
X144558000Y-79314500D01*
G75*
G02*
X144495500Y-79377000I-62500J0D01*
G01*
G37*
G36*
G01*
X144495500Y-78877000D02*
X143670500Y-78877000D01*
G75*
G02*
X143608000Y-78814500I0J62500D01*
G01*
X143608000Y-78689500D01*
G75*
G02*
X143670500Y-78627000I62500J0D01*
G01*
X144495500Y-78627000D01*
G75*
G02*
X144558000Y-78689500I0J-62500D01*
G01*
X144558000Y-78814500D01*
G75*
G02*
X144495500Y-78877000I-62500J0D01*
G01*
G37*
G36*
G01*
X144495500Y-78377000D02*
X143670500Y-78377000D01*
G75*
G02*
X143608000Y-78314500I0J62500D01*
G01*
X143608000Y-78189500D01*
G75*
G02*
X143670500Y-78127000I62500J0D01*
G01*
X144495500Y-78127000D01*
G75*
G02*
X144558000Y-78189500I0J-62500D01*
G01*
X144558000Y-78314500D01*
G75*
G02*
X144495500Y-78377000I-62500J0D01*
G01*
G37*
G36*
G01*
X144495500Y-77877000D02*
X143670500Y-77877000D01*
G75*
G02*
X143608000Y-77814500I0J62500D01*
G01*
X143608000Y-77689500D01*
G75*
G02*
X143670500Y-77627000I62500J0D01*
G01*
X144495500Y-77627000D01*
G75*
G02*
X144558000Y-77689500I0J-62500D01*
G01*
X144558000Y-77814500D01*
G75*
G02*
X144495500Y-77877000I-62500J0D01*
G01*
G37*
G36*
G01*
X144495500Y-77377000D02*
X143670500Y-77377000D01*
G75*
G02*
X143608000Y-77314500I0J62500D01*
G01*
X143608000Y-77189500D01*
G75*
G02*
X143670500Y-77127000I62500J0D01*
G01*
X144495500Y-77127000D01*
G75*
G02*
X144558000Y-77189500I0J-62500D01*
G01*
X144558000Y-77314500D01*
G75*
G02*
X144495500Y-77377000I-62500J0D01*
G01*
G37*
G36*
G01*
X144495500Y-76877000D02*
X143670500Y-76877000D01*
G75*
G02*
X143608000Y-76814500I0J62500D01*
G01*
X143608000Y-76689500D01*
G75*
G02*
X143670500Y-76627000I62500J0D01*
G01*
X144495500Y-76627000D01*
G75*
G02*
X144558000Y-76689500I0J-62500D01*
G01*
X144558000Y-76814500D01*
G75*
G02*
X144495500Y-76877000I-62500J0D01*
G01*
G37*
G36*
G01*
X143020500Y-76102000D02*
X142895500Y-76102000D01*
G75*
G02*
X142833000Y-76039500I0J62500D01*
G01*
X142833000Y-75214500D01*
G75*
G02*
X142895500Y-75152000I62500J0D01*
G01*
X143020500Y-75152000D01*
G75*
G02*
X143083000Y-75214500I0J-62500D01*
G01*
X143083000Y-76039500D01*
G75*
G02*
X143020500Y-76102000I-62500J0D01*
G01*
G37*
G36*
G01*
X142520500Y-76102000D02*
X142395500Y-76102000D01*
G75*
G02*
X142333000Y-76039500I0J62500D01*
G01*
X142333000Y-75214500D01*
G75*
G02*
X142395500Y-75152000I62500J0D01*
G01*
X142520500Y-75152000D01*
G75*
G02*
X142583000Y-75214500I0J-62500D01*
G01*
X142583000Y-76039500D01*
G75*
G02*
X142520500Y-76102000I-62500J0D01*
G01*
G37*
G36*
G01*
X142020500Y-76102000D02*
X141895500Y-76102000D01*
G75*
G02*
X141833000Y-76039500I0J62500D01*
G01*
X141833000Y-75214500D01*
G75*
G02*
X141895500Y-75152000I62500J0D01*
G01*
X142020500Y-75152000D01*
G75*
G02*
X142083000Y-75214500I0J-62500D01*
G01*
X142083000Y-76039500D01*
G75*
G02*
X142020500Y-76102000I-62500J0D01*
G01*
G37*
G36*
G01*
X141520500Y-76102000D02*
X141395500Y-76102000D01*
G75*
G02*
X141333000Y-76039500I0J62500D01*
G01*
X141333000Y-75214500D01*
G75*
G02*
X141395500Y-75152000I62500J0D01*
G01*
X141520500Y-75152000D01*
G75*
G02*
X141583000Y-75214500I0J-62500D01*
G01*
X141583000Y-76039500D01*
G75*
G02*
X141520500Y-76102000I-62500J0D01*
G01*
G37*
G36*
G01*
X141020500Y-76102000D02*
X140895500Y-76102000D01*
G75*
G02*
X140833000Y-76039500I0J62500D01*
G01*
X140833000Y-75214500D01*
G75*
G02*
X140895500Y-75152000I62500J0D01*
G01*
X141020500Y-75152000D01*
G75*
G02*
X141083000Y-75214500I0J-62500D01*
G01*
X141083000Y-76039500D01*
G75*
G02*
X141020500Y-76102000I-62500J0D01*
G01*
G37*
G36*
G01*
X140520500Y-76102000D02*
X140395500Y-76102000D01*
G75*
G02*
X140333000Y-76039500I0J62500D01*
G01*
X140333000Y-75214500D01*
G75*
G02*
X140395500Y-75152000I62500J0D01*
G01*
X140520500Y-75152000D01*
G75*
G02*
X140583000Y-75214500I0J-62500D01*
G01*
X140583000Y-76039500D01*
G75*
G02*
X140520500Y-76102000I-62500J0D01*
G01*
G37*
G36*
G01*
X140020500Y-76102000D02*
X139895500Y-76102000D01*
G75*
G02*
X139833000Y-76039500I0J62500D01*
G01*
X139833000Y-75214500D01*
G75*
G02*
X139895500Y-75152000I62500J0D01*
G01*
X140020500Y-75152000D01*
G75*
G02*
X140083000Y-75214500I0J-62500D01*
G01*
X140083000Y-76039500D01*
G75*
G02*
X140020500Y-76102000I-62500J0D01*
G01*
G37*
G36*
G01*
X139520500Y-76102000D02*
X139395500Y-76102000D01*
G75*
G02*
X139333000Y-76039500I0J62500D01*
G01*
X139333000Y-75214500D01*
G75*
G02*
X139395500Y-75152000I62500J0D01*
G01*
X139520500Y-75152000D01*
G75*
G02*
X139583000Y-75214500I0J-62500D01*
G01*
X139583000Y-76039500D01*
G75*
G02*
X139520500Y-76102000I-62500J0D01*
G01*
G37*
G36*
G01*
X139020500Y-76102000D02*
X138895500Y-76102000D01*
G75*
G02*
X138833000Y-76039500I0J62500D01*
G01*
X138833000Y-75214500D01*
G75*
G02*
X138895500Y-75152000I62500J0D01*
G01*
X139020500Y-75152000D01*
G75*
G02*
X139083000Y-75214500I0J-62500D01*
G01*
X139083000Y-76039500D01*
G75*
G02*
X139020500Y-76102000I-62500J0D01*
G01*
G37*
G36*
G01*
X138520500Y-76102000D02*
X138395500Y-76102000D01*
G75*
G02*
X138333000Y-76039500I0J62500D01*
G01*
X138333000Y-75214500D01*
G75*
G02*
X138395500Y-75152000I62500J0D01*
G01*
X138520500Y-75152000D01*
G75*
G02*
X138583000Y-75214500I0J-62500D01*
G01*
X138583000Y-76039500D01*
G75*
G02*
X138520500Y-76102000I-62500J0D01*
G01*
G37*
G36*
G01*
X138020500Y-76102000D02*
X137895500Y-76102000D01*
G75*
G02*
X137833000Y-76039500I0J62500D01*
G01*
X137833000Y-75214500D01*
G75*
G02*
X137895500Y-75152000I62500J0D01*
G01*
X138020500Y-75152000D01*
G75*
G02*
X138083000Y-75214500I0J-62500D01*
G01*
X138083000Y-76039500D01*
G75*
G02*
X138020500Y-76102000I-62500J0D01*
G01*
G37*
G36*
G01*
X137520500Y-76102000D02*
X137395500Y-76102000D01*
G75*
G02*
X137333000Y-76039500I0J62500D01*
G01*
X137333000Y-75214500D01*
G75*
G02*
X137395500Y-75152000I62500J0D01*
G01*
X137520500Y-75152000D01*
G75*
G02*
X137583000Y-75214500I0J-62500D01*
G01*
X137583000Y-76039500D01*
G75*
G02*
X137520500Y-76102000I-62500J0D01*
G01*
G37*
G36*
G01*
X136745500Y-76877000D02*
X135920500Y-76877000D01*
G75*
G02*
X135858000Y-76814500I0J62500D01*
G01*
X135858000Y-76689500D01*
G75*
G02*
X135920500Y-76627000I62500J0D01*
G01*
X136745500Y-76627000D01*
G75*
G02*
X136808000Y-76689500I0J-62500D01*
G01*
X136808000Y-76814500D01*
G75*
G02*
X136745500Y-76877000I-62500J0D01*
G01*
G37*
G36*
G01*
X136745500Y-77377000D02*
X135920500Y-77377000D01*
G75*
G02*
X135858000Y-77314500I0J62500D01*
G01*
X135858000Y-77189500D01*
G75*
G02*
X135920500Y-77127000I62500J0D01*
G01*
X136745500Y-77127000D01*
G75*
G02*
X136808000Y-77189500I0J-62500D01*
G01*
X136808000Y-77314500D01*
G75*
G02*
X136745500Y-77377000I-62500J0D01*
G01*
G37*
G36*
G01*
X136745500Y-77877000D02*
X135920500Y-77877000D01*
G75*
G02*
X135858000Y-77814500I0J62500D01*
G01*
X135858000Y-77689500D01*
G75*
G02*
X135920500Y-77627000I62500J0D01*
G01*
X136745500Y-77627000D01*
G75*
G02*
X136808000Y-77689500I0J-62500D01*
G01*
X136808000Y-77814500D01*
G75*
G02*
X136745500Y-77877000I-62500J0D01*
G01*
G37*
G36*
G01*
X136745500Y-78377000D02*
X135920500Y-78377000D01*
G75*
G02*
X135858000Y-78314500I0J62500D01*
G01*
X135858000Y-78189500D01*
G75*
G02*
X135920500Y-78127000I62500J0D01*
G01*
X136745500Y-78127000D01*
G75*
G02*
X136808000Y-78189500I0J-62500D01*
G01*
X136808000Y-78314500D01*
G75*
G02*
X136745500Y-78377000I-62500J0D01*
G01*
G37*
G36*
G01*
X136745500Y-78877000D02*
X135920500Y-78877000D01*
G75*
G02*
X135858000Y-78814500I0J62500D01*
G01*
X135858000Y-78689500D01*
G75*
G02*
X135920500Y-78627000I62500J0D01*
G01*
X136745500Y-78627000D01*
G75*
G02*
X136808000Y-78689500I0J-62500D01*
G01*
X136808000Y-78814500D01*
G75*
G02*
X136745500Y-78877000I-62500J0D01*
G01*
G37*
G36*
G01*
X136745500Y-79377000D02*
X135920500Y-79377000D01*
G75*
G02*
X135858000Y-79314500I0J62500D01*
G01*
X135858000Y-79189500D01*
G75*
G02*
X135920500Y-79127000I62500J0D01*
G01*
X136745500Y-79127000D01*
G75*
G02*
X136808000Y-79189500I0J-62500D01*
G01*
X136808000Y-79314500D01*
G75*
G02*
X136745500Y-79377000I-62500J0D01*
G01*
G37*
G36*
G01*
X136745500Y-79877000D02*
X135920500Y-79877000D01*
G75*
G02*
X135858000Y-79814500I0J62500D01*
G01*
X135858000Y-79689500D01*
G75*
G02*
X135920500Y-79627000I62500J0D01*
G01*
X136745500Y-79627000D01*
G75*
G02*
X136808000Y-79689500I0J-62500D01*
G01*
X136808000Y-79814500D01*
G75*
G02*
X136745500Y-79877000I-62500J0D01*
G01*
G37*
G36*
G01*
X136745500Y-80377000D02*
X135920500Y-80377000D01*
G75*
G02*
X135858000Y-80314500I0J62500D01*
G01*
X135858000Y-80189500D01*
G75*
G02*
X135920500Y-80127000I62500J0D01*
G01*
X136745500Y-80127000D01*
G75*
G02*
X136808000Y-80189500I0J-62500D01*
G01*
X136808000Y-80314500D01*
G75*
G02*
X136745500Y-80377000I-62500J0D01*
G01*
G37*
G36*
G01*
X136745500Y-80877000D02*
X135920500Y-80877000D01*
G75*
G02*
X135858000Y-80814500I0J62500D01*
G01*
X135858000Y-80689500D01*
G75*
G02*
X135920500Y-80627000I62500J0D01*
G01*
X136745500Y-80627000D01*
G75*
G02*
X136808000Y-80689500I0J-62500D01*
G01*
X136808000Y-80814500D01*
G75*
G02*
X136745500Y-80877000I-62500J0D01*
G01*
G37*
G36*
G01*
X136745500Y-81377000D02*
X135920500Y-81377000D01*
G75*
G02*
X135858000Y-81314500I0J62500D01*
G01*
X135858000Y-81189500D01*
G75*
G02*
X135920500Y-81127000I62500J0D01*
G01*
X136745500Y-81127000D01*
G75*
G02*
X136808000Y-81189500I0J-62500D01*
G01*
X136808000Y-81314500D01*
G75*
G02*
X136745500Y-81377000I-62500J0D01*
G01*
G37*
G36*
G01*
X136745500Y-81877000D02*
X135920500Y-81877000D01*
G75*
G02*
X135858000Y-81814500I0J62500D01*
G01*
X135858000Y-81689500D01*
G75*
G02*
X135920500Y-81627000I62500J0D01*
G01*
X136745500Y-81627000D01*
G75*
G02*
X136808000Y-81689500I0J-62500D01*
G01*
X136808000Y-81814500D01*
G75*
G02*
X136745500Y-81877000I-62500J0D01*
G01*
G37*
G36*
G01*
X136745500Y-82377000D02*
X135920500Y-82377000D01*
G75*
G02*
X135858000Y-82314500I0J62500D01*
G01*
X135858000Y-82189500D01*
G75*
G02*
X135920500Y-82127000I62500J0D01*
G01*
X136745500Y-82127000D01*
G75*
G02*
X136808000Y-82189500I0J-62500D01*
G01*
X136808000Y-82314500D01*
G75*
G02*
X136745500Y-82377000I-62500J0D01*
G01*
G37*
G36*
G01*
X138168125Y-82262250D02*
X137687875Y-82262250D01*
G75*
G02*
X137447750Y-82022125I0J240125D01*
G01*
X137447750Y-81541875D01*
G75*
G02*
X137687875Y-81301750I240125J0D01*
G01*
X138168125Y-81301750D01*
G75*
G02*
X138408250Y-81541875I0J-240125D01*
G01*
X138408250Y-82022125D01*
G75*
G02*
X138168125Y-82262250I-240125J0D01*
G01*
G37*
G36*
G01*
X139308125Y-82262250D02*
X138827875Y-82262250D01*
G75*
G02*
X138587750Y-82022125I0J240125D01*
G01*
X138587750Y-81541875D01*
G75*
G02*
X138827875Y-81301750I240125J0D01*
G01*
X139308125Y-81301750D01*
G75*
G02*
X139548250Y-81541875I0J-240125D01*
G01*
X139548250Y-82022125D01*
G75*
G02*
X139308125Y-82262250I-240125J0D01*
G01*
G37*
G36*
G01*
X140448125Y-82262250D02*
X139967875Y-82262250D01*
G75*
G02*
X139727750Y-82022125I0J240125D01*
G01*
X139727750Y-81541875D01*
G75*
G02*
X139967875Y-81301750I240125J0D01*
G01*
X140448125Y-81301750D01*
G75*
G02*
X140688250Y-81541875I0J-240125D01*
G01*
X140688250Y-82022125D01*
G75*
G02*
X140448125Y-82262250I-240125J0D01*
G01*
G37*
G36*
G01*
X141588125Y-82262250D02*
X141107875Y-82262250D01*
G75*
G02*
X140867750Y-82022125I0J240125D01*
G01*
X140867750Y-81541875D01*
G75*
G02*
X141107875Y-81301750I240125J0D01*
G01*
X141588125Y-81301750D01*
G75*
G02*
X141828250Y-81541875I0J-240125D01*
G01*
X141828250Y-82022125D01*
G75*
G02*
X141588125Y-82262250I-240125J0D01*
G01*
G37*
G36*
G01*
X142728125Y-82262250D02*
X142247875Y-82262250D01*
G75*
G02*
X142007750Y-82022125I0J240125D01*
G01*
X142007750Y-81541875D01*
G75*
G02*
X142247875Y-81301750I240125J0D01*
G01*
X142728125Y-81301750D01*
G75*
G02*
X142968250Y-81541875I0J-240125D01*
G01*
X142968250Y-82022125D01*
G75*
G02*
X142728125Y-82262250I-240125J0D01*
G01*
G37*
G36*
G01*
X138168125Y-81122250D02*
X137687875Y-81122250D01*
G75*
G02*
X137447750Y-80882125I0J240125D01*
G01*
X137447750Y-80401875D01*
G75*
G02*
X137687875Y-80161750I240125J0D01*
G01*
X138168125Y-80161750D01*
G75*
G02*
X138408250Y-80401875I0J-240125D01*
G01*
X138408250Y-80882125D01*
G75*
G02*
X138168125Y-81122250I-240125J0D01*
G01*
G37*
G36*
G01*
X139308125Y-81122250D02*
X138827875Y-81122250D01*
G75*
G02*
X138587750Y-80882125I0J240125D01*
G01*
X138587750Y-80401875D01*
G75*
G02*
X138827875Y-80161750I240125J0D01*
G01*
X139308125Y-80161750D01*
G75*
G02*
X139548250Y-80401875I0J-240125D01*
G01*
X139548250Y-80882125D01*
G75*
G02*
X139308125Y-81122250I-240125J0D01*
G01*
G37*
G36*
G01*
X140448125Y-81122250D02*
X139967875Y-81122250D01*
G75*
G02*
X139727750Y-80882125I0J240125D01*
G01*
X139727750Y-80401875D01*
G75*
G02*
X139967875Y-80161750I240125J0D01*
G01*
X140448125Y-80161750D01*
G75*
G02*
X140688250Y-80401875I0J-240125D01*
G01*
X140688250Y-80882125D01*
G75*
G02*
X140448125Y-81122250I-240125J0D01*
G01*
G37*
G36*
G01*
X141588125Y-81122250D02*
X141107875Y-81122250D01*
G75*
G02*
X140867750Y-80882125I0J240125D01*
G01*
X140867750Y-80401875D01*
G75*
G02*
X141107875Y-80161750I240125J0D01*
G01*
X141588125Y-80161750D01*
G75*
G02*
X141828250Y-80401875I0J-240125D01*
G01*
X141828250Y-80882125D01*
G75*
G02*
X141588125Y-81122250I-240125J0D01*
G01*
G37*
G36*
G01*
X142728125Y-81122250D02*
X142247875Y-81122250D01*
G75*
G02*
X142007750Y-80882125I0J240125D01*
G01*
X142007750Y-80401875D01*
G75*
G02*
X142247875Y-80161750I240125J0D01*
G01*
X142728125Y-80161750D01*
G75*
G02*
X142968250Y-80401875I0J-240125D01*
G01*
X142968250Y-80882125D01*
G75*
G02*
X142728125Y-81122250I-240125J0D01*
G01*
G37*
G36*
G01*
X138168125Y-79982250D02*
X137687875Y-79982250D01*
G75*
G02*
X137447750Y-79742125I0J240125D01*
G01*
X137447750Y-79261875D01*
G75*
G02*
X137687875Y-79021750I240125J0D01*
G01*
X138168125Y-79021750D01*
G75*
G02*
X138408250Y-79261875I0J-240125D01*
G01*
X138408250Y-79742125D01*
G75*
G02*
X138168125Y-79982250I-240125J0D01*
G01*
G37*
G36*
G01*
X139308125Y-79982250D02*
X138827875Y-79982250D01*
G75*
G02*
X138587750Y-79742125I0J240125D01*
G01*
X138587750Y-79261875D01*
G75*
G02*
X138827875Y-79021750I240125J0D01*
G01*
X139308125Y-79021750D01*
G75*
G02*
X139548250Y-79261875I0J-240125D01*
G01*
X139548250Y-79742125D01*
G75*
G02*
X139308125Y-79982250I-240125J0D01*
G01*
G37*
G36*
G01*
X140448125Y-79982250D02*
X139967875Y-79982250D01*
G75*
G02*
X139727750Y-79742125I0J240125D01*
G01*
X139727750Y-79261875D01*
G75*
G02*
X139967875Y-79021750I240125J0D01*
G01*
X140448125Y-79021750D01*
G75*
G02*
X140688250Y-79261875I0J-240125D01*
G01*
X140688250Y-79742125D01*
G75*
G02*
X140448125Y-79982250I-240125J0D01*
G01*
G37*
G36*
G01*
X141588125Y-79982250D02*
X141107875Y-79982250D01*
G75*
G02*
X140867750Y-79742125I0J240125D01*
G01*
X140867750Y-79261875D01*
G75*
G02*
X141107875Y-79021750I240125J0D01*
G01*
X141588125Y-79021750D01*
G75*
G02*
X141828250Y-79261875I0J-240125D01*
G01*
X141828250Y-79742125D01*
G75*
G02*
X141588125Y-79982250I-240125J0D01*
G01*
G37*
G36*
G01*
X142728125Y-79982250D02*
X142247875Y-79982250D01*
G75*
G02*
X142007750Y-79742125I0J240125D01*
G01*
X142007750Y-79261875D01*
G75*
G02*
X142247875Y-79021750I240125J0D01*
G01*
X142728125Y-79021750D01*
G75*
G02*
X142968250Y-79261875I0J-240125D01*
G01*
X142968250Y-79742125D01*
G75*
G02*
X142728125Y-79982250I-240125J0D01*
G01*
G37*
G36*
G01*
X138168125Y-78842250D02*
X137687875Y-78842250D01*
G75*
G02*
X137447750Y-78602125I0J240125D01*
G01*
X137447750Y-78121875D01*
G75*
G02*
X137687875Y-77881750I240125J0D01*
G01*
X138168125Y-77881750D01*
G75*
G02*
X138408250Y-78121875I0J-240125D01*
G01*
X138408250Y-78602125D01*
G75*
G02*
X138168125Y-78842250I-240125J0D01*
G01*
G37*
G36*
G01*
X139308125Y-78842250D02*
X138827875Y-78842250D01*
G75*
G02*
X138587750Y-78602125I0J240125D01*
G01*
X138587750Y-78121875D01*
G75*
G02*
X138827875Y-77881750I240125J0D01*
G01*
X139308125Y-77881750D01*
G75*
G02*
X139548250Y-78121875I0J-240125D01*
G01*
X139548250Y-78602125D01*
G75*
G02*
X139308125Y-78842250I-240125J0D01*
G01*
G37*
G36*
G01*
X140448125Y-78842250D02*
X139967875Y-78842250D01*
G75*
G02*
X139727750Y-78602125I0J240125D01*
G01*
X139727750Y-78121875D01*
G75*
G02*
X139967875Y-77881750I240125J0D01*
G01*
X140448125Y-77881750D01*
G75*
G02*
X140688250Y-78121875I0J-240125D01*
G01*
X140688250Y-78602125D01*
G75*
G02*
X140448125Y-78842250I-240125J0D01*
G01*
G37*
G36*
G01*
X141588125Y-78842250D02*
X141107875Y-78842250D01*
G75*
G02*
X140867750Y-78602125I0J240125D01*
G01*
X140867750Y-78121875D01*
G75*
G02*
X141107875Y-77881750I240125J0D01*
G01*
X141588125Y-77881750D01*
G75*
G02*
X141828250Y-78121875I0J-240125D01*
G01*
X141828250Y-78602125D01*
G75*
G02*
X141588125Y-78842250I-240125J0D01*
G01*
G37*
G36*
G01*
X142728125Y-78842250D02*
X142247875Y-78842250D01*
G75*
G02*
X142007750Y-78602125I0J240125D01*
G01*
X142007750Y-78121875D01*
G75*
G02*
X142247875Y-77881750I240125J0D01*
G01*
X142728125Y-77881750D01*
G75*
G02*
X142968250Y-78121875I0J-240125D01*
G01*
X142968250Y-78602125D01*
G75*
G02*
X142728125Y-78842250I-240125J0D01*
G01*
G37*
G36*
G01*
X138168125Y-77702250D02*
X137687875Y-77702250D01*
G75*
G02*
X137447750Y-77462125I0J240125D01*
G01*
X137447750Y-76981875D01*
G75*
G02*
X137687875Y-76741750I240125J0D01*
G01*
X138168125Y-76741750D01*
G75*
G02*
X138408250Y-76981875I0J-240125D01*
G01*
X138408250Y-77462125D01*
G75*
G02*
X138168125Y-77702250I-240125J0D01*
G01*
G37*
G36*
G01*
X139308125Y-77702250D02*
X138827875Y-77702250D01*
G75*
G02*
X138587750Y-77462125I0J240125D01*
G01*
X138587750Y-76981875D01*
G75*
G02*
X138827875Y-76741750I240125J0D01*
G01*
X139308125Y-76741750D01*
G75*
G02*
X139548250Y-76981875I0J-240125D01*
G01*
X139548250Y-77462125D01*
G75*
G02*
X139308125Y-77702250I-240125J0D01*
G01*
G37*
G36*
G01*
X140448125Y-77702250D02*
X139967875Y-77702250D01*
G75*
G02*
X139727750Y-77462125I0J240125D01*
G01*
X139727750Y-76981875D01*
G75*
G02*
X139967875Y-76741750I240125J0D01*
G01*
X140448125Y-76741750D01*
G75*
G02*
X140688250Y-76981875I0J-240125D01*
G01*
X140688250Y-77462125D01*
G75*
G02*
X140448125Y-77702250I-240125J0D01*
G01*
G37*
G36*
G01*
X141588125Y-77702250D02*
X141107875Y-77702250D01*
G75*
G02*
X140867750Y-77462125I0J240125D01*
G01*
X140867750Y-76981875D01*
G75*
G02*
X141107875Y-76741750I240125J0D01*
G01*
X141588125Y-76741750D01*
G75*
G02*
X141828250Y-76981875I0J-240125D01*
G01*
X141828250Y-77462125D01*
G75*
G02*
X141588125Y-77702250I-240125J0D01*
G01*
G37*
G36*
G01*
X142728125Y-77702250D02*
X142247875Y-77702250D01*
G75*
G02*
X142007750Y-77462125I0J240125D01*
G01*
X142007750Y-76981875D01*
G75*
G02*
X142247875Y-76741750I240125J0D01*
G01*
X142728125Y-76741750D01*
G75*
G02*
X142968250Y-76981875I0J-240125D01*
G01*
X142968250Y-77462125D01*
G75*
G02*
X142728125Y-77702250I-240125J0D01*
G01*
G37*
G36*
G01*
X128647000Y-84892000D02*
X128147000Y-84892000D01*
G75*
G02*
X127922000Y-84667000I0J225000D01*
G01*
X127922000Y-84217000D01*
G75*
G02*
X128147000Y-83992000I225000J0D01*
G01*
X128647000Y-83992000D01*
G75*
G02*
X128872000Y-84217000I0J-225000D01*
G01*
X128872000Y-84667000D01*
G75*
G02*
X128647000Y-84892000I-225000J0D01*
G01*
G37*
G36*
G01*
X128647000Y-86442000D02*
X128147000Y-86442000D01*
G75*
G02*
X127922000Y-86217000I0J225000D01*
G01*
X127922000Y-85767000D01*
G75*
G02*
X128147000Y-85542000I225000J0D01*
G01*
X128647000Y-85542000D01*
G75*
G02*
X128872000Y-85767000I0J-225000D01*
G01*
X128872000Y-86217000D01*
G75*
G02*
X128647000Y-86442000I-225000J0D01*
G01*
G37*
G36*
G01*
X178185400Y-76625000D02*
X178735400Y-76625000D01*
G75*
G02*
X178935400Y-76825000I0J-200000D01*
G01*
X178935400Y-77225000D01*
G75*
G02*
X178735400Y-77425000I-200000J0D01*
G01*
X178185400Y-77425000D01*
G75*
G02*
X177985400Y-77225000I0J200000D01*
G01*
X177985400Y-76825000D01*
G75*
G02*
X178185400Y-76625000I200000J0D01*
G01*
G37*
G36*
G01*
X178185400Y-74975000D02*
X178735400Y-74975000D01*
G75*
G02*
X178935400Y-75175000I0J-200000D01*
G01*
X178935400Y-75575000D01*
G75*
G02*
X178735400Y-75775000I-200000J0D01*
G01*
X178185400Y-75775000D01*
G75*
G02*
X177985400Y-75575000I0J200000D01*
G01*
X177985400Y-75175000D01*
G75*
G02*
X178185400Y-74975000I200000J0D01*
G01*
G37*
G36*
G01*
X130332600Y-69904800D02*
X130332600Y-70404800D01*
G75*
G02*
X130107600Y-70629800I-225000J0D01*
G01*
X129657600Y-70629800D01*
G75*
G02*
X129432600Y-70404800I0J225000D01*
G01*
X129432600Y-69904800D01*
G75*
G02*
X129657600Y-69679800I225000J0D01*
G01*
X130107600Y-69679800D01*
G75*
G02*
X130332600Y-69904800I0J-225000D01*
G01*
G37*
G36*
G01*
X131882600Y-69904800D02*
X131882600Y-70404800D01*
G75*
G02*
X131657600Y-70629800I-225000J0D01*
G01*
X131207600Y-70629800D01*
G75*
G02*
X130982600Y-70404800I0J225000D01*
G01*
X130982600Y-69904800D01*
G75*
G02*
X131207600Y-69679800I225000J0D01*
G01*
X131657600Y-69679800D01*
G75*
G02*
X131882600Y-69904800I0J-225000D01*
G01*
G37*
G36*
G01*
X140999800Y-63010600D02*
X141549800Y-63010600D01*
G75*
G02*
X141749800Y-63210600I0J-200000D01*
G01*
X141749800Y-63610600D01*
G75*
G02*
X141549800Y-63810600I-200000J0D01*
G01*
X140999800Y-63810600D01*
G75*
G02*
X140799800Y-63610600I0J200000D01*
G01*
X140799800Y-63210600D01*
G75*
G02*
X140999800Y-63010600I200000J0D01*
G01*
G37*
G36*
G01*
X140999800Y-61360600D02*
X141549800Y-61360600D01*
G75*
G02*
X141749800Y-61560600I0J-200000D01*
G01*
X141749800Y-61960600D01*
G75*
G02*
X141549800Y-62160600I-200000J0D01*
G01*
X140999800Y-62160600D01*
G75*
G02*
X140799800Y-61960600I0J200000D01*
G01*
X140799800Y-61560600D01*
G75*
G02*
X140999800Y-61360600I200000J0D01*
G01*
G37*
G36*
G01*
X145673400Y-63010600D02*
X146223400Y-63010600D01*
G75*
G02*
X146423400Y-63210600I0J-200000D01*
G01*
X146423400Y-63610600D01*
G75*
G02*
X146223400Y-63810600I-200000J0D01*
G01*
X145673400Y-63810600D01*
G75*
G02*
X145473400Y-63610600I0J200000D01*
G01*
X145473400Y-63210600D01*
G75*
G02*
X145673400Y-63010600I200000J0D01*
G01*
G37*
G36*
G01*
X145673400Y-61360600D02*
X146223400Y-61360600D01*
G75*
G02*
X146423400Y-61560600I0J-200000D01*
G01*
X146423400Y-61960600D01*
G75*
G02*
X146223400Y-62160600I-200000J0D01*
G01*
X145673400Y-62160600D01*
G75*
G02*
X145473400Y-61960600I0J200000D01*
G01*
X145473400Y-61560600D01*
G75*
G02*
X145673400Y-61360600I200000J0D01*
G01*
G37*
G36*
G01*
X144128600Y-63010600D02*
X144678600Y-63010600D01*
G75*
G02*
X144878600Y-63210600I0J-200000D01*
G01*
X144878600Y-63610600D01*
G75*
G02*
X144678600Y-63810600I-200000J0D01*
G01*
X144128600Y-63810600D01*
G75*
G02*
X143928600Y-63610600I0J200000D01*
G01*
X143928600Y-63210600D01*
G75*
G02*
X144128600Y-63010600I200000J0D01*
G01*
G37*
G36*
G01*
X144128600Y-61360600D02*
X144678600Y-61360600D01*
G75*
G02*
X144878600Y-61560600I0J-200000D01*
G01*
X144878600Y-61960600D01*
G75*
G02*
X144678600Y-62160600I-200000J0D01*
G01*
X144128600Y-62160600D01*
G75*
G02*
X143928600Y-61960600I0J200000D01*
G01*
X143928600Y-61560600D01*
G75*
G02*
X144128600Y-61360600I200000J0D01*
G01*
G37*
G36*
G01*
X142574600Y-63010600D02*
X143124600Y-63010600D01*
G75*
G02*
X143324600Y-63210600I0J-200000D01*
G01*
X143324600Y-63610600D01*
G75*
G02*
X143124600Y-63810600I-200000J0D01*
G01*
X142574600Y-63810600D01*
G75*
G02*
X142374600Y-63610600I0J200000D01*
G01*
X142374600Y-63210600D01*
G75*
G02*
X142574600Y-63010600I200000J0D01*
G01*
G37*
G36*
G01*
X142574600Y-61360600D02*
X143124600Y-61360600D01*
G75*
G02*
X143324600Y-61560600I0J-200000D01*
G01*
X143324600Y-61960600D01*
G75*
G02*
X143124600Y-62160600I-200000J0D01*
G01*
X142574600Y-62160600D01*
G75*
G02*
X142374600Y-61960600I0J200000D01*
G01*
X142374600Y-61560600D01*
G75*
G02*
X142574600Y-61360600I200000J0D01*
G01*
G37*
G36*
G01*
X151769000Y-77541000D02*
X152269000Y-77541000D01*
G75*
G02*
X152494000Y-77766000I0J-225000D01*
G01*
X152494000Y-78216000D01*
G75*
G02*
X152269000Y-78441000I-225000J0D01*
G01*
X151769000Y-78441000D01*
G75*
G02*
X151544000Y-78216000I0J225000D01*
G01*
X151544000Y-77766000D01*
G75*
G02*
X151769000Y-77541000I225000J0D01*
G01*
G37*
G36*
G01*
X151769000Y-75991000D02*
X152269000Y-75991000D01*
G75*
G02*
X152494000Y-76216000I0J-225000D01*
G01*
X152494000Y-76666000D01*
G75*
G02*
X152269000Y-76891000I-225000J0D01*
G01*
X151769000Y-76891000D01*
G75*
G02*
X151544000Y-76666000I0J225000D01*
G01*
X151544000Y-76216000D01*
G75*
G02*
X151769000Y-75991000I225000J0D01*
G01*
G37*
D12*
X140966000Y-89941000D03*
X141466000Y-89941000D03*
X141966000Y-89941000D03*
X142466000Y-89941000D03*
X139966000Y-89941000D03*
X138966000Y-89941000D03*
X139466000Y-89941000D03*
X140466000Y-89941000D03*
X137366000Y-89941000D03*
X137666000Y-89941000D03*
X138166000Y-89941000D03*
X138466000Y-89941000D03*
X143266000Y-89941000D03*
X142966000Y-89941000D03*
X143766000Y-89941000D03*
X144066000Y-89941000D03*
D13*
X132610000Y-68367200D03*
X132610000Y-66767200D03*
X128510000Y-68367200D03*
X128510000Y-66767200D03*
G36*
G01*
X127224200Y-67482400D02*
X126674200Y-67482400D01*
G75*
G02*
X126474200Y-67282400I0J200000D01*
G01*
X126474200Y-66882400D01*
G75*
G02*
X126674200Y-66682400I200000J0D01*
G01*
X127224200Y-66682400D01*
G75*
G02*
X127424200Y-66882400I0J-200000D01*
G01*
X127424200Y-67282400D01*
G75*
G02*
X127224200Y-67482400I-200000J0D01*
G01*
G37*
G36*
G01*
X127224200Y-69132400D02*
X126674200Y-69132400D01*
G75*
G02*
X126474200Y-68932400I0J200000D01*
G01*
X126474200Y-68532400D01*
G75*
G02*
X126674200Y-68332400I200000J0D01*
G01*
X127224200Y-68332400D01*
G75*
G02*
X127424200Y-68532400I0J-200000D01*
G01*
X127424200Y-68932400D01*
G75*
G02*
X127224200Y-69132400I-200000J0D01*
G01*
G37*
X134195600Y-66764000D03*
X134195600Y-68364000D03*
X138295600Y-66764000D03*
X138295600Y-68364000D03*
G36*
G01*
X157990250Y-93528400D02*
X157477750Y-93528400D01*
G75*
G02*
X157259000Y-93309650I0J218750D01*
G01*
X157259000Y-92872150D01*
G75*
G02*
X157477750Y-92653400I218750J0D01*
G01*
X157990250Y-92653400D01*
G75*
G02*
X158209000Y-92872150I0J-218750D01*
G01*
X158209000Y-93309650D01*
G75*
G02*
X157990250Y-93528400I-218750J0D01*
G01*
G37*
G36*
G01*
X157990250Y-95103400D02*
X157477750Y-95103400D01*
G75*
G02*
X157259000Y-94884650I0J218750D01*
G01*
X157259000Y-94447150D01*
G75*
G02*
X157477750Y-94228400I218750J0D01*
G01*
X157990250Y-94228400D01*
G75*
G02*
X158209000Y-94447150I0J-218750D01*
G01*
X158209000Y-94884650D01*
G75*
G02*
X157990250Y-95103400I-218750J0D01*
G01*
G37*
G36*
G01*
X155808000Y-91230000D02*
X156358000Y-91230000D01*
G75*
G02*
X156558000Y-91430000I0J-200000D01*
G01*
X156558000Y-91830000D01*
G75*
G02*
X156358000Y-92030000I-200000J0D01*
G01*
X155808000Y-92030000D01*
G75*
G02*
X155608000Y-91830000I0J200000D01*
G01*
X155608000Y-91430000D01*
G75*
G02*
X155808000Y-91230000I200000J0D01*
G01*
G37*
G36*
G01*
X155808000Y-89580000D02*
X156358000Y-89580000D01*
G75*
G02*
X156558000Y-89780000I0J-200000D01*
G01*
X156558000Y-90180000D01*
G75*
G02*
X156358000Y-90380000I-200000J0D01*
G01*
X155808000Y-90380000D01*
G75*
G02*
X155608000Y-90180000I0J200000D01*
G01*
X155608000Y-89780000D01*
G75*
G02*
X155808000Y-89580000I200000J0D01*
G01*
G37*
G36*
G01*
X156339250Y-93503000D02*
X155826750Y-93503000D01*
G75*
G02*
X155608000Y-93284250I0J218750D01*
G01*
X155608000Y-92846750D01*
G75*
G02*
X155826750Y-92628000I218750J0D01*
G01*
X156339250Y-92628000D01*
G75*
G02*
X156558000Y-92846750I0J-218750D01*
G01*
X156558000Y-93284250D01*
G75*
G02*
X156339250Y-93503000I-218750J0D01*
G01*
G37*
G36*
G01*
X156339250Y-95078000D02*
X155826750Y-95078000D01*
G75*
G02*
X155608000Y-94859250I0J218750D01*
G01*
X155608000Y-94421750D01*
G75*
G02*
X155826750Y-94203000I218750J0D01*
G01*
X156339250Y-94203000D01*
G75*
G02*
X156558000Y-94421750I0J-218750D01*
G01*
X156558000Y-94859250D01*
G75*
G02*
X156339250Y-95078000I-218750J0D01*
G01*
G37*
G36*
G01*
X184281400Y-76625000D02*
X184831400Y-76625000D01*
G75*
G02*
X185031400Y-76825000I0J-200000D01*
G01*
X185031400Y-77225000D01*
G75*
G02*
X184831400Y-77425000I-200000J0D01*
G01*
X184281400Y-77425000D01*
G75*
G02*
X184081400Y-77225000I0J200000D01*
G01*
X184081400Y-76825000D01*
G75*
G02*
X184281400Y-76625000I200000J0D01*
G01*
G37*
G36*
G01*
X184281400Y-74975000D02*
X184831400Y-74975000D01*
G75*
G02*
X185031400Y-75175000I0J-200000D01*
G01*
X185031400Y-75575000D01*
G75*
G02*
X184831400Y-75775000I-200000J0D01*
G01*
X184281400Y-75775000D01*
G75*
G02*
X184081400Y-75575000I0J200000D01*
G01*
X184081400Y-75175000D01*
G75*
G02*
X184281400Y-74975000I200000J0D01*
G01*
G37*
D14*
X176985000Y-87081000D03*
X176985000Y-83581000D03*
X179375000Y-83581000D03*
D15*
X179375000Y-86331000D03*
D14*
X179375000Y-87081000D03*
D15*
X179375000Y-85931000D03*
X179375000Y-85531000D03*
X179375000Y-85131000D03*
X179375000Y-84731000D03*
X179375000Y-84331000D03*
X176985000Y-84331000D03*
X176985000Y-84731000D03*
X176985000Y-85131000D03*
X176985000Y-85531000D03*
X176985000Y-85931000D03*
X176985000Y-86331000D03*
G36*
G01*
X150245000Y-59761000D02*
X150745000Y-59761000D01*
G75*
G02*
X150970000Y-59986000I0J-225000D01*
G01*
X150970000Y-60436000D01*
G75*
G02*
X150745000Y-60661000I-225000J0D01*
G01*
X150245000Y-60661000D01*
G75*
G02*
X150020000Y-60436000I0J225000D01*
G01*
X150020000Y-59986000D01*
G75*
G02*
X150245000Y-59761000I225000J0D01*
G01*
G37*
G36*
G01*
X150245000Y-58211000D02*
X150745000Y-58211000D01*
G75*
G02*
X150970000Y-58436000I0J-225000D01*
G01*
X150970000Y-58886000D01*
G75*
G02*
X150745000Y-59111000I-225000J0D01*
G01*
X150245000Y-59111000D01*
G75*
G02*
X150020000Y-58886000I0J225000D01*
G01*
X150020000Y-58436000D01*
G75*
G02*
X150245000Y-58211000I225000J0D01*
G01*
G37*
G36*
G01*
X152294000Y-59011000D02*
X151744000Y-59011000D01*
G75*
G02*
X151544000Y-58811000I0J200000D01*
G01*
X151544000Y-58411000D01*
G75*
G02*
X151744000Y-58211000I200000J0D01*
G01*
X152294000Y-58211000D01*
G75*
G02*
X152494000Y-58411000I0J-200000D01*
G01*
X152494000Y-58811000D01*
G75*
G02*
X152294000Y-59011000I-200000J0D01*
G01*
G37*
G36*
G01*
X152294000Y-60661000D02*
X151744000Y-60661000D01*
G75*
G02*
X151544000Y-60461000I0J200000D01*
G01*
X151544000Y-60061000D01*
G75*
G02*
X151744000Y-59861000I200000J0D01*
G01*
X152294000Y-59861000D01*
G75*
G02*
X152494000Y-60061000I0J-200000D01*
G01*
X152494000Y-60461000D01*
G75*
G02*
X152294000Y-60661000I-200000J0D01*
G01*
G37*
G36*
G01*
X148721000Y-59761000D02*
X149221000Y-59761000D01*
G75*
G02*
X149446000Y-59986000I0J-225000D01*
G01*
X149446000Y-60436000D01*
G75*
G02*
X149221000Y-60661000I-225000J0D01*
G01*
X148721000Y-60661000D01*
G75*
G02*
X148496000Y-60436000I0J225000D01*
G01*
X148496000Y-59986000D01*
G75*
G02*
X148721000Y-59761000I225000J0D01*
G01*
G37*
G36*
G01*
X148721000Y-58211000D02*
X149221000Y-58211000D01*
G75*
G02*
X149446000Y-58436000I0J-225000D01*
G01*
X149446000Y-58886000D01*
G75*
G02*
X149221000Y-59111000I-225000J0D01*
G01*
X148721000Y-59111000D01*
G75*
G02*
X148496000Y-58886000I0J225000D01*
G01*
X148496000Y-58436000D01*
G75*
G02*
X148721000Y-58211000I225000J0D01*
G01*
G37*
D16*
X132666000Y-80858000D03*
X132666000Y-83058000D03*
X134366000Y-83058000D03*
X134366000Y-80858000D03*
D17*
X141634500Y-85637000D03*
X140559500Y-85637000D03*
D18*
X141097000Y-87412000D03*
X141097000Y-85562000D03*
D17*
X140559500Y-87337000D03*
X141634500Y-87337000D03*
G36*
G01*
X145879000Y-83799000D02*
X145879000Y-84349000D01*
G75*
G02*
X145679000Y-84549000I-200000J0D01*
G01*
X145279000Y-84549000D01*
G75*
G02*
X145079000Y-84349000I0J200000D01*
G01*
X145079000Y-83799000D01*
G75*
G02*
X145279000Y-83599000I200000J0D01*
G01*
X145679000Y-83599000D01*
G75*
G02*
X145879000Y-83799000I0J-200000D01*
G01*
G37*
G36*
G01*
X147529000Y-83799000D02*
X147529000Y-84349000D01*
G75*
G02*
X147329000Y-84549000I-200000J0D01*
G01*
X146929000Y-84549000D01*
G75*
G02*
X146729000Y-84349000I0J200000D01*
G01*
X146729000Y-83799000D01*
G75*
G02*
X146929000Y-83599000I200000J0D01*
G01*
X147329000Y-83599000D01*
G75*
G02*
X147529000Y-83799000I0J-200000D01*
G01*
G37*
G36*
G01*
X149839000Y-80689000D02*
X150389000Y-80689000D01*
G75*
G02*
X150589000Y-80889000I0J-200000D01*
G01*
X150589000Y-81289000D01*
G75*
G02*
X150389000Y-81489000I-200000J0D01*
G01*
X149839000Y-81489000D01*
G75*
G02*
X149639000Y-81289000I0J200000D01*
G01*
X149639000Y-80889000D01*
G75*
G02*
X149839000Y-80689000I200000J0D01*
G01*
G37*
G36*
G01*
X149839000Y-79039000D02*
X150389000Y-79039000D01*
G75*
G02*
X150589000Y-79239000I0J-200000D01*
G01*
X150589000Y-79639000D01*
G75*
G02*
X150389000Y-79839000I-200000J0D01*
G01*
X149839000Y-79839000D01*
G75*
G02*
X149639000Y-79639000I0J200000D01*
G01*
X149639000Y-79239000D01*
G75*
G02*
X149839000Y-79039000I200000J0D01*
G01*
G37*
G36*
G01*
X146729000Y-76221000D02*
X146729000Y-75671000D01*
G75*
G02*
X146929000Y-75471000I200000J0D01*
G01*
X147329000Y-75471000D01*
G75*
G02*
X147529000Y-75671000I0J-200000D01*
G01*
X147529000Y-76221000D01*
G75*
G02*
X147329000Y-76421000I-200000J0D01*
G01*
X146929000Y-76421000D01*
G75*
G02*
X146729000Y-76221000I0J200000D01*
G01*
G37*
G36*
G01*
X145079000Y-76221000D02*
X145079000Y-75671000D01*
G75*
G02*
X145279000Y-75471000I200000J0D01*
G01*
X145679000Y-75471000D01*
G75*
G02*
X145879000Y-75671000I0J-200000D01*
G01*
X145879000Y-76221000D01*
G75*
G02*
X145679000Y-76421000I-200000J0D01*
G01*
X145279000Y-76421000D01*
G75*
G02*
X145079000Y-76221000I0J200000D01*
G01*
G37*
G36*
G01*
X146791000Y-79165000D02*
X147341000Y-79165000D01*
G75*
G02*
X147541000Y-79365000I0J-200000D01*
G01*
X147541000Y-79765000D01*
G75*
G02*
X147341000Y-79965000I-200000J0D01*
G01*
X146791000Y-79965000D01*
G75*
G02*
X146591000Y-79765000I0J200000D01*
G01*
X146591000Y-79365000D01*
G75*
G02*
X146791000Y-79165000I200000J0D01*
G01*
G37*
G36*
G01*
X146791000Y-77515000D02*
X147341000Y-77515000D01*
G75*
G02*
X147541000Y-77715000I0J-200000D01*
G01*
X147541000Y-78115000D01*
G75*
G02*
X147341000Y-78315000I-200000J0D01*
G01*
X146791000Y-78315000D01*
G75*
G02*
X146591000Y-78115000I0J200000D01*
G01*
X146591000Y-77715000D01*
G75*
G02*
X146791000Y-77515000I200000J0D01*
G01*
G37*
G36*
G01*
X139467000Y-85427000D02*
X138917000Y-85427000D01*
G75*
G02*
X138717000Y-85227000I0J200000D01*
G01*
X138717000Y-84827000D01*
G75*
G02*
X138917000Y-84627000I200000J0D01*
G01*
X139467000Y-84627000D01*
G75*
G02*
X139667000Y-84827000I0J-200000D01*
G01*
X139667000Y-85227000D01*
G75*
G02*
X139467000Y-85427000I-200000J0D01*
G01*
G37*
G36*
G01*
X139467000Y-87077000D02*
X138917000Y-87077000D01*
G75*
G02*
X138717000Y-86877000I0J200000D01*
G01*
X138717000Y-86477000D01*
G75*
G02*
X138917000Y-86277000I200000J0D01*
G01*
X139467000Y-86277000D01*
G75*
G02*
X139667000Y-86477000I0J-200000D01*
G01*
X139667000Y-86877000D01*
G75*
G02*
X139467000Y-87077000I-200000J0D01*
G01*
G37*
G36*
G01*
X139171000Y-73577000D02*
X139721000Y-73577000D01*
G75*
G02*
X139921000Y-73777000I0J-200000D01*
G01*
X139921000Y-74177000D01*
G75*
G02*
X139721000Y-74377000I-200000J0D01*
G01*
X139171000Y-74377000D01*
G75*
G02*
X138971000Y-74177000I0J200000D01*
G01*
X138971000Y-73777000D01*
G75*
G02*
X139171000Y-73577000I200000J0D01*
G01*
G37*
G36*
G01*
X139171000Y-71927000D02*
X139721000Y-71927000D01*
G75*
G02*
X139921000Y-72127000I0J-200000D01*
G01*
X139921000Y-72527000D01*
G75*
G02*
X139721000Y-72727000I-200000J0D01*
G01*
X139171000Y-72727000D01*
G75*
G02*
X138971000Y-72527000I0J200000D01*
G01*
X138971000Y-72127000D01*
G75*
G02*
X139171000Y-71927000I200000J0D01*
G01*
G37*
G36*
G01*
X144443000Y-87905000D02*
X144443000Y-87355000D01*
G75*
G02*
X144643000Y-87155000I200000J0D01*
G01*
X145043000Y-87155000D01*
G75*
G02*
X145243000Y-87355000I0J-200000D01*
G01*
X145243000Y-87905000D01*
G75*
G02*
X145043000Y-88105000I-200000J0D01*
G01*
X144643000Y-88105000D01*
G75*
G02*
X144443000Y-87905000I0J200000D01*
G01*
G37*
G36*
G01*
X142793000Y-87905000D02*
X142793000Y-87355000D01*
G75*
G02*
X142993000Y-87155000I200000J0D01*
G01*
X143393000Y-87155000D01*
G75*
G02*
X143593000Y-87355000I0J-200000D01*
G01*
X143593000Y-87905000D01*
G75*
G02*
X143393000Y-88105000I-200000J0D01*
G01*
X142993000Y-88105000D01*
G75*
G02*
X142793000Y-87905000I0J200000D01*
G01*
G37*
G36*
G01*
X134599000Y-91865000D02*
X135149000Y-91865000D01*
G75*
G02*
X135349000Y-92065000I0J-200000D01*
G01*
X135349000Y-92465000D01*
G75*
G02*
X135149000Y-92665000I-200000J0D01*
G01*
X134599000Y-92665000D01*
G75*
G02*
X134399000Y-92465000I0J200000D01*
G01*
X134399000Y-92065000D01*
G75*
G02*
X134599000Y-91865000I200000J0D01*
G01*
G37*
G36*
G01*
X134599000Y-90215000D02*
X135149000Y-90215000D01*
G75*
G02*
X135349000Y-90415000I0J-200000D01*
G01*
X135349000Y-90815000D01*
G75*
G02*
X135149000Y-91015000I-200000J0D01*
G01*
X134599000Y-91015000D01*
G75*
G02*
X134399000Y-90815000I0J200000D01*
G01*
X134399000Y-90415000D01*
G75*
G02*
X134599000Y-90215000I200000J0D01*
G01*
G37*
G36*
G01*
X146833000Y-89554000D02*
X146283000Y-89554000D01*
G75*
G02*
X146083000Y-89354000I0J200000D01*
G01*
X146083000Y-88954000D01*
G75*
G02*
X146283000Y-88754000I200000J0D01*
G01*
X146833000Y-88754000D01*
G75*
G02*
X147033000Y-88954000I0J-200000D01*
G01*
X147033000Y-89354000D01*
G75*
G02*
X146833000Y-89554000I-200000J0D01*
G01*
G37*
G36*
G01*
X146833000Y-91204000D02*
X146283000Y-91204000D01*
G75*
G02*
X146083000Y-91004000I0J200000D01*
G01*
X146083000Y-90604000D01*
G75*
G02*
X146283000Y-90404000I200000J0D01*
G01*
X146833000Y-90404000D01*
G75*
G02*
X147033000Y-90604000I0J-200000D01*
G01*
X147033000Y-91004000D01*
G75*
G02*
X146833000Y-91204000I-200000J0D01*
G01*
G37*
G36*
G01*
X134876250Y-85502000D02*
X134363750Y-85502000D01*
G75*
G02*
X134145000Y-85283250I0J218750D01*
G01*
X134145000Y-84845750D01*
G75*
G02*
X134363750Y-84627000I218750J0D01*
G01*
X134876250Y-84627000D01*
G75*
G02*
X135095000Y-84845750I0J-218750D01*
G01*
X135095000Y-85283250D01*
G75*
G02*
X134876250Y-85502000I-218750J0D01*
G01*
G37*
G36*
G01*
X134876250Y-87077000D02*
X134363750Y-87077000D01*
G75*
G02*
X134145000Y-86858250I0J218750D01*
G01*
X134145000Y-86420750D01*
G75*
G02*
X134363750Y-86202000I218750J0D01*
G01*
X134876250Y-86202000D01*
G75*
G02*
X135095000Y-86420750I0J-218750D01*
G01*
X135095000Y-86858250D01*
G75*
G02*
X134876250Y-87077000I-218750J0D01*
G01*
G37*
G36*
G01*
X143761750Y-73502000D02*
X144274250Y-73502000D01*
G75*
G02*
X144493000Y-73720750I0J-218750D01*
G01*
X144493000Y-74158250D01*
G75*
G02*
X144274250Y-74377000I-218750J0D01*
G01*
X143761750Y-74377000D01*
G75*
G02*
X143543000Y-74158250I0J218750D01*
G01*
X143543000Y-73720750D01*
G75*
G02*
X143761750Y-73502000I218750J0D01*
G01*
G37*
G36*
G01*
X143761750Y-71927000D02*
X144274250Y-71927000D01*
G75*
G02*
X144493000Y-72145750I0J-218750D01*
G01*
X144493000Y-72583250D01*
G75*
G02*
X144274250Y-72802000I-218750J0D01*
G01*
X143761750Y-72802000D01*
G75*
G02*
X143543000Y-72583250I0J218750D01*
G01*
X143543000Y-72145750D01*
G75*
G02*
X143761750Y-71927000I218750J0D01*
G01*
G37*
G36*
G01*
X136394000Y-85527000D02*
X135894000Y-85527000D01*
G75*
G02*
X135669000Y-85302000I0J225000D01*
G01*
X135669000Y-84852000D01*
G75*
G02*
X135894000Y-84627000I225000J0D01*
G01*
X136394000Y-84627000D01*
G75*
G02*
X136619000Y-84852000I0J-225000D01*
G01*
X136619000Y-85302000D01*
G75*
G02*
X136394000Y-85527000I-225000J0D01*
G01*
G37*
G36*
G01*
X136394000Y-87077000D02*
X135894000Y-87077000D01*
G75*
G02*
X135669000Y-86852000I0J225000D01*
G01*
X135669000Y-86402000D01*
G75*
G02*
X135894000Y-86177000I225000J0D01*
G01*
X136394000Y-86177000D01*
G75*
G02*
X136619000Y-86402000I0J-225000D01*
G01*
X136619000Y-86852000D01*
G75*
G02*
X136394000Y-87077000I-225000J0D01*
G01*
G37*
G36*
G01*
X137918000Y-85527000D02*
X137418000Y-85527000D01*
G75*
G02*
X137193000Y-85302000I0J225000D01*
G01*
X137193000Y-84852000D01*
G75*
G02*
X137418000Y-84627000I225000J0D01*
G01*
X137918000Y-84627000D01*
G75*
G02*
X138143000Y-84852000I0J-225000D01*
G01*
X138143000Y-85302000D01*
G75*
G02*
X137918000Y-85527000I-225000J0D01*
G01*
G37*
G36*
G01*
X137918000Y-87077000D02*
X137418000Y-87077000D01*
G75*
G02*
X137193000Y-86852000I0J225000D01*
G01*
X137193000Y-86402000D01*
G75*
G02*
X137418000Y-86177000I225000J0D01*
G01*
X137918000Y-86177000D01*
G75*
G02*
X138143000Y-86402000I0J-225000D01*
G01*
X138143000Y-86852000D01*
G75*
G02*
X137918000Y-87077000I-225000J0D01*
G01*
G37*
G36*
G01*
X140720000Y-73477000D02*
X141220000Y-73477000D01*
G75*
G02*
X141445000Y-73702000I0J-225000D01*
G01*
X141445000Y-74152000D01*
G75*
G02*
X141220000Y-74377000I-225000J0D01*
G01*
X140720000Y-74377000D01*
G75*
G02*
X140495000Y-74152000I0J225000D01*
G01*
X140495000Y-73702000D01*
G75*
G02*
X140720000Y-73477000I225000J0D01*
G01*
G37*
G36*
G01*
X140720000Y-71927000D02*
X141220000Y-71927000D01*
G75*
G02*
X141445000Y-72152000I0J-225000D01*
G01*
X141445000Y-72602000D01*
G75*
G02*
X141220000Y-72827000I-225000J0D01*
G01*
X140720000Y-72827000D01*
G75*
G02*
X140495000Y-72602000I0J225000D01*
G01*
X140495000Y-72152000D01*
G75*
G02*
X140720000Y-71927000I225000J0D01*
G01*
G37*
G36*
G01*
X133533000Y-73918000D02*
X133533000Y-74418000D01*
G75*
G02*
X133308000Y-74643000I-225000J0D01*
G01*
X132858000Y-74643000D01*
G75*
G02*
X132633000Y-74418000I0J225000D01*
G01*
X132633000Y-73918000D01*
G75*
G02*
X132858000Y-73693000I225000J0D01*
G01*
X133308000Y-73693000D01*
G75*
G02*
X133533000Y-73918000I0J-225000D01*
G01*
G37*
G36*
G01*
X135083000Y-73918000D02*
X135083000Y-74418000D01*
G75*
G02*
X134858000Y-74643000I-225000J0D01*
G01*
X134408000Y-74643000D01*
G75*
G02*
X134183000Y-74418000I0J225000D01*
G01*
X134183000Y-73918000D01*
G75*
G02*
X134408000Y-73693000I225000J0D01*
G01*
X134858000Y-73693000D01*
G75*
G02*
X135083000Y-73918000I0J-225000D01*
G01*
G37*
G36*
G01*
X142244000Y-73477000D02*
X142744000Y-73477000D01*
G75*
G02*
X142969000Y-73702000I0J-225000D01*
G01*
X142969000Y-74152000D01*
G75*
G02*
X142744000Y-74377000I-225000J0D01*
G01*
X142244000Y-74377000D01*
G75*
G02*
X142019000Y-74152000I0J225000D01*
G01*
X142019000Y-73702000D01*
G75*
G02*
X142244000Y-73477000I225000J0D01*
G01*
G37*
G36*
G01*
X142244000Y-71927000D02*
X142744000Y-71927000D01*
G75*
G02*
X142969000Y-72152000I0J-225000D01*
G01*
X142969000Y-72602000D01*
G75*
G02*
X142744000Y-72827000I-225000J0D01*
G01*
X142244000Y-72827000D01*
G75*
G02*
X142019000Y-72602000I0J225000D01*
G01*
X142019000Y-72152000D01*
G75*
G02*
X142244000Y-71927000I225000J0D01*
G01*
G37*
G36*
G01*
X133533000Y-76966000D02*
X133533000Y-77466000D01*
G75*
G02*
X133308000Y-77691000I-225000J0D01*
G01*
X132858000Y-77691000D01*
G75*
G02*
X132633000Y-77466000I0J225000D01*
G01*
X132633000Y-76966000D01*
G75*
G02*
X132858000Y-76741000I225000J0D01*
G01*
X133308000Y-76741000D01*
G75*
G02*
X133533000Y-76966000I0J-225000D01*
G01*
G37*
G36*
G01*
X135083000Y-76966000D02*
X135083000Y-77466000D01*
G75*
G02*
X134858000Y-77691000I-225000J0D01*
G01*
X134408000Y-77691000D01*
G75*
G02*
X134183000Y-77466000I0J225000D01*
G01*
X134183000Y-76966000D01*
G75*
G02*
X134408000Y-76741000I225000J0D01*
G01*
X134858000Y-76741000D01*
G75*
G02*
X135083000Y-76966000I0J-225000D01*
G01*
G37*
G36*
G01*
X133533000Y-78490000D02*
X133533000Y-78990000D01*
G75*
G02*
X133308000Y-79215000I-225000J0D01*
G01*
X132858000Y-79215000D01*
G75*
G02*
X132633000Y-78990000I0J225000D01*
G01*
X132633000Y-78490000D01*
G75*
G02*
X132858000Y-78265000I225000J0D01*
G01*
X133308000Y-78265000D01*
G75*
G02*
X133533000Y-78490000I0J-225000D01*
G01*
G37*
G36*
G01*
X135083000Y-78490000D02*
X135083000Y-78990000D01*
G75*
G02*
X134858000Y-79215000I-225000J0D01*
G01*
X134408000Y-79215000D01*
G75*
G02*
X134183000Y-78990000I0J225000D01*
G01*
X134183000Y-78490000D01*
G75*
G02*
X134408000Y-78265000I225000J0D01*
G01*
X134858000Y-78265000D01*
G75*
G02*
X135083000Y-78490000I0J-225000D01*
G01*
G37*
G36*
G01*
X133533000Y-75442000D02*
X133533000Y-75942000D01*
G75*
G02*
X133308000Y-76167000I-225000J0D01*
G01*
X132858000Y-76167000D01*
G75*
G02*
X132633000Y-75942000I0J225000D01*
G01*
X132633000Y-75442000D01*
G75*
G02*
X132858000Y-75217000I225000J0D01*
G01*
X133308000Y-75217000D01*
G75*
G02*
X133533000Y-75442000I0J-225000D01*
G01*
G37*
G36*
G01*
X135083000Y-75442000D02*
X135083000Y-75942000D01*
G75*
G02*
X134858000Y-76167000I-225000J0D01*
G01*
X134408000Y-76167000D01*
G75*
G02*
X134183000Y-75942000I0J225000D01*
G01*
X134183000Y-75442000D01*
G75*
G02*
X134408000Y-75217000I225000J0D01*
G01*
X134858000Y-75217000D01*
G75*
G02*
X135083000Y-75442000I0J-225000D01*
G01*
G37*
G36*
G01*
X131314000Y-82987000D02*
X130814000Y-82987000D01*
G75*
G02*
X130589000Y-82762000I0J225000D01*
G01*
X130589000Y-82312000D01*
G75*
G02*
X130814000Y-82087000I225000J0D01*
G01*
X131314000Y-82087000D01*
G75*
G02*
X131539000Y-82312000I0J-225000D01*
G01*
X131539000Y-82762000D01*
G75*
G02*
X131314000Y-82987000I-225000J0D01*
G01*
G37*
G36*
G01*
X131314000Y-84537000D02*
X130814000Y-84537000D01*
G75*
G02*
X130589000Y-84312000I0J225000D01*
G01*
X130589000Y-83862000D01*
G75*
G02*
X130814000Y-83637000I225000J0D01*
G01*
X131314000Y-83637000D01*
G75*
G02*
X131539000Y-83862000I0J-225000D01*
G01*
X131539000Y-84312000D01*
G75*
G02*
X131314000Y-84537000I-225000J0D01*
G01*
G37*
G36*
G01*
X130814000Y-80602000D02*
X131314000Y-80602000D01*
G75*
G02*
X131539000Y-80827000I0J-225000D01*
G01*
X131539000Y-81277000D01*
G75*
G02*
X131314000Y-81502000I-225000J0D01*
G01*
X130814000Y-81502000D01*
G75*
G02*
X130589000Y-81277000I0J225000D01*
G01*
X130589000Y-80827000D01*
G75*
G02*
X130814000Y-80602000I225000J0D01*
G01*
G37*
G36*
G01*
X130814000Y-79052000D02*
X131314000Y-79052000D01*
G75*
G02*
X131539000Y-79277000I0J-225000D01*
G01*
X131539000Y-79727000D01*
G75*
G02*
X131314000Y-79952000I-225000J0D01*
G01*
X130814000Y-79952000D01*
G75*
G02*
X130589000Y-79727000I0J225000D01*
G01*
X130589000Y-79277000D01*
G75*
G02*
X130814000Y-79052000I225000J0D01*
G01*
G37*
G36*
G01*
X136648000Y-72827000D02*
X136148000Y-72827000D01*
G75*
G02*
X135923000Y-72602000I0J225000D01*
G01*
X135923000Y-72152000D01*
G75*
G02*
X136148000Y-71927000I225000J0D01*
G01*
X136648000Y-71927000D01*
G75*
G02*
X136873000Y-72152000I0J-225000D01*
G01*
X136873000Y-72602000D01*
G75*
G02*
X136648000Y-72827000I-225000J0D01*
G01*
G37*
G36*
G01*
X136648000Y-74377000D02*
X136148000Y-74377000D01*
G75*
G02*
X135923000Y-74152000I0J225000D01*
G01*
X135923000Y-73702000D01*
G75*
G02*
X136148000Y-73477000I225000J0D01*
G01*
X136648000Y-73477000D01*
G75*
G02*
X136873000Y-73702000I0J-225000D01*
G01*
X136873000Y-74152000D01*
G75*
G02*
X136648000Y-74377000I-225000J0D01*
G01*
G37*
G36*
G01*
X138172000Y-72840000D02*
X137672000Y-72840000D01*
G75*
G02*
X137447000Y-72615000I0J225000D01*
G01*
X137447000Y-72165000D01*
G75*
G02*
X137672000Y-71940000I225000J0D01*
G01*
X138172000Y-71940000D01*
G75*
G02*
X138397000Y-72165000I0J-225000D01*
G01*
X138397000Y-72615000D01*
G75*
G02*
X138172000Y-72840000I-225000J0D01*
G01*
G37*
G36*
G01*
X138172000Y-74390000D02*
X137672000Y-74390000D01*
G75*
G02*
X137447000Y-74165000I0J225000D01*
G01*
X137447000Y-73715000D01*
G75*
G02*
X137672000Y-73490000I225000J0D01*
G01*
X138172000Y-73490000D01*
G75*
G02*
X138397000Y-73715000I0J-225000D01*
G01*
X138397000Y-74165000D01*
G75*
G02*
X138172000Y-74390000I-225000J0D01*
G01*
G37*
G36*
G01*
X148340000Y-79065000D02*
X148840000Y-79065000D01*
G75*
G02*
X149065000Y-79290000I0J-225000D01*
G01*
X149065000Y-79740000D01*
G75*
G02*
X148840000Y-79965000I-225000J0D01*
G01*
X148340000Y-79965000D01*
G75*
G02*
X148115000Y-79740000I0J225000D01*
G01*
X148115000Y-79290000D01*
G75*
G02*
X148340000Y-79065000I225000J0D01*
G01*
G37*
G36*
G01*
X148340000Y-77515000D02*
X148840000Y-77515000D01*
G75*
G02*
X149065000Y-77740000I0J-225000D01*
G01*
X149065000Y-78190000D01*
G75*
G02*
X148840000Y-78415000I-225000J0D01*
G01*
X148340000Y-78415000D01*
G75*
G02*
X148115000Y-78190000I0J225000D01*
G01*
X148115000Y-77740000D01*
G75*
G02*
X148340000Y-77515000I225000J0D01*
G01*
G37*
G36*
G01*
X171125000Y-54995000D02*
X171125000Y-55495000D01*
G75*
G02*
X170900000Y-55720000I-225000J0D01*
G01*
X170450000Y-55720000D01*
G75*
G02*
X170225000Y-55495000I0J225000D01*
G01*
X170225000Y-54995000D01*
G75*
G02*
X170450000Y-54770000I225000J0D01*
G01*
X170900000Y-54770000D01*
G75*
G02*
X171125000Y-54995000I0J-225000D01*
G01*
G37*
G36*
G01*
X172675000Y-54995000D02*
X172675000Y-55495000D01*
G75*
G02*
X172450000Y-55720000I-225000J0D01*
G01*
X172000000Y-55720000D01*
G75*
G02*
X171775000Y-55495000I0J225000D01*
G01*
X171775000Y-54995000D01*
G75*
G02*
X172000000Y-54770000I225000J0D01*
G01*
X172450000Y-54770000D01*
G75*
G02*
X172675000Y-54995000I0J-225000D01*
G01*
G37*
G36*
G01*
X163953000Y-80574000D02*
X163453000Y-80574000D01*
G75*
G02*
X163228000Y-80349000I0J225000D01*
G01*
X163228000Y-79899000D01*
G75*
G02*
X163453000Y-79674000I225000J0D01*
G01*
X163953000Y-79674000D01*
G75*
G02*
X164178000Y-79899000I0J-225000D01*
G01*
X164178000Y-80349000D01*
G75*
G02*
X163953000Y-80574000I-225000J0D01*
G01*
G37*
G36*
G01*
X163953000Y-82124000D02*
X163453000Y-82124000D01*
G75*
G02*
X163228000Y-81899000I0J225000D01*
G01*
X163228000Y-81449000D01*
G75*
G02*
X163453000Y-81224000I225000J0D01*
G01*
X163953000Y-81224000D01*
G75*
G02*
X164178000Y-81449000I0J-225000D01*
G01*
X164178000Y-81899000D01*
G75*
G02*
X163953000Y-82124000I-225000J0D01*
G01*
G37*
G36*
G01*
X177161000Y-64826000D02*
X176661000Y-64826000D01*
G75*
G02*
X176436000Y-64601000I0J225000D01*
G01*
X176436000Y-64151000D01*
G75*
G02*
X176661000Y-63926000I225000J0D01*
G01*
X177161000Y-63926000D01*
G75*
G02*
X177386000Y-64151000I0J-225000D01*
G01*
X177386000Y-64601000D01*
G75*
G02*
X177161000Y-64826000I-225000J0D01*
G01*
G37*
G36*
G01*
X177161000Y-66376000D02*
X176661000Y-66376000D01*
G75*
G02*
X176436000Y-66151000I0J225000D01*
G01*
X176436000Y-65701000D01*
G75*
G02*
X176661000Y-65476000I225000J0D01*
G01*
X177161000Y-65476000D01*
G75*
G02*
X177386000Y-65701000I0J-225000D01*
G01*
X177386000Y-66151000D01*
G75*
G02*
X177161000Y-66376000I-225000J0D01*
G01*
G37*
G36*
G01*
X152269000Y-69398000D02*
X151769000Y-69398000D01*
G75*
G02*
X151544000Y-69173000I0J225000D01*
G01*
X151544000Y-68723000D01*
G75*
G02*
X151769000Y-68498000I225000J0D01*
G01*
X152269000Y-68498000D01*
G75*
G02*
X152494000Y-68723000I0J-225000D01*
G01*
X152494000Y-69173000D01*
G75*
G02*
X152269000Y-69398000I-225000J0D01*
G01*
G37*
G36*
G01*
X152269000Y-70948000D02*
X151769000Y-70948000D01*
G75*
G02*
X151544000Y-70723000I0J225000D01*
G01*
X151544000Y-70273000D01*
G75*
G02*
X151769000Y-70048000I225000J0D01*
G01*
X152269000Y-70048000D01*
G75*
G02*
X152494000Y-70273000I0J-225000D01*
G01*
X152494000Y-70723000D01*
G75*
G02*
X152269000Y-70948000I-225000J0D01*
G01*
G37*
G36*
G01*
X150832000Y-73766000D02*
X150832000Y-74316000D01*
G75*
G02*
X150632000Y-74516000I-200000J0D01*
G01*
X150232000Y-74516000D01*
G75*
G02*
X150032000Y-74316000I0J200000D01*
G01*
X150032000Y-73766000D01*
G75*
G02*
X150232000Y-73566000I200000J0D01*
G01*
X150632000Y-73566000D01*
G75*
G02*
X150832000Y-73766000I0J-200000D01*
G01*
G37*
G36*
G01*
X152482000Y-73766000D02*
X152482000Y-74316000D01*
G75*
G02*
X152282000Y-74516000I-200000J0D01*
G01*
X151882000Y-74516000D01*
G75*
G02*
X151682000Y-74316000I0J200000D01*
G01*
X151682000Y-73766000D01*
G75*
G02*
X151882000Y-73566000I200000J0D01*
G01*
X152282000Y-73566000D01*
G75*
G02*
X152482000Y-73766000I0J-200000D01*
G01*
G37*
G36*
G01*
X150832000Y-72242000D02*
X150832000Y-72792000D01*
G75*
G02*
X150632000Y-72992000I-200000J0D01*
G01*
X150232000Y-72992000D01*
G75*
G02*
X150032000Y-72792000I0J200000D01*
G01*
X150032000Y-72242000D01*
G75*
G02*
X150232000Y-72042000I200000J0D01*
G01*
X150632000Y-72042000D01*
G75*
G02*
X150832000Y-72242000I0J-200000D01*
G01*
G37*
G36*
G01*
X152482000Y-72242000D02*
X152482000Y-72792000D01*
G75*
G02*
X152282000Y-72992000I-200000J0D01*
G01*
X151882000Y-72992000D01*
G75*
G02*
X151682000Y-72792000I0J200000D01*
G01*
X151682000Y-72242000D01*
G75*
G02*
X151882000Y-72042000I200000J0D01*
G01*
X152282000Y-72042000D01*
G75*
G02*
X152482000Y-72242000I0J-200000D01*
G01*
G37*
G36*
G01*
X158373000Y-53258000D02*
X158873000Y-53258000D01*
G75*
G02*
X159098000Y-53483000I0J-225000D01*
G01*
X159098000Y-53933000D01*
G75*
G02*
X158873000Y-54158000I-225000J0D01*
G01*
X158373000Y-54158000D01*
G75*
G02*
X158148000Y-53933000I0J225000D01*
G01*
X158148000Y-53483000D01*
G75*
G02*
X158373000Y-53258000I225000J0D01*
G01*
G37*
G36*
G01*
X158373000Y-54808000D02*
X158873000Y-54808000D01*
G75*
G02*
X159098000Y-55033000I0J-225000D01*
G01*
X159098000Y-55483000D01*
G75*
G02*
X158873000Y-55708000I-225000J0D01*
G01*
X158373000Y-55708000D01*
G75*
G02*
X158148000Y-55483000I0J225000D01*
G01*
X158148000Y-55033000D01*
G75*
G02*
X158373000Y-54808000I225000J0D01*
G01*
G37*
G36*
G01*
X177475000Y-69092000D02*
X177475000Y-69592000D01*
G75*
G02*
X177250000Y-69817000I-225000J0D01*
G01*
X176800000Y-69817000D01*
G75*
G02*
X176575000Y-69592000I0J225000D01*
G01*
X176575000Y-69092000D01*
G75*
G02*
X176800000Y-68867000I225000J0D01*
G01*
X177250000Y-68867000D01*
G75*
G02*
X177475000Y-69092000I0J-225000D01*
G01*
G37*
G36*
G01*
X179025000Y-69092000D02*
X179025000Y-69592000D01*
G75*
G02*
X178800000Y-69817000I-225000J0D01*
G01*
X178350000Y-69817000D01*
G75*
G02*
X178125000Y-69592000I0J225000D01*
G01*
X178125000Y-69092000D01*
G75*
G02*
X178350000Y-68867000I225000J0D01*
G01*
X178800000Y-68867000D01*
G75*
G02*
X179025000Y-69092000I0J-225000D01*
G01*
G37*
G36*
G01*
X151769000Y-63063000D02*
X152269000Y-63063000D01*
G75*
G02*
X152494000Y-63288000I0J-225000D01*
G01*
X152494000Y-63738000D01*
G75*
G02*
X152269000Y-63963000I-225000J0D01*
G01*
X151769000Y-63963000D01*
G75*
G02*
X151544000Y-63738000I0J225000D01*
G01*
X151544000Y-63288000D01*
G75*
G02*
X151769000Y-63063000I225000J0D01*
G01*
G37*
G36*
G01*
X151769000Y-61513000D02*
X152269000Y-61513000D01*
G75*
G02*
X152494000Y-61738000I0J-225000D01*
G01*
X152494000Y-62188000D01*
G75*
G02*
X152269000Y-62413000I-225000J0D01*
G01*
X151769000Y-62413000D01*
G75*
G02*
X151544000Y-62188000I0J225000D01*
G01*
X151544000Y-61738000D01*
G75*
G02*
X151769000Y-61513000I225000J0D01*
G01*
G37*
G36*
G01*
X171447750Y-81376000D02*
X171960250Y-81376000D01*
G75*
G02*
X172179000Y-81594750I0J-218750D01*
G01*
X172179000Y-82032250D01*
G75*
G02*
X171960250Y-82251000I-218750J0D01*
G01*
X171447750Y-82251000D01*
G75*
G02*
X171229000Y-82032250I0J218750D01*
G01*
X171229000Y-81594750D01*
G75*
G02*
X171447750Y-81376000I218750J0D01*
G01*
G37*
G36*
G01*
X171447750Y-79801000D02*
X171960250Y-79801000D01*
G75*
G02*
X172179000Y-80019750I0J-218750D01*
G01*
X172179000Y-80457250D01*
G75*
G02*
X171960250Y-80676000I-218750J0D01*
G01*
X171447750Y-80676000D01*
G75*
G02*
X171229000Y-80457250I0J218750D01*
G01*
X171229000Y-80019750D01*
G75*
G02*
X171447750Y-79801000I218750J0D01*
G01*
G37*
G36*
G01*
X172978000Y-81351000D02*
X173478000Y-81351000D01*
G75*
G02*
X173703000Y-81576000I0J-225000D01*
G01*
X173703000Y-82026000D01*
G75*
G02*
X173478000Y-82251000I-225000J0D01*
G01*
X172978000Y-82251000D01*
G75*
G02*
X172753000Y-82026000I0J225000D01*
G01*
X172753000Y-81576000D01*
G75*
G02*
X172978000Y-81351000I225000J0D01*
G01*
G37*
G36*
G01*
X172978000Y-79801000D02*
X173478000Y-79801000D01*
G75*
G02*
X173703000Y-80026000I0J-225000D01*
G01*
X173703000Y-80476000D01*
G75*
G02*
X173478000Y-80701000I-225000J0D01*
G01*
X172978000Y-80701000D01*
G75*
G02*
X172753000Y-80476000I0J225000D01*
G01*
X172753000Y-80026000D01*
G75*
G02*
X172978000Y-79801000I225000J0D01*
G01*
G37*
G36*
G01*
X172791000Y-83562000D02*
X172791000Y-83062000D01*
G75*
G02*
X173016000Y-82837000I225000J0D01*
G01*
X173466000Y-82837000D01*
G75*
G02*
X173691000Y-83062000I0J-225000D01*
G01*
X173691000Y-83562000D01*
G75*
G02*
X173466000Y-83787000I-225000J0D01*
G01*
X173016000Y-83787000D01*
G75*
G02*
X172791000Y-83562000I0J225000D01*
G01*
G37*
G36*
G01*
X171241000Y-83562000D02*
X171241000Y-83062000D01*
G75*
G02*
X171466000Y-82837000I225000J0D01*
G01*
X171916000Y-82837000D01*
G75*
G02*
X172141000Y-83062000I0J-225000D01*
G01*
X172141000Y-83562000D01*
G75*
G02*
X171916000Y-83787000I-225000J0D01*
G01*
X171466000Y-83787000D01*
G75*
G02*
X171241000Y-83562000I0J225000D01*
G01*
G37*
G36*
G01*
X164977000Y-81224000D02*
X165477000Y-81224000D01*
G75*
G02*
X165702000Y-81449000I0J-225000D01*
G01*
X165702000Y-81899000D01*
G75*
G02*
X165477000Y-82124000I-225000J0D01*
G01*
X164977000Y-82124000D01*
G75*
G02*
X164752000Y-81899000I0J225000D01*
G01*
X164752000Y-81449000D01*
G75*
G02*
X164977000Y-81224000I225000J0D01*
G01*
G37*
G36*
G01*
X164977000Y-79674000D02*
X165477000Y-79674000D01*
G75*
G02*
X165702000Y-79899000I0J-225000D01*
G01*
X165702000Y-80349000D01*
G75*
G02*
X165477000Y-80574000I-225000J0D01*
G01*
X164977000Y-80574000D01*
G75*
G02*
X164752000Y-80349000I0J225000D01*
G01*
X164752000Y-79899000D01*
G75*
G02*
X164977000Y-79674000I225000J0D01*
G01*
G37*
G36*
G01*
X151769000Y-67000000D02*
X152269000Y-67000000D01*
G75*
G02*
X152494000Y-67225000I0J-225000D01*
G01*
X152494000Y-67675000D01*
G75*
G02*
X152269000Y-67900000I-225000J0D01*
G01*
X151769000Y-67900000D01*
G75*
G02*
X151544000Y-67675000I0J225000D01*
G01*
X151544000Y-67225000D01*
G75*
G02*
X151769000Y-67000000I225000J0D01*
G01*
G37*
G36*
G01*
X151769000Y-65450000D02*
X152269000Y-65450000D01*
G75*
G02*
X152494000Y-65675000I0J-225000D01*
G01*
X152494000Y-66125000D01*
G75*
G02*
X152269000Y-66350000I-225000J0D01*
G01*
X151769000Y-66350000D01*
G75*
G02*
X151544000Y-66125000I0J225000D01*
G01*
X151544000Y-65675000D01*
G75*
G02*
X151769000Y-65450000I225000J0D01*
G01*
G37*
G36*
G01*
X176661000Y-76525000D02*
X177161000Y-76525000D01*
G75*
G02*
X177386000Y-76750000I0J-225000D01*
G01*
X177386000Y-77200000D01*
G75*
G02*
X177161000Y-77425000I-225000J0D01*
G01*
X176661000Y-77425000D01*
G75*
G02*
X176436000Y-77200000I0J225000D01*
G01*
X176436000Y-76750000D01*
G75*
G02*
X176661000Y-76525000I225000J0D01*
G01*
G37*
G36*
G01*
X176661000Y-74975000D02*
X177161000Y-74975000D01*
G75*
G02*
X177386000Y-75200000I0J-225000D01*
G01*
X177386000Y-75650000D01*
G75*
G02*
X177161000Y-75875000I-225000J0D01*
G01*
X176661000Y-75875000D01*
G75*
G02*
X176436000Y-75650000I0J225000D01*
G01*
X176436000Y-75200000D01*
G75*
G02*
X176661000Y-74975000I225000J0D01*
G01*
G37*
G36*
G01*
X161234000Y-55495000D02*
X161234000Y-54995000D01*
G75*
G02*
X161459000Y-54770000I225000J0D01*
G01*
X161909000Y-54770000D01*
G75*
G02*
X162134000Y-54995000I0J-225000D01*
G01*
X162134000Y-55495000D01*
G75*
G02*
X161909000Y-55720000I-225000J0D01*
G01*
X161459000Y-55720000D01*
G75*
G02*
X161234000Y-55495000I0J225000D01*
G01*
G37*
G36*
G01*
X159684000Y-55495000D02*
X159684000Y-54995000D01*
G75*
G02*
X159909000Y-54770000I225000J0D01*
G01*
X160359000Y-54770000D01*
G75*
G02*
X160584000Y-54995000I0J-225000D01*
G01*
X160584000Y-55495000D01*
G75*
G02*
X160359000Y-55720000I-225000J0D01*
G01*
X159909000Y-55720000D01*
G75*
G02*
X159684000Y-55495000I0J225000D01*
G01*
G37*
G36*
G01*
X133787000Y-87888000D02*
X133787000Y-88388000D01*
G75*
G02*
X133562000Y-88613000I-225000J0D01*
G01*
X133112000Y-88613000D01*
G75*
G02*
X132887000Y-88388000I0J225000D01*
G01*
X132887000Y-87888000D01*
G75*
G02*
X133112000Y-87663000I225000J0D01*
G01*
X133562000Y-87663000D01*
G75*
G02*
X133787000Y-87888000I0J-225000D01*
G01*
G37*
G36*
G01*
X135337000Y-87888000D02*
X135337000Y-88388000D01*
G75*
G02*
X135112000Y-88613000I-225000J0D01*
G01*
X134662000Y-88613000D01*
G75*
G02*
X134437000Y-88388000I0J225000D01*
G01*
X134437000Y-87888000D01*
G75*
G02*
X134662000Y-87663000I225000J0D01*
G01*
X135112000Y-87663000D01*
G75*
G02*
X135337000Y-87888000I0J-225000D01*
G01*
G37*
D19*
X126576000Y-75758000D03*
X126576000Y-77658000D03*
X124376000Y-77658000D03*
X124376000Y-76708000D03*
X124376000Y-75758000D03*
G36*
G01*
X128187000Y-74316000D02*
X128187000Y-73766000D01*
G75*
G02*
X128387000Y-73566000I200000J0D01*
G01*
X128787000Y-73566000D01*
G75*
G02*
X128987000Y-73766000I0J-200000D01*
G01*
X128987000Y-74316000D01*
G75*
G02*
X128787000Y-74516000I-200000J0D01*
G01*
X128387000Y-74516000D01*
G75*
G02*
X128187000Y-74316000I0J200000D01*
G01*
G37*
G36*
G01*
X126537000Y-74316000D02*
X126537000Y-73766000D01*
G75*
G02*
X126737000Y-73566000I200000J0D01*
G01*
X127137000Y-73566000D01*
G75*
G02*
X127337000Y-73766000I0J-200000D01*
G01*
X127337000Y-74316000D01*
G75*
G02*
X127137000Y-74516000I-200000J0D01*
G01*
X126737000Y-74516000D01*
G75*
G02*
X126537000Y-74316000I0J200000D01*
G01*
G37*
G36*
G01*
X125139000Y-74316000D02*
X125139000Y-73766000D01*
G75*
G02*
X125339000Y-73566000I200000J0D01*
G01*
X125739000Y-73566000D01*
G75*
G02*
X125939000Y-73766000I0J-200000D01*
G01*
X125939000Y-74316000D01*
G75*
G02*
X125739000Y-74516000I-200000J0D01*
G01*
X125339000Y-74516000D01*
G75*
G02*
X125139000Y-74316000I0J200000D01*
G01*
G37*
G36*
G01*
X123489000Y-74316000D02*
X123489000Y-73766000D01*
G75*
G02*
X123689000Y-73566000I200000J0D01*
G01*
X124089000Y-73566000D01*
G75*
G02*
X124289000Y-73766000I0J-200000D01*
G01*
X124289000Y-74316000D01*
G75*
G02*
X124089000Y-74516000I-200000J0D01*
G01*
X123689000Y-74516000D01*
G75*
G02*
X123489000Y-74316000I0J200000D01*
G01*
G37*
G36*
G01*
X125380000Y-79118750D02*
X125380000Y-79631250D01*
G75*
G02*
X125161250Y-79850000I-218750J0D01*
G01*
X124723750Y-79850000D01*
G75*
G02*
X124505000Y-79631250I0J218750D01*
G01*
X124505000Y-79118750D01*
G75*
G02*
X124723750Y-78900000I218750J0D01*
G01*
X125161250Y-78900000D01*
G75*
G02*
X125380000Y-79118750I0J-218750D01*
G01*
G37*
G36*
G01*
X126955000Y-79118750D02*
X126955000Y-79631250D01*
G75*
G02*
X126736250Y-79850000I-218750J0D01*
G01*
X126298750Y-79850000D01*
G75*
G02*
X126080000Y-79631250I0J218750D01*
G01*
X126080000Y-79118750D01*
G75*
G02*
X126298750Y-78900000I218750J0D01*
G01*
X126736250Y-78900000D01*
G75*
G02*
X126955000Y-79118750I0J-218750D01*
G01*
G37*
G36*
G01*
X119884000Y-76510000D02*
X119384000Y-76510000D01*
G75*
G02*
X119159000Y-76285000I0J225000D01*
G01*
X119159000Y-75835000D01*
G75*
G02*
X119384000Y-75610000I225000J0D01*
G01*
X119884000Y-75610000D01*
G75*
G02*
X120109000Y-75835000I0J-225000D01*
G01*
X120109000Y-76285000D01*
G75*
G02*
X119884000Y-76510000I-225000J0D01*
G01*
G37*
G36*
G01*
X119884000Y-78060000D02*
X119384000Y-78060000D01*
G75*
G02*
X119159000Y-77835000I0J225000D01*
G01*
X119159000Y-77385000D01*
G75*
G02*
X119384000Y-77160000I225000J0D01*
G01*
X119884000Y-77160000D01*
G75*
G02*
X120109000Y-77385000I0J-225000D01*
G01*
X120109000Y-77835000D01*
G75*
G02*
X119884000Y-78060000I-225000J0D01*
G01*
G37*
G36*
G01*
X122932000Y-76510000D02*
X122432000Y-76510000D01*
G75*
G02*
X122207000Y-76285000I0J225000D01*
G01*
X122207000Y-75835000D01*
G75*
G02*
X122432000Y-75610000I225000J0D01*
G01*
X122932000Y-75610000D01*
G75*
G02*
X123157000Y-75835000I0J-225000D01*
G01*
X123157000Y-76285000D01*
G75*
G02*
X122932000Y-76510000I-225000J0D01*
G01*
G37*
G36*
G01*
X122932000Y-78060000D02*
X122432000Y-78060000D01*
G75*
G02*
X122207000Y-77835000I0J225000D01*
G01*
X122207000Y-77385000D01*
G75*
G02*
X122432000Y-77160000I225000J0D01*
G01*
X122932000Y-77160000D01*
G75*
G02*
X123157000Y-77385000I0J-225000D01*
G01*
X123157000Y-77835000D01*
G75*
G02*
X122932000Y-78060000I-225000J0D01*
G01*
G37*
G36*
G01*
X121408000Y-76510000D02*
X120908000Y-76510000D01*
G75*
G02*
X120683000Y-76285000I0J225000D01*
G01*
X120683000Y-75835000D01*
G75*
G02*
X120908000Y-75610000I225000J0D01*
G01*
X121408000Y-75610000D01*
G75*
G02*
X121633000Y-75835000I0J-225000D01*
G01*
X121633000Y-76285000D01*
G75*
G02*
X121408000Y-76510000I-225000J0D01*
G01*
G37*
G36*
G01*
X121408000Y-78060000D02*
X120908000Y-78060000D01*
G75*
G02*
X120683000Y-77835000I0J225000D01*
G01*
X120683000Y-77385000D01*
G75*
G02*
X120908000Y-77160000I225000J0D01*
G01*
X121408000Y-77160000D01*
G75*
G02*
X121633000Y-77385000I0J-225000D01*
G01*
X121633000Y-77835000D01*
G75*
G02*
X121408000Y-78060000I-225000J0D01*
G01*
G37*
G36*
G01*
X128520000Y-76510000D02*
X128020000Y-76510000D01*
G75*
G02*
X127795000Y-76285000I0J225000D01*
G01*
X127795000Y-75835000D01*
G75*
G02*
X128020000Y-75610000I225000J0D01*
G01*
X128520000Y-75610000D01*
G75*
G02*
X128745000Y-75835000I0J-225000D01*
G01*
X128745000Y-76285000D01*
G75*
G02*
X128520000Y-76510000I-225000J0D01*
G01*
G37*
G36*
G01*
X128520000Y-78060000D02*
X128020000Y-78060000D01*
G75*
G02*
X127795000Y-77835000I0J225000D01*
G01*
X127795000Y-77385000D01*
G75*
G02*
X128020000Y-77160000I225000J0D01*
G01*
X128520000Y-77160000D01*
G75*
G02*
X128745000Y-77385000I0J-225000D01*
G01*
X128745000Y-77835000D01*
G75*
G02*
X128520000Y-78060000I-225000J0D01*
G01*
G37*
X126703000Y-84243000D03*
X126703000Y-86143000D03*
X124503000Y-86143000D03*
X124503000Y-85193000D03*
X124503000Y-84243000D03*
G36*
G01*
X128314000Y-82825000D02*
X128314000Y-82275000D01*
G75*
G02*
X128514000Y-82075000I200000J0D01*
G01*
X128914000Y-82075000D01*
G75*
G02*
X129114000Y-82275000I0J-200000D01*
G01*
X129114000Y-82825000D01*
G75*
G02*
X128914000Y-83025000I-200000J0D01*
G01*
X128514000Y-83025000D01*
G75*
G02*
X128314000Y-82825000I0J200000D01*
G01*
G37*
G36*
G01*
X126664000Y-82825000D02*
X126664000Y-82275000D01*
G75*
G02*
X126864000Y-82075000I200000J0D01*
G01*
X127264000Y-82075000D01*
G75*
G02*
X127464000Y-82275000I0J-200000D01*
G01*
X127464000Y-82825000D01*
G75*
G02*
X127264000Y-83025000I-200000J0D01*
G01*
X126864000Y-83025000D01*
G75*
G02*
X126664000Y-82825000I0J200000D01*
G01*
G37*
G36*
G01*
X125266000Y-82825000D02*
X125266000Y-82275000D01*
G75*
G02*
X125466000Y-82075000I200000J0D01*
G01*
X125866000Y-82075000D01*
G75*
G02*
X126066000Y-82275000I0J-200000D01*
G01*
X126066000Y-82825000D01*
G75*
G02*
X125866000Y-83025000I-200000J0D01*
G01*
X125466000Y-83025000D01*
G75*
G02*
X125266000Y-82825000I0J200000D01*
G01*
G37*
G36*
G01*
X123616000Y-82825000D02*
X123616000Y-82275000D01*
G75*
G02*
X123816000Y-82075000I200000J0D01*
G01*
X124216000Y-82075000D01*
G75*
G02*
X124416000Y-82275000I0J-200000D01*
G01*
X124416000Y-82825000D01*
G75*
G02*
X124216000Y-83025000I-200000J0D01*
G01*
X123816000Y-83025000D01*
G75*
G02*
X123616000Y-82825000I0J200000D01*
G01*
G37*
G36*
G01*
X125507000Y-87627750D02*
X125507000Y-88140250D01*
G75*
G02*
X125288250Y-88359000I-218750J0D01*
G01*
X124850750Y-88359000D01*
G75*
G02*
X124632000Y-88140250I0J218750D01*
G01*
X124632000Y-87627750D01*
G75*
G02*
X124850750Y-87409000I218750J0D01*
G01*
X125288250Y-87409000D01*
G75*
G02*
X125507000Y-87627750I0J-218750D01*
G01*
G37*
G36*
G01*
X127082000Y-87627750D02*
X127082000Y-88140250D01*
G75*
G02*
X126863250Y-88359000I-218750J0D01*
G01*
X126425750Y-88359000D01*
G75*
G02*
X126207000Y-88140250I0J218750D01*
G01*
X126207000Y-87627750D01*
G75*
G02*
X126425750Y-87409000I218750J0D01*
G01*
X126863250Y-87409000D01*
G75*
G02*
X127082000Y-87627750I0J-218750D01*
G01*
G37*
G36*
G01*
X123059000Y-84892000D02*
X122559000Y-84892000D01*
G75*
G02*
X122334000Y-84667000I0J225000D01*
G01*
X122334000Y-84217000D01*
G75*
G02*
X122559000Y-83992000I225000J0D01*
G01*
X123059000Y-83992000D01*
G75*
G02*
X123284000Y-84217000I0J-225000D01*
G01*
X123284000Y-84667000D01*
G75*
G02*
X123059000Y-84892000I-225000J0D01*
G01*
G37*
G36*
G01*
X123059000Y-86442000D02*
X122559000Y-86442000D01*
G75*
G02*
X122334000Y-86217000I0J225000D01*
G01*
X122334000Y-85767000D01*
G75*
G02*
X122559000Y-85542000I225000J0D01*
G01*
X123059000Y-85542000D01*
G75*
G02*
X123284000Y-85767000I0J-225000D01*
G01*
X123284000Y-86217000D01*
G75*
G02*
X123059000Y-86442000I-225000J0D01*
G01*
G37*
G36*
G01*
X121535000Y-84892000D02*
X121035000Y-84892000D01*
G75*
G02*
X120810000Y-84667000I0J225000D01*
G01*
X120810000Y-84217000D01*
G75*
G02*
X121035000Y-83992000I225000J0D01*
G01*
X121535000Y-83992000D01*
G75*
G02*
X121760000Y-84217000I0J-225000D01*
G01*
X121760000Y-84667000D01*
G75*
G02*
X121535000Y-84892000I-225000J0D01*
G01*
G37*
G36*
G01*
X121535000Y-86442000D02*
X121035000Y-86442000D01*
G75*
G02*
X120810000Y-86217000I0J225000D01*
G01*
X120810000Y-85767000D01*
G75*
G02*
X121035000Y-85542000I225000J0D01*
G01*
X121535000Y-85542000D01*
G75*
G02*
X121760000Y-85767000I0J-225000D01*
G01*
X121760000Y-86217000D01*
G75*
G02*
X121535000Y-86442000I-225000J0D01*
G01*
G37*
X126703000Y-92752000D03*
X126703000Y-94652000D03*
X124503000Y-94652000D03*
X124503000Y-93702000D03*
X124503000Y-92752000D03*
G36*
G01*
X128314000Y-91334000D02*
X128314000Y-90784000D01*
G75*
G02*
X128514000Y-90584000I200000J0D01*
G01*
X128914000Y-90584000D01*
G75*
G02*
X129114000Y-90784000I0J-200000D01*
G01*
X129114000Y-91334000D01*
G75*
G02*
X128914000Y-91534000I-200000J0D01*
G01*
X128514000Y-91534000D01*
G75*
G02*
X128314000Y-91334000I0J200000D01*
G01*
G37*
G36*
G01*
X126664000Y-91334000D02*
X126664000Y-90784000D01*
G75*
G02*
X126864000Y-90584000I200000J0D01*
G01*
X127264000Y-90584000D01*
G75*
G02*
X127464000Y-90784000I0J-200000D01*
G01*
X127464000Y-91334000D01*
G75*
G02*
X127264000Y-91534000I-200000J0D01*
G01*
X126864000Y-91534000D01*
G75*
G02*
X126664000Y-91334000I0J200000D01*
G01*
G37*
G36*
G01*
X125266000Y-91334000D02*
X125266000Y-90784000D01*
G75*
G02*
X125466000Y-90584000I200000J0D01*
G01*
X125866000Y-90584000D01*
G75*
G02*
X126066000Y-90784000I0J-200000D01*
G01*
X126066000Y-91334000D01*
G75*
G02*
X125866000Y-91534000I-200000J0D01*
G01*
X125466000Y-91534000D01*
G75*
G02*
X125266000Y-91334000I0J200000D01*
G01*
G37*
G36*
G01*
X123616000Y-91334000D02*
X123616000Y-90784000D01*
G75*
G02*
X123816000Y-90584000I200000J0D01*
G01*
X124216000Y-90584000D01*
G75*
G02*
X124416000Y-90784000I0J-200000D01*
G01*
X124416000Y-91334000D01*
G75*
G02*
X124216000Y-91534000I-200000J0D01*
G01*
X123816000Y-91534000D01*
G75*
G02*
X123616000Y-91334000I0J200000D01*
G01*
G37*
G36*
G01*
X125507000Y-96136750D02*
X125507000Y-96649250D01*
G75*
G02*
X125288250Y-96868000I-218750J0D01*
G01*
X124850750Y-96868000D01*
G75*
G02*
X124632000Y-96649250I0J218750D01*
G01*
X124632000Y-96136750D01*
G75*
G02*
X124850750Y-95918000I218750J0D01*
G01*
X125288250Y-95918000D01*
G75*
G02*
X125507000Y-96136750I0J-218750D01*
G01*
G37*
G36*
G01*
X127082000Y-96136750D02*
X127082000Y-96649250D01*
G75*
G02*
X126863250Y-96868000I-218750J0D01*
G01*
X126425750Y-96868000D01*
G75*
G02*
X126207000Y-96649250I0J218750D01*
G01*
X126207000Y-96136750D01*
G75*
G02*
X126425750Y-95918000I218750J0D01*
G01*
X126863250Y-95918000D01*
G75*
G02*
X127082000Y-96136750I0J-218750D01*
G01*
G37*
G36*
G01*
X123059000Y-93528000D02*
X122559000Y-93528000D01*
G75*
G02*
X122334000Y-93303000I0J225000D01*
G01*
X122334000Y-92853000D01*
G75*
G02*
X122559000Y-92628000I225000J0D01*
G01*
X123059000Y-92628000D01*
G75*
G02*
X123284000Y-92853000I0J-225000D01*
G01*
X123284000Y-93303000D01*
G75*
G02*
X123059000Y-93528000I-225000J0D01*
G01*
G37*
G36*
G01*
X123059000Y-95078000D02*
X122559000Y-95078000D01*
G75*
G02*
X122334000Y-94853000I0J225000D01*
G01*
X122334000Y-94403000D01*
G75*
G02*
X122559000Y-94178000I225000J0D01*
G01*
X123059000Y-94178000D01*
G75*
G02*
X123284000Y-94403000I0J-225000D01*
G01*
X123284000Y-94853000D01*
G75*
G02*
X123059000Y-95078000I-225000J0D01*
G01*
G37*
G36*
G01*
X120011000Y-93528000D02*
X119511000Y-93528000D01*
G75*
G02*
X119286000Y-93303000I0J225000D01*
G01*
X119286000Y-92853000D01*
G75*
G02*
X119511000Y-92628000I225000J0D01*
G01*
X120011000Y-92628000D01*
G75*
G02*
X120236000Y-92853000I0J-225000D01*
G01*
X120236000Y-93303000D01*
G75*
G02*
X120011000Y-93528000I-225000J0D01*
G01*
G37*
G36*
G01*
X120011000Y-95078000D02*
X119511000Y-95078000D01*
G75*
G02*
X119286000Y-94853000I0J225000D01*
G01*
X119286000Y-94403000D01*
G75*
G02*
X119511000Y-94178000I225000J0D01*
G01*
X120011000Y-94178000D01*
G75*
G02*
X120236000Y-94403000I0J-225000D01*
G01*
X120236000Y-94853000D01*
G75*
G02*
X120011000Y-95078000I-225000J0D01*
G01*
G37*
G36*
G01*
X121535000Y-93528000D02*
X121035000Y-93528000D01*
G75*
G02*
X120810000Y-93303000I0J225000D01*
G01*
X120810000Y-92853000D01*
G75*
G02*
X121035000Y-92628000I225000J0D01*
G01*
X121535000Y-92628000D01*
G75*
G02*
X121760000Y-92853000I0J-225000D01*
G01*
X121760000Y-93303000D01*
G75*
G02*
X121535000Y-93528000I-225000J0D01*
G01*
G37*
G36*
G01*
X121535000Y-95078000D02*
X121035000Y-95078000D01*
G75*
G02*
X120810000Y-94853000I0J225000D01*
G01*
X120810000Y-94403000D01*
G75*
G02*
X121035000Y-94178000I225000J0D01*
G01*
X121535000Y-94178000D01*
G75*
G02*
X121760000Y-94403000I0J-225000D01*
G01*
X121760000Y-94853000D01*
G75*
G02*
X121535000Y-95078000I-225000J0D01*
G01*
G37*
G36*
G01*
X128647000Y-93528000D02*
X128147000Y-93528000D01*
G75*
G02*
X127922000Y-93303000I0J225000D01*
G01*
X127922000Y-92853000D01*
G75*
G02*
X128147000Y-92628000I225000J0D01*
G01*
X128647000Y-92628000D01*
G75*
G02*
X128872000Y-92853000I0J-225000D01*
G01*
X128872000Y-93303000D01*
G75*
G02*
X128647000Y-93528000I-225000J0D01*
G01*
G37*
G36*
G01*
X128647000Y-95078000D02*
X128147000Y-95078000D01*
G75*
G02*
X127922000Y-94853000I0J225000D01*
G01*
X127922000Y-94403000D01*
G75*
G02*
X128147000Y-94178000I225000J0D01*
G01*
X128647000Y-94178000D01*
G75*
G02*
X128872000Y-94403000I0J-225000D01*
G01*
X128872000Y-94853000D01*
G75*
G02*
X128647000Y-95078000I-225000J0D01*
G01*
G37*
G36*
G01*
X168727000Y-80387000D02*
X168727000Y-79887000D01*
G75*
G02*
X168952000Y-79662000I225000J0D01*
G01*
X169402000Y-79662000D01*
G75*
G02*
X169627000Y-79887000I0J-225000D01*
G01*
X169627000Y-80387000D01*
G75*
G02*
X169402000Y-80612000I-225000J0D01*
G01*
X168952000Y-80612000D01*
G75*
G02*
X168727000Y-80387000I0J225000D01*
G01*
G37*
G36*
G01*
X167177000Y-80387000D02*
X167177000Y-79887000D01*
G75*
G02*
X167402000Y-79662000I225000J0D01*
G01*
X167852000Y-79662000D01*
G75*
G02*
X168077000Y-79887000I0J-225000D01*
G01*
X168077000Y-80387000D01*
G75*
G02*
X167852000Y-80612000I-225000J0D01*
G01*
X167402000Y-80612000D01*
G75*
G02*
X167177000Y-80387000I0J225000D01*
G01*
G37*
G36*
G01*
X154157000Y-91230000D02*
X154707000Y-91230000D01*
G75*
G02*
X154907000Y-91430000I0J-200000D01*
G01*
X154907000Y-91830000D01*
G75*
G02*
X154707000Y-92030000I-200000J0D01*
G01*
X154157000Y-92030000D01*
G75*
G02*
X153957000Y-91830000I0J200000D01*
G01*
X153957000Y-91430000D01*
G75*
G02*
X154157000Y-91230000I200000J0D01*
G01*
G37*
G36*
G01*
X154157000Y-89580000D02*
X154707000Y-89580000D01*
G75*
G02*
X154907000Y-89780000I0J-200000D01*
G01*
X154907000Y-90180000D01*
G75*
G02*
X154707000Y-90380000I-200000J0D01*
G01*
X154157000Y-90380000D01*
G75*
G02*
X153957000Y-90180000I0J200000D01*
G01*
X153957000Y-89780000D01*
G75*
G02*
X154157000Y-89580000I200000J0D01*
G01*
G37*
G36*
G01*
X154688250Y-93503000D02*
X154175750Y-93503000D01*
G75*
G02*
X153957000Y-93284250I0J218750D01*
G01*
X153957000Y-92846750D01*
G75*
G02*
X154175750Y-92628000I218750J0D01*
G01*
X154688250Y-92628000D01*
G75*
G02*
X154907000Y-92846750I0J-218750D01*
G01*
X154907000Y-93284250D01*
G75*
G02*
X154688250Y-93503000I-218750J0D01*
G01*
G37*
G36*
G01*
X154688250Y-95078000D02*
X154175750Y-95078000D01*
G75*
G02*
X153957000Y-94859250I0J218750D01*
G01*
X153957000Y-94421750D01*
G75*
G02*
X154175750Y-94203000I218750J0D01*
G01*
X154688250Y-94203000D01*
G75*
G02*
X154907000Y-94421750I0J-218750D01*
G01*
X154907000Y-94859250D01*
G75*
G02*
X154688250Y-95078000I-218750J0D01*
G01*
G37*
D20*
X147076000Y-64909000D03*
X147076000Y-66179000D03*
X147076000Y-67449000D03*
X147076000Y-68719000D03*
X139876000Y-68719000D03*
X139876000Y-67449000D03*
X139876000Y-66179000D03*
X139876000Y-64909000D03*
G36*
G01*
X148967000Y-65461000D02*
X148467000Y-65461000D01*
G75*
G02*
X148242000Y-65236000I0J225000D01*
G01*
X148242000Y-64786000D01*
G75*
G02*
X148467000Y-64561000I225000J0D01*
G01*
X148967000Y-64561000D01*
G75*
G02*
X149192000Y-64786000I0J-225000D01*
G01*
X149192000Y-65236000D01*
G75*
G02*
X148967000Y-65461000I-225000J0D01*
G01*
G37*
G36*
G01*
X148967000Y-67011000D02*
X148467000Y-67011000D01*
G75*
G02*
X148242000Y-66786000I0J225000D01*
G01*
X148242000Y-66336000D01*
G75*
G02*
X148467000Y-66111000I225000J0D01*
G01*
X148967000Y-66111000D01*
G75*
G02*
X149192000Y-66336000I0J-225000D01*
G01*
X149192000Y-66786000D01*
G75*
G02*
X148967000Y-67011000I-225000J0D01*
G01*
G37*
G36*
G01*
X180259400Y-75775000D02*
X179709400Y-75775000D01*
G75*
G02*
X179509400Y-75575000I0J200000D01*
G01*
X179509400Y-75175000D01*
G75*
G02*
X179709400Y-74975000I200000J0D01*
G01*
X180259400Y-74975000D01*
G75*
G02*
X180459400Y-75175000I0J-200000D01*
G01*
X180459400Y-75575000D01*
G75*
G02*
X180259400Y-75775000I-200000J0D01*
G01*
G37*
G36*
G01*
X180259400Y-77425000D02*
X179709400Y-77425000D01*
G75*
G02*
X179509400Y-77225000I0J200000D01*
G01*
X179509400Y-76825000D01*
G75*
G02*
X179709400Y-76625000I200000J0D01*
G01*
X180259400Y-76625000D01*
G75*
G02*
X180459400Y-76825000I0J-200000D01*
G01*
X180459400Y-77225000D01*
G75*
G02*
X180259400Y-77425000I-200000J0D01*
G01*
G37*
G36*
G01*
X181783400Y-75775000D02*
X181233400Y-75775000D01*
G75*
G02*
X181033400Y-75575000I0J200000D01*
G01*
X181033400Y-75175000D01*
G75*
G02*
X181233400Y-74975000I200000J0D01*
G01*
X181783400Y-74975000D01*
G75*
G02*
X181983400Y-75175000I0J-200000D01*
G01*
X181983400Y-75575000D01*
G75*
G02*
X181783400Y-75775000I-200000J0D01*
G01*
G37*
G36*
G01*
X181783400Y-77425000D02*
X181233400Y-77425000D01*
G75*
G02*
X181033400Y-77225000I0J200000D01*
G01*
X181033400Y-76825000D01*
G75*
G02*
X181233400Y-76625000I200000J0D01*
G01*
X181783400Y-76625000D01*
G75*
G02*
X181983400Y-76825000I0J-200000D01*
G01*
X181983400Y-77225000D01*
G75*
G02*
X181783400Y-77425000I-200000J0D01*
G01*
G37*
G36*
G01*
X183307400Y-75775000D02*
X182757400Y-75775000D01*
G75*
G02*
X182557400Y-75575000I0J200000D01*
G01*
X182557400Y-75175000D01*
G75*
G02*
X182757400Y-74975000I200000J0D01*
G01*
X183307400Y-74975000D01*
G75*
G02*
X183507400Y-75175000I0J-200000D01*
G01*
X183507400Y-75575000D01*
G75*
G02*
X183307400Y-75775000I-200000J0D01*
G01*
G37*
G36*
G01*
X183307400Y-77425000D02*
X182757400Y-77425000D01*
G75*
G02*
X182557400Y-77225000I0J200000D01*
G01*
X182557400Y-76825000D01*
G75*
G02*
X182757400Y-76625000I200000J0D01*
G01*
X183307400Y-76625000D01*
G75*
G02*
X183507400Y-76825000I0J-200000D01*
G01*
X183507400Y-77225000D01*
G75*
G02*
X183307400Y-77425000I-200000J0D01*
G01*
G37*
G36*
G01*
X187879400Y-77425000D02*
X187329400Y-77425000D01*
G75*
G02*
X187129400Y-77225000I0J200000D01*
G01*
X187129400Y-76825000D01*
G75*
G02*
X187329400Y-76625000I200000J0D01*
G01*
X187879400Y-76625000D01*
G75*
G02*
X188079400Y-76825000I0J-200000D01*
G01*
X188079400Y-77225000D01*
G75*
G02*
X187879400Y-77425000I-200000J0D01*
G01*
G37*
G36*
G01*
X187879400Y-75775000D02*
X187329400Y-75775000D01*
G75*
G02*
X187129400Y-75575000I0J200000D01*
G01*
X187129400Y-75175000D01*
G75*
G02*
X187329400Y-74975000I200000J0D01*
G01*
X187879400Y-74975000D01*
G75*
G02*
X188079400Y-75175000I0J-200000D01*
G01*
X188079400Y-75575000D01*
G75*
G02*
X187879400Y-75775000I-200000J0D01*
G01*
G37*
G36*
G01*
X186355400Y-77425000D02*
X185805400Y-77425000D01*
G75*
G02*
X185605400Y-77225000I0J200000D01*
G01*
X185605400Y-76825000D01*
G75*
G02*
X185805400Y-76625000I200000J0D01*
G01*
X186355400Y-76625000D01*
G75*
G02*
X186555400Y-76825000I0J-200000D01*
G01*
X186555400Y-77225000D01*
G75*
G02*
X186355400Y-77425000I-200000J0D01*
G01*
G37*
G36*
G01*
X186355400Y-75775000D02*
X185805400Y-75775000D01*
G75*
G02*
X185605400Y-75575000I0J200000D01*
G01*
X185605400Y-75175000D01*
G75*
G02*
X185805400Y-74975000I200000J0D01*
G01*
X186355400Y-74975000D01*
G75*
G02*
X186555400Y-75175000I0J-200000D01*
G01*
X186555400Y-75575000D01*
G75*
G02*
X186355400Y-75775000I-200000J0D01*
G01*
G37*
G36*
G01*
X188853400Y-74975000D02*
X189403400Y-74975000D01*
G75*
G02*
X189603400Y-75175000I0J-200000D01*
G01*
X189603400Y-75575000D01*
G75*
G02*
X189403400Y-75775000I-200000J0D01*
G01*
X188853400Y-75775000D01*
G75*
G02*
X188653400Y-75575000I0J200000D01*
G01*
X188653400Y-75175000D01*
G75*
G02*
X188853400Y-74975000I200000J0D01*
G01*
G37*
G36*
G01*
X188853400Y-76625000D02*
X189403400Y-76625000D01*
G75*
G02*
X189603400Y-76825000I0J-200000D01*
G01*
X189603400Y-77225000D01*
G75*
G02*
X189403400Y-77425000I-200000J0D01*
G01*
X188853400Y-77425000D01*
G75*
G02*
X188653400Y-77225000I0J200000D01*
G01*
X188653400Y-76825000D01*
G75*
G02*
X188853400Y-76625000I200000J0D01*
G01*
G37*
G36*
G01*
X175493000Y-84753000D02*
X176043000Y-84753000D01*
G75*
G02*
X176243000Y-84953000I0J-200000D01*
G01*
X176243000Y-85353000D01*
G75*
G02*
X176043000Y-85553000I-200000J0D01*
G01*
X175493000Y-85553000D01*
G75*
G02*
X175293000Y-85353000I0J200000D01*
G01*
X175293000Y-84953000D01*
G75*
G02*
X175493000Y-84753000I200000J0D01*
G01*
G37*
G36*
G01*
X175493000Y-83103000D02*
X176043000Y-83103000D01*
G75*
G02*
X176243000Y-83303000I0J-200000D01*
G01*
X176243000Y-83703000D01*
G75*
G02*
X176043000Y-83903000I-200000J0D01*
G01*
X175493000Y-83903000D01*
G75*
G02*
X175293000Y-83703000I0J200000D01*
G01*
X175293000Y-83303000D01*
G75*
G02*
X175493000Y-83103000I200000J0D01*
G01*
G37*
G36*
G01*
X153037250Y-93503000D02*
X152524750Y-93503000D01*
G75*
G02*
X152306000Y-93284250I0J218750D01*
G01*
X152306000Y-92846750D01*
G75*
G02*
X152524750Y-92628000I218750J0D01*
G01*
X153037250Y-92628000D01*
G75*
G02*
X153256000Y-92846750I0J-218750D01*
G01*
X153256000Y-93284250D01*
G75*
G02*
X153037250Y-93503000I-218750J0D01*
G01*
G37*
G36*
G01*
X153037250Y-95078000D02*
X152524750Y-95078000D01*
G75*
G02*
X152306000Y-94859250I0J218750D01*
G01*
X152306000Y-94421750D01*
G75*
G02*
X152524750Y-94203000I218750J0D01*
G01*
X153037250Y-94203000D01*
G75*
G02*
X153256000Y-94421750I0J-218750D01*
G01*
X153256000Y-94859250D01*
G75*
G02*
X153037250Y-95078000I-218750J0D01*
G01*
G37*
G36*
G01*
X149735250Y-93477500D02*
X149222750Y-93477500D01*
G75*
G02*
X149004000Y-93258750I0J218750D01*
G01*
X149004000Y-92821250D01*
G75*
G02*
X149222750Y-92602500I218750J0D01*
G01*
X149735250Y-92602500D01*
G75*
G02*
X149954000Y-92821250I0J-218750D01*
G01*
X149954000Y-93258750D01*
G75*
G02*
X149735250Y-93477500I-218750J0D01*
G01*
G37*
G36*
G01*
X149735250Y-95052500D02*
X149222750Y-95052500D01*
G75*
G02*
X149004000Y-94833750I0J218750D01*
G01*
X149004000Y-94396250D01*
G75*
G02*
X149222750Y-94177500I218750J0D01*
G01*
X149735250Y-94177500D01*
G75*
G02*
X149954000Y-94396250I0J-218750D01*
G01*
X149954000Y-94833750D01*
G75*
G02*
X149735250Y-95052500I-218750J0D01*
G01*
G37*
G36*
G01*
X150855000Y-91230000D02*
X151405000Y-91230000D01*
G75*
G02*
X151605000Y-91430000I0J-200000D01*
G01*
X151605000Y-91830000D01*
G75*
G02*
X151405000Y-92030000I-200000J0D01*
G01*
X150855000Y-92030000D01*
G75*
G02*
X150655000Y-91830000I0J200000D01*
G01*
X150655000Y-91430000D01*
G75*
G02*
X150855000Y-91230000I200000J0D01*
G01*
G37*
G36*
G01*
X150855000Y-89580000D02*
X151405000Y-89580000D01*
G75*
G02*
X151605000Y-89780000I0J-200000D01*
G01*
X151605000Y-90180000D01*
G75*
G02*
X151405000Y-90380000I-200000J0D01*
G01*
X150855000Y-90380000D01*
G75*
G02*
X150655000Y-90180000I0J200000D01*
G01*
X150655000Y-89780000D01*
G75*
G02*
X150855000Y-89580000I200000J0D01*
G01*
G37*
G36*
G01*
X149204000Y-91230000D02*
X149754000Y-91230000D01*
G75*
G02*
X149954000Y-91430000I0J-200000D01*
G01*
X149954000Y-91830000D01*
G75*
G02*
X149754000Y-92030000I-200000J0D01*
G01*
X149204000Y-92030000D01*
G75*
G02*
X149004000Y-91830000I0J200000D01*
G01*
X149004000Y-91430000D01*
G75*
G02*
X149204000Y-91230000I200000J0D01*
G01*
G37*
G36*
G01*
X149204000Y-89580000D02*
X149754000Y-89580000D01*
G75*
G02*
X149954000Y-89780000I0J-200000D01*
G01*
X149954000Y-90180000D01*
G75*
G02*
X149754000Y-90380000I-200000J0D01*
G01*
X149204000Y-90380000D01*
G75*
G02*
X149004000Y-90180000I0J200000D01*
G01*
X149004000Y-89780000D01*
G75*
G02*
X149204000Y-89580000I200000J0D01*
G01*
G37*
D21*
X165187000Y-87708000D03*
X165187000Y-86758000D03*
X165187000Y-85808000D03*
X167807000Y-85808000D03*
X167807000Y-86758000D03*
X167807000Y-87708000D03*
G36*
G01*
X163174000Y-85516000D02*
X163724000Y-85516000D01*
G75*
G02*
X163924000Y-85716000I0J-200000D01*
G01*
X163924000Y-86116000D01*
G75*
G02*
X163724000Y-86316000I-200000J0D01*
G01*
X163174000Y-86316000D01*
G75*
G02*
X162974000Y-86116000I0J200000D01*
G01*
X162974000Y-85716000D01*
G75*
G02*
X163174000Y-85516000I200000J0D01*
G01*
G37*
G36*
G01*
X163174000Y-87166000D02*
X163724000Y-87166000D01*
G75*
G02*
X163924000Y-87366000I0J-200000D01*
G01*
X163924000Y-87766000D01*
G75*
G02*
X163724000Y-87966000I-200000J0D01*
G01*
X163174000Y-87966000D01*
G75*
G02*
X162974000Y-87766000I0J200000D01*
G01*
X162974000Y-87366000D01*
G75*
G02*
X163174000Y-87166000I200000J0D01*
G01*
G37*
G36*
G01*
X169270000Y-87166000D02*
X169820000Y-87166000D01*
G75*
G02*
X170020000Y-87366000I0J-200000D01*
G01*
X170020000Y-87766000D01*
G75*
G02*
X169820000Y-87966000I-200000J0D01*
G01*
X169270000Y-87966000D01*
G75*
G02*
X169070000Y-87766000I0J200000D01*
G01*
X169070000Y-87366000D01*
G75*
G02*
X169270000Y-87166000I200000J0D01*
G01*
G37*
G36*
G01*
X169270000Y-85516000D02*
X169820000Y-85516000D01*
G75*
G02*
X170020000Y-85716000I0J-200000D01*
G01*
X170020000Y-86116000D01*
G75*
G02*
X169820000Y-86316000I-200000J0D01*
G01*
X169270000Y-86316000D01*
G75*
G02*
X169070000Y-86116000I0J200000D01*
G01*
X169070000Y-85716000D01*
G75*
G02*
X169270000Y-85516000I200000J0D01*
G01*
G37*
G36*
G01*
X166847000Y-89537250D02*
X166847000Y-89024750D01*
G75*
G02*
X167065750Y-88806000I218750J0D01*
G01*
X167503250Y-88806000D01*
G75*
G02*
X167722000Y-89024750I0J-218750D01*
G01*
X167722000Y-89537250D01*
G75*
G02*
X167503250Y-89756000I-218750J0D01*
G01*
X167065750Y-89756000D01*
G75*
G02*
X166847000Y-89537250I0J218750D01*
G01*
G37*
G36*
G01*
X165272000Y-89537250D02*
X165272000Y-89024750D01*
G75*
G02*
X165490750Y-88806000I218750J0D01*
G01*
X165928250Y-88806000D01*
G75*
G02*
X166147000Y-89024750I0J-218750D01*
G01*
X166147000Y-89537250D01*
G75*
G02*
X165928250Y-89756000I-218750J0D01*
G01*
X165490750Y-89756000D01*
G75*
G02*
X165272000Y-89537250I0J218750D01*
G01*
G37*
D22*
X168622000Y-89535000D03*
X170722000Y-89535000D03*
M02*
