M48
; DRILL file {KiCad 5.1.9-73d0e3b20d~88~ubuntu18.04.1} date Mon Jan 11 20:19:48 2021
; FORMAT={-:-/ absolute / inch / decimal}
; #@! TF.CreationDate,2021-01-11T20:19:48+02:00
; #@! TF.GenerationSoftware,Kicad,Pcbnew,5.1.9-73d0e3b20d~88~ubuntu18.04.1
; #@! TF.FileFunction,Plated,1,2,PTH
FMAT,2
INCH
T1C0.0079
T2C0.0118
T3C0.0197
T4C0.0236
%
G90
G05
T1
X5.4078Y-3.0178
X5.4078Y-3.0627
X5.4078Y-3.1076
X5.4078Y-3.1524
X5.4078Y-3.1973
X5.4078Y-3.2422
X5.4527Y-3.0178
X5.4527Y-3.0627
X5.4527Y-3.1076
X5.4527Y-3.1524
X5.4527Y-3.1973
X5.4527Y-3.2422
X5.4976Y-3.0178
X5.4976Y-3.0627
X5.4976Y-3.1076
X5.4976Y-3.1524
X5.4976Y-3.1973
X5.4976Y-3.2422
X5.5424Y-3.0178
X5.5424Y-3.0627
X5.5424Y-3.1076
X5.5424Y-3.1524
X5.5424Y-3.1973
X5.5424Y-3.2422
X5.5873Y-3.0178
X5.5873Y-3.0627
X5.5873Y-3.1076
X5.5873Y-3.1524
X5.5873Y-3.1973
X5.5873Y-3.2422
X5.6322Y-3.0178
X5.6322Y-3.0627
X5.6322Y-3.1076
X5.6322Y-3.1524
X5.6322Y-3.1973
X5.6322Y-3.2422
T2
X4.71Y-2.526
X4.71Y-2.5654
X4.71Y-2.6047
X4.71Y-2.6441
X4.71Y-2.6835
X4.7494Y-2.526
X4.7494Y-2.5654
X4.7494Y-2.6047
X4.7494Y-2.6441
X4.7494Y-2.6835
X4.7887Y-2.526
X4.7887Y-2.5654
X4.7887Y-2.6047
X4.7887Y-2.6441
X4.7887Y-2.6835
X4.8281Y-2.526
X4.8281Y-2.5654
X4.8281Y-2.6047
X4.8281Y-2.6441
X4.8281Y-2.6835
X4.8601Y-2.9324
X4.862Y-3.088
X4.8675Y-2.526
X4.8675Y-2.5654
X4.8675Y-2.6047
X4.8675Y-2.6441
X4.8675Y-2.6835
X4.94Y-3.29
X4.942Y-3.4
X4.944Y-3.71
X4.95Y-3.63
X4.998Y-2.8293
X5.05Y-2.73
X5.102Y-3.09
X5.11Y-3.018
X5.126Y-3.088
X5.136Y-3.018
X5.15Y-3.4167
X5.1557Y-3.6943
X5.16Y-3.018
X5.16Y-3.47
X5.182Y-3.018
X5.198Y-3.48
X5.202Y-2.318
X5.202Y-2.3574
X5.202Y-2.3967
X5.202Y-2.4361
X5.202Y-2.4755
X5.222Y-2.74
X5.2414Y-2.318
X5.2414Y-2.3574
X5.2414Y-2.3967
X5.2414Y-2.4361
X5.2414Y-2.4755
X5.248Y-3.518
X5.272Y-3.518
X5.2807Y-2.318
X5.2807Y-2.3574
X5.2807Y-2.3967
X5.2807Y-2.4361
X5.2807Y-2.4755
X5.298Y-3.518
X5.316Y-2.692
X5.3201Y-2.318
X5.3201Y-2.3574
X5.3201Y-2.3967
X5.3201Y-2.4361
X5.3201Y-2.4755
X5.329Y-2.813
X5.33Y-3.2
X5.34Y-3.06
X5.34Y-3.102
X5.348Y-3.262
X5.3595Y-2.318
X5.3595Y-2.3574
X5.3595Y-2.3967
X5.3595Y-2.4361
X5.3595Y-2.4755
X5.36Y-2.95
X5.36Y-3.47
X5.3611Y-3.52
X5.402Y-2.948
X5.4081Y-3.4619
X5.414Y-2.692
X5.4217Y-3.3477
X5.436Y-3.462
X5.4717Y-3.6012
X5.492Y-3.49
X5.508Y-2.706
X5.5352Y-2.5772
X5.5496Y-3.3121
X5.554Y-3.4
X5.5584Y-3.47
X5.6086Y-3.3286
X5.6086Y-3.368
X5.6122Y-3.6012
X5.63Y-3.49
X5.648Y-3.3286
X5.648Y-3.368
X5.65Y-3.28
X5.658Y-2.814
X5.69Y-3.0
X5.692Y-2.7967
X5.7057Y-3.1925
X5.708Y-3.052
X5.71Y-2.85
X5.7162Y-3.2198
X5.7261Y-2.8339
X5.7275Y-3.31
X5.74Y-3.24
X5.74Y-3.6285
X5.7719Y-3.1019
X5.81Y-2.7967
X5.84Y-3.672
X5.8461Y-3.31
X5.8494Y-3.2622
X5.8569Y-2.7711
X5.8613Y-2.8287
X5.89Y-2.558
X5.89Y-2.85
X5.8963Y-3.24
X5.9Y-3.08
X5.92Y-3.26
X5.93Y-3.07
X5.937Y-2.485
X5.948Y-2.63
X5.958Y-2.53
X5.96Y-2.89
X5.96Y-2.9608
X5.9697Y-3.1275
X5.978Y-2.554
X5.9828Y-2.9495
X5.99Y-2.66
X5.99Y-3.07
X6.0Y-3.55
X6.01Y-2.41
X6.01Y-2.56
X6.01Y-2.965
X6.01Y-3.62
X6.02Y-2.91
X6.06Y-3.08
X6.1022Y-2.8404
X6.13Y-3.03
X6.13Y-3.138
X6.13Y-3.45
X6.165Y-3.485
X6.184Y-3.47
X6.2128Y-3.3891
X6.2495Y-3.3755
X6.31Y-2.3
X6.318Y-3.612
X6.318Y-3.6514
X6.318Y-3.6907
X6.318Y-3.7301
X6.318Y-3.7695
X6.3574Y-3.612
X6.3574Y-3.6514
X6.3574Y-3.6907
X6.3574Y-3.7301
X6.3574Y-3.7695
X6.3967Y-3.612
X6.3967Y-3.6514
X6.3967Y-3.6907
X6.3967Y-3.7301
X6.3967Y-3.7695
X6.4361Y-3.612
X6.4361Y-3.6514
X6.4361Y-3.6907
X6.4361Y-3.7301
X6.4361Y-3.7695
X6.4755Y-3.612
X6.4755Y-3.6514
X6.4755Y-3.6907
X6.4755Y-3.7301
X6.4755Y-3.7695
X6.476Y-3.186
X6.49Y-3.55
X6.54Y-3.14
X6.54Y-3.46
X6.565Y-3.475
X6.62Y-3.49
X6.638Y-3.19
X6.74Y-3.32
X6.76Y-3.52
X6.77Y-3.38
X6.8Y-3.35
X6.8374Y-3.4174
X6.84Y-3.11
X6.85Y-2.97
X6.856Y-3.25
X6.8785Y-3.3785
X6.8948Y-3.3364
X6.946Y-2.774
X6.97Y-3.08
X6.97Y-3.1194
X6.97Y-3.1587
X6.97Y-3.42
X6.99Y-3.34
X7.0094Y-3.08
X7.0094Y-3.1194
X7.0094Y-3.1587
X7.0487Y-3.08
X7.0487Y-3.1194
X7.0487Y-3.1587
X7.062Y-3.456
X7.0909Y-3.3535
X7.106Y-2.108
X7.106Y-2.1474
X7.106Y-2.1867
X7.106Y-2.2261
X7.106Y-2.2655
X7.1454Y-2.108
X7.1454Y-2.1474
X7.1454Y-2.1867
X7.1454Y-2.2261
X7.1454Y-2.2655
X7.176Y-3.434
X7.176Y-3.4734
X7.176Y-3.4734
X7.176Y-3.5127
X7.176Y-3.5127
X7.176Y-3.5521
X7.176Y-3.5521
X7.176Y-3.5915
X7.176Y-3.5915
X7.176Y-3.6309
X7.1787Y-3.158
X7.1787Y-3.158
X7.1787Y-3.158
X7.1787Y-3.1974
X7.1787Y-3.1974
X7.1787Y-3.1974
X7.1787Y-3.1974
X7.1787Y-3.1974
X7.1787Y-3.1974
X7.1787Y-3.2367
X7.1787Y-3.2367
X7.1787Y-3.2367
X7.1787Y-3.2367
X7.1787Y-3.2367
X7.1787Y-3.2367
X7.1847Y-2.108
X7.1847Y-2.1474
X7.1847Y-2.1867
X7.1847Y-2.2261
X7.1847Y-2.2655
X7.2154Y-3.434
X7.2154Y-3.434
X7.2154Y-3.4734
X7.2154Y-3.4734
X7.2154Y-3.4734
X7.2154Y-3.4734
X7.2154Y-3.5127
X7.2154Y-3.5127
X7.2154Y-3.5127
X7.2154Y-3.5127
X7.2154Y-3.5521
X7.2154Y-3.5521
X7.2154Y-3.5521
X7.2154Y-3.5521
X7.2154Y-3.5915
X7.2154Y-3.5915
X7.2154Y-3.5915
X7.2154Y-3.5915
X7.2154Y-3.6309
X7.2154Y-3.6309
X7.2181Y-3.158
X7.2181Y-3.158
X7.2181Y-3.158
X7.2181Y-3.158
X7.2181Y-3.1974
X7.2181Y-3.1974
X7.2181Y-3.1974
X7.2181Y-3.1974
X7.2181Y-3.1974
X7.2181Y-3.1974
X7.2181Y-3.1974
X7.2181Y-3.1974
X7.2181Y-3.2367
X7.2181Y-3.2367
X7.2181Y-3.2367
X7.2181Y-3.2367
X7.2181Y-3.2367
X7.2181Y-3.2367
X7.2181Y-3.2367
X7.2181Y-3.2367
X7.2241Y-2.108
X7.2241Y-2.1474
X7.2241Y-2.1867
X7.2241Y-2.2261
X7.2241Y-2.2655
X7.2547Y-3.434
X7.2547Y-3.434
X7.2547Y-3.434
X7.2547Y-3.4734
X7.2547Y-3.4734
X7.2547Y-3.4734
X7.2547Y-3.4734
X7.2547Y-3.4734
X7.2547Y-3.4734
X7.2547Y-3.5127
X7.2547Y-3.5127
X7.2547Y-3.5127
X7.2547Y-3.5127
X7.2547Y-3.5127
X7.2547Y-3.5127
X7.2547Y-3.5521
X7.2547Y-3.5521
X7.2547Y-3.5521
X7.2547Y-3.5521
X7.2547Y-3.5521
X7.2547Y-3.5521
X7.2547Y-3.5915
X7.2547Y-3.5915
X7.2547Y-3.5915
X7.2547Y-3.5915
X7.2547Y-3.5915
X7.2547Y-3.5915
X7.2547Y-3.6309
X7.2547Y-3.6309
X7.2547Y-3.6309
X7.2635Y-2.108
X7.2635Y-2.1474
X7.2635Y-2.1867
X7.2635Y-2.2261
X7.2635Y-2.2655
X7.2941Y-3.434
X7.2941Y-3.434
X7.2941Y-3.434
X7.2941Y-3.434
X7.2941Y-3.4734
X7.2941Y-3.4734
X7.2941Y-3.4734
X7.2941Y-3.4734
X7.2941Y-3.4734
X7.2941Y-3.4734
X7.2941Y-3.4734
X7.2941Y-3.4734
X7.2941Y-3.5127
X7.2941Y-3.5127
X7.2941Y-3.5127
X7.2941Y-3.5127
X7.2941Y-3.5127
X7.2941Y-3.5127
X7.2941Y-3.5127
X7.2941Y-3.5127
X7.2941Y-3.5521
X7.2941Y-3.5521
X7.2941Y-3.5521
X7.2941Y-3.5521
X7.2941Y-3.5521
X7.2941Y-3.5521
X7.2941Y-3.5521
X7.2941Y-3.5521
X7.2941Y-3.5915
X7.2941Y-3.5915
X7.2941Y-3.5915
X7.2941Y-3.5915
X7.2941Y-3.5915
X7.2941Y-3.5915
X7.2941Y-3.5915
X7.2941Y-3.5915
X7.2941Y-3.6309
X7.2941Y-3.6309
X7.2941Y-3.6309
X7.2941Y-3.6309
X7.3335Y-3.434
X7.3335Y-3.434
X7.3335Y-3.434
X7.3335Y-3.434
X7.3335Y-3.434
X7.3335Y-3.4734
X7.3335Y-3.4734
X7.3335Y-3.4734
X7.3335Y-3.4734
X7.3335Y-3.4734
X7.3335Y-3.4734
X7.3335Y-3.4734
X7.3335Y-3.4734
X7.3335Y-3.4734
X7.3335Y-3.4734
X7.3335Y-3.5127
X7.3335Y-3.5127
X7.3335Y-3.5127
X7.3335Y-3.5127
X7.3335Y-3.5127
X7.3335Y-3.5127
X7.3335Y-3.5127
X7.3335Y-3.5127
X7.3335Y-3.5127
X7.3335Y-3.5127
X7.3335Y-3.5521
X7.3335Y-3.5521
X7.3335Y-3.5521
X7.3335Y-3.5521
X7.3335Y-3.5521
X7.3335Y-3.5521
X7.3335Y-3.5521
X7.3335Y-3.5521
X7.3335Y-3.5521
X7.3335Y-3.5521
X7.3335Y-3.5915
X7.3335Y-3.5915
X7.3335Y-3.5915
X7.3335Y-3.5915
X7.3335Y-3.5915
X7.3335Y-3.5915
X7.3335Y-3.5915
X7.3335Y-3.5915
X7.3335Y-3.5915
X7.3335Y-3.5915
X7.3335Y-3.6309
X7.3335Y-3.6309
X7.3335Y-3.6309
X7.3335Y-3.6309
X7.3335Y-3.6309
X7.3729Y-3.434
X7.3729Y-3.434
X7.3729Y-3.434
X7.3729Y-3.434
X7.3729Y-3.4734
X7.3729Y-3.4734
X7.3729Y-3.4734
X7.3729Y-3.4734
X7.3729Y-3.4734
X7.3729Y-3.4734
X7.3729Y-3.4734
X7.3729Y-3.4734
X7.3729Y-3.5127
X7.3729Y-3.5127
X7.3729Y-3.5127
X7.3729Y-3.5127
X7.3729Y-3.5127
X7.3729Y-3.5127
X7.3729Y-3.5127
X7.3729Y-3.5127
X7.3729Y-3.5521
X7.3729Y-3.5521
X7.3729Y-3.5521
X7.3729Y-3.5521
X7.3729Y-3.5521
X7.3729Y-3.5521
X7.3729Y-3.5521
X7.3729Y-3.5521
X7.3729Y-3.5915
X7.3729Y-3.5915
X7.3729Y-3.5915
X7.3729Y-3.5915
X7.3729Y-3.5915
X7.3729Y-3.5915
X7.3729Y-3.5915
X7.3729Y-3.5915
X7.3729Y-3.6309
X7.3729Y-3.6309
X7.3729Y-3.6309
X7.3729Y-3.6309
X7.4122Y-3.434
X7.4122Y-3.434
X7.4122Y-3.434
X7.4122Y-3.4734
X7.4122Y-3.4734
X7.4122Y-3.4734
X7.4122Y-3.4734
X7.4122Y-3.4734
X7.4122Y-3.4734
X7.4122Y-3.5127
X7.4122Y-3.5127
X7.4122Y-3.5127
X7.4122Y-3.5127
X7.4122Y-3.5127
X7.4122Y-3.5127
X7.4122Y-3.5521
X7.4122Y-3.5521
X7.4122Y-3.5521
X7.4122Y-3.5521
X7.4122Y-3.5521
X7.4122Y-3.5521
X7.4122Y-3.5915
X7.4122Y-3.5915
X7.4122Y-3.5915
X7.4122Y-3.5915
X7.4122Y-3.5915
X7.4122Y-3.5915
X7.4122Y-3.6309
X7.4122Y-3.6309
X7.4122Y-3.6309
X7.4516Y-3.434
X7.4516Y-3.434
X7.4516Y-3.4734
X7.4516Y-3.4734
X7.4516Y-3.4734
X7.4516Y-3.4734
X7.4516Y-3.5127
X7.4516Y-3.5127
X7.4516Y-3.5127
X7.4516Y-3.5127
X7.4516Y-3.5521
X7.4516Y-3.5521
X7.4516Y-3.5521
X7.4516Y-3.5521
X7.4516Y-3.5915
X7.4516Y-3.5915
X7.4516Y-3.5915
X7.4516Y-3.5915
X7.4516Y-3.6309
X7.4516Y-3.6309
X7.491Y-3.434
X7.491Y-3.4734
X7.491Y-3.4734
X7.491Y-3.5127
X7.491Y-3.5127
X7.491Y-3.5521
X7.491Y-3.5521
X7.491Y-3.5915
X7.491Y-3.5915
X7.491Y-3.6309
X7.53Y-3.434
X7.53Y-3.4734
X7.53Y-3.4734
X7.53Y-3.5127
X7.53Y-3.5127
X7.53Y-3.5521
X7.53Y-3.5521
X7.53Y-3.5915
X7.53Y-3.5915
X7.53Y-3.6309
X7.5694Y-3.434
X7.5694Y-3.434
X7.5694Y-3.4734
X7.5694Y-3.4734
X7.5694Y-3.4734
X7.5694Y-3.4734
X7.5694Y-3.5127
X7.5694Y-3.5127
X7.5694Y-3.5127
X7.5694Y-3.5127
X7.5694Y-3.5521
X7.5694Y-3.5521
X7.5694Y-3.5521
X7.5694Y-3.5521
X7.5694Y-3.5915
X7.5694Y-3.5915
X7.5694Y-3.5915
X7.5694Y-3.5915
X7.5694Y-3.6309
X7.5694Y-3.6309
X7.6087Y-3.434
X7.6087Y-3.434
X7.6087Y-3.434
X7.6087Y-3.4734
X7.6087Y-3.4734
X7.6087Y-3.4734
X7.6087Y-3.4734
X7.6087Y-3.4734
X7.6087Y-3.4734
X7.6087Y-3.5127
X7.6087Y-3.5127
X7.6087Y-3.5127
X7.6087Y-3.5127
X7.6087Y-3.5127
X7.6087Y-3.5127
X7.6087Y-3.5521
X7.6087Y-3.5521
X7.6087Y-3.5521
X7.6087Y-3.5521
X7.6087Y-3.5521
X7.6087Y-3.5521
X7.6087Y-3.5915
X7.6087Y-3.5915
X7.6087Y-3.5915
X7.6087Y-3.5915
X7.6087Y-3.5915
X7.6087Y-3.5915
X7.6087Y-3.6309
X7.6087Y-3.6309
X7.6087Y-3.6309
X7.6481Y-3.434
X7.6481Y-3.434
X7.6481Y-3.434
X7.6481Y-3.434
X7.6481Y-3.4734
X7.6481Y-3.4734
X7.6481Y-3.4734
X7.6481Y-3.4734
X7.6481Y-3.4734
X7.6481Y-3.4734
X7.6481Y-3.4734
X7.6481Y-3.4734
X7.6481Y-3.5127
X7.6481Y-3.5127
X7.6481Y-3.5127
X7.6481Y-3.5127
X7.6481Y-3.5127
X7.6481Y-3.5127
X7.6481Y-3.5127
X7.6481Y-3.5127
X7.6481Y-3.5521
X7.6481Y-3.5521
X7.6481Y-3.5521
X7.6481Y-3.5521
X7.6481Y-3.5521
X7.6481Y-3.5521
X7.6481Y-3.5521
X7.6481Y-3.5521
X7.6481Y-3.5915
X7.6481Y-3.5915
X7.6481Y-3.5915
X7.6481Y-3.5915
X7.6481Y-3.5915
X7.6481Y-3.5915
X7.6481Y-3.5915
X7.6481Y-3.5915
X7.6481Y-3.6309
X7.6481Y-3.6309
X7.6481Y-3.6309
X7.6481Y-3.6309
X7.6875Y-3.434
X7.6875Y-3.434
X7.6875Y-3.434
X7.6875Y-3.434
X7.6875Y-3.434
X7.6875Y-3.4734
X7.6875Y-3.4734
X7.6875Y-3.4734
X7.6875Y-3.4734
X7.6875Y-3.4734
X7.6875Y-3.4734
X7.6875Y-3.4734
X7.6875Y-3.4734
X7.6875Y-3.4734
X7.6875Y-3.4734
X7.6875Y-3.5127
X7.6875Y-3.5127
X7.6875Y-3.5127
X7.6875Y-3.5127
X7.6875Y-3.5127
X7.6875Y-3.5127
X7.6875Y-3.5127
X7.6875Y-3.5127
X7.6875Y-3.5127
X7.6875Y-3.5127
X7.6875Y-3.5521
X7.6875Y-3.5521
X7.6875Y-3.5521
X7.6875Y-3.5521
X7.6875Y-3.5521
X7.6875Y-3.5521
X7.6875Y-3.5521
X7.6875Y-3.5521
X7.6875Y-3.5521
X7.6875Y-3.5521
X7.6875Y-3.5915
X7.6875Y-3.5915
X7.6875Y-3.5915
X7.6875Y-3.5915
X7.6875Y-3.5915
X7.6875Y-3.5915
X7.6875Y-3.5915
X7.6875Y-3.5915
X7.6875Y-3.5915
X7.6875Y-3.5915
X7.6875Y-3.6309
X7.6875Y-3.6309
X7.6875Y-3.6309
X7.6875Y-3.6309
X7.6875Y-3.6309
X7.7269Y-3.434
X7.7269Y-3.434
X7.7269Y-3.434
X7.7269Y-3.434
X7.7269Y-3.4734
X7.7269Y-3.4734
X7.7269Y-3.4734
X7.7269Y-3.4734
X7.7269Y-3.4734
X7.7269Y-3.4734
X7.7269Y-3.4734
X7.7269Y-3.4734
X7.7269Y-3.5127
X7.7269Y-3.5127
X7.7269Y-3.5127
X7.7269Y-3.5127
X7.7269Y-3.5127
X7.7269Y-3.5127
X7.7269Y-3.5127
X7.7269Y-3.5127
X7.7269Y-3.5521
X7.7269Y-3.5521
X7.7269Y-3.5521
X7.7269Y-3.5521
X7.7269Y-3.5521
X7.7269Y-3.5521
X7.7269Y-3.5521
X7.7269Y-3.5521
X7.7269Y-3.5915
X7.7269Y-3.5915
X7.7269Y-3.5915
X7.7269Y-3.5915
X7.7269Y-3.5915
X7.7269Y-3.5915
X7.7269Y-3.5915
X7.7269Y-3.5915
X7.7269Y-3.6309
X7.7269Y-3.6309
X7.7269Y-3.6309
X7.7269Y-3.6309
X7.7662Y-3.434
X7.7662Y-3.434
X7.7662Y-3.434
X7.7662Y-3.4734
X7.7662Y-3.4734
X7.7662Y-3.4734
X7.7662Y-3.4734
X7.7662Y-3.4734
X7.7662Y-3.4734
X7.7662Y-3.5127
X7.7662Y-3.5127
X7.7662Y-3.5127
X7.7662Y-3.5127
X7.7662Y-3.5127
X7.7662Y-3.5127
X7.7662Y-3.5521
X7.7662Y-3.5521
X7.7662Y-3.5521
X7.7662Y-3.5521
X7.7662Y-3.5521
X7.7662Y-3.5521
X7.7662Y-3.5915
X7.7662Y-3.5915
X7.7662Y-3.5915
X7.7662Y-3.5915
X7.7662Y-3.5915
X7.7662Y-3.5915
X7.7662Y-3.6309
X7.7662Y-3.6309
X7.7662Y-3.6309
X7.8056Y-3.434
X7.8056Y-3.434
X7.8056Y-3.4734
X7.8056Y-3.4734
X7.8056Y-3.4734
X7.8056Y-3.4734
X7.8056Y-3.5127
X7.8056Y-3.5127
X7.8056Y-3.5127
X7.8056Y-3.5127
X7.8056Y-3.5521
X7.8056Y-3.5521
X7.8056Y-3.5521
X7.8056Y-3.5521
X7.8056Y-3.5915
X7.8056Y-3.5915
X7.8056Y-3.5915
X7.8056Y-3.5915
X7.8056Y-3.6309
X7.8056Y-3.6309
X7.845Y-3.434
X7.845Y-3.4734
X7.845Y-3.4734
X7.845Y-3.5127
X7.845Y-3.5127
X7.845Y-3.5521
X7.845Y-3.5521
X7.845Y-3.5915
X7.845Y-3.5915
X7.845Y-3.6309
T3
G00X5.3699Y-3.5504
M15
G01X5.3699Y-3.5977
M16
G05
G00X5.7101Y-3.5504
M15
G01X5.7101Y-3.5977
M16
G05
T4
G00X5.3699Y-3.7268
M15
G01X5.3699Y-3.7504
M16
G05
G00X5.7101Y-3.7268
M15
G01X5.7101Y-3.7504
M16
G05
T0
M30
